  0
SECTION
  2
HEADER
  9
$ACADVER
  1
AC1014
  9
$HANDSEED
  5
FFFF
  9
$MEASUREMENT
 70
     1
  0
ENDSEC
  0
SECTION
  2
TABLES
  0
TABLE
  2
VPORT
  5
8
330
0
100
AcDbSymbolTable
 70
     4
  0
VPORT
  5
2E
330
8
100
AcDbSymbolTableRecord
100
AcDbViewportTableRecord
  2
*ACTIVE
 70
     0
 10
0.0
 20
0.0
 11
1.0
 21
1.0
 12
210.0
 22
148.5
 13
0.0
 23
0.0
 14
10.0
 24
10.0
 15
10.0
 25
10.0
 16
0.0
 26
0.0
 36
1.0
 17
0.0
 27
0.0
 37
0.0
 40
341.0
 41
1.24
 42
50.0
 43
0.0
 44
0.0
 50
0.0
 51
0.0
 71
     0
 72
   100
 73
     1
 74
     3
 75
     0
 76
     0
 77
     0
 78
     0
  0
ENDTAB
  0
TABLE
  2
LTYPE
  5
5
330
0
100
AcDbSymbolTable
 70
     1
  0
LTYPE
  5
14
330
5
100
AcDbSymbolTableRecord
100
AcDbLinetypeTableRecord
  2
BYBLOCK
 70
     0
  3

 72
    65
 73
     0
 40
0.0
  0
LTYPE
  5
15
330
5
100
AcDbSymbolTableRecord
100
AcDbLinetypeTableRecord
  2
BYLAYER
 70
     0
  3

 72
    65
 73
     0
 40
0.0
  0
LTYPE
  5
16
330
5
100
AcDbSymbolTableRecord
100
AcDbLinetypeTableRecord
  2
CONTINUOUS
 70
     0
  3
Solid line
 72
    65
 73
     0
 40
0.0
  0
ENDTAB
  0
TABLE
  2
LAYER
  5
2
100
AcDbSymbolTable
 70
20
  0
LAYER
  5
50
100
AcDbSymbolTableRecord
100
AcDbLayerTableRecord
  2
0
 70
0
  6
CONTINUOUS
  0
LAYER
  5
51
100
AcDbSymbolTableRecord
100
AcDbLayerTableRecord
  2
Layer_1
 70
0
  6
CONTINUOUS
  0
LAYER
  5
52
100
AcDbSymbolTableRecord
100
AcDbLayerTableRecord
  2
Sketch045
 70
0
  6
CONTINUOUS
  0
LAYER
  5
53
100
AcDbSymbolTableRecord
100
AcDbLayerTableRecord
  2
Sketch047
 70
0
  6
CONTINUOUS
  0
LAYER
  5
54
100
AcDbSymbolTableRecord
100
AcDbLayerTableRecord
  2
Sketch048
 70
0
  6
CONTINUOUS
  0
LAYER
  5
55
100
AcDbSymbolTableRecord
100
AcDbLayerTableRecord
  2
Sketch049
 70
0
  6
CONTINUOUS
  0
LAYER
  5
56
100
AcDbSymbolTableRecord
100
AcDbLayerTableRecord
  2
Sketch050
 70
0
  6
CONTINUOUS
  0
LAYER
  5
57
100
AcDbSymbolTableRecord
100
AcDbLayerTableRecord
  2
Sketch051
 70
0
  6
CONTINUOUS
  0
LAYER
  5
58
100
AcDbSymbolTableRecord
100
AcDbLayerTableRecord
  2
Sketch052
 70
0
  6
CONTINUOUS
  0
LAYER
  5
59
100
AcDbSymbolTableRecord
100
AcDbLayerTableRecord
  2
Sketch053
 70
0
  6
CONTINUOUS
  0
LAYER
  5
5a
100
AcDbSymbolTableRecord
100
AcDbLayerTableRecord
  2
Sketch054
 70
0
  6
CONTINUOUS
  0
LAYER
  5
5b
100
AcDbSymbolTableRecord
100
AcDbLayerTableRecord
  2
Sketch055
 70
0
  6
CONTINUOUS
  0
LAYER
  5
5c
100
AcDbSymbolTableRecord
100
AcDbLayerTableRecord
  2
Sketch056
 70
0
  6
CONTINUOUS
  0
LAYER
  5
5d
100
AcDbSymbolTableRecord
100
AcDbLayerTableRecord
  2
Sketch057
 70
0
  6
CONTINUOUS
  0
LAYER
  5
5e
100
AcDbSymbolTableRecord
100
AcDbLayerTableRecord
  2
Sketch058
 70
0
  6
CONTINUOUS
  0
LAYER
  5
5f
100
AcDbSymbolTableRecord
100
AcDbLayerTableRecord
  2
Sketch059
 70
0
  6
CONTINUOUS
  0
LAYER
  5
60
100
AcDbSymbolTableRecord
100
AcDbLayerTableRecord
  2
Sketch060
 70
0
  6
CONTINUOUS
  0
LAYER
  5
61
100
AcDbSymbolTableRecord
100
AcDbLayerTableRecord
  2
Sketch061
 70
0
  6
CONTINUOUS
  0
LAYER
  5
62
100
AcDbSymbolTableRecord
100
AcDbLayerTableRecord
  2
Sketch062
 70
0
  6
CONTINUOUS
  0
LAYER
  5
63
100
AcDbSymbolTableRecord
100
AcDbLayerTableRecord
  2
Sketch063
 70
0
  6
CONTINUOUS
  0
ENDTAB
  0
TABLE
  2
STYLE
  5
3
330
0
100
AcDbSymbolTable
 70
     1
  0
STYLE
  5
11
330
3
100
AcDbSymbolTableRecord
100
AcDbTextStyleTableRecord
  2
STANDARD
 70
     0
 40
0.0
 41
1.0
 50
0.0
 71
     0
 42
2.5
  3
txt
  4

  0
ENDTAB
  0
TABLE
  2
VIEW
  5
6
330
0
100
AcDbSymbolTable
 70
     0
  0
ENDTAB
  0
TABLE
  2
UCS
  5
7
330
0
100
AcDbSymbolTable
 70
     0
  0
ENDTAB
  0
TABLE
  2
APPID
  5
9
330
0
100
AcDbSymbolTable
 70
     2
  0
APPID
  5
12
330
9
100
AcDbSymbolTableRecord
100
AcDbRegAppTableRecord
  2
ACAD
 70
     0
  0
ENDTAB
  0
TABLE
  2
DIMSTYLE
  5
A
330
0
100
AcDbSymbolTable
 70
     1
  0
DIMSTYLE
105
27
330
A
100
AcDbSymbolTableRecord
100
AcDbDimStyleTableRecord
  2
ISO-25
 70
     0
  3

  4

  5

  6

  7

 40
1.0
 41
2.5
 42
0.625
 43
3.75
 44
1.25
 45
0.0
 46
0.0
 47
0.0
 48
0.0
140
2.5
141
2.5
142
0.0
143
0.03937007874016
144
1.0
145
0.0
146
1.0
147
0.625
 71
     0
 72
     0
 73
     0
 74
     0
 75
     0
 76
     0
 77
     1
 78
     8
170
     0
171
     3
172
     1
173
     0
174
     0
175
     0
176
     0
177
     0
178
     0
270
     2
271
     2
272
     2
273
     2
274
     3
340
11
275
     0
280
     0
281
     0
282
     0
283
     0
284
     8
285
     0
286
     0
287
     3
288
     0
  0
ENDTAB
  0
TABLE
  2
BLOCK_RECORD
  5
1
330
0
100
AcDbSymbolTable
 70
     1
  0
BLOCK_RECORD
  5
1F
330
1
100
AcDbSymbolTableRecord
100
AcDbBlockTableRecord
  2
*MODEL_SPACE
  0
BLOCK_RECORD
  5
1B
330
1
100
AcDbSymbolTableRecord
100
AcDbBlockTableRecord
  2
*PAPER_SPACE
  0
ENDTAB
  0
ENDSEC
  0
SECTION
  2
BLOCKS
  0
BLOCK
  5
20
330
1F
100
AcDbEntity
  8
0
100
AcDbBlockBegin
  2
*MODEL_SPACE
 70
     0
 10
0.0
 20
0.0
 30
0.0
  3
*MODEL_SPACE
  1

  0
ENDBLK
  5
21
330
1F
100
AcDbEntity
  8
0
100
AcDbBlockEnd
  0
BLOCK
  5
1C
330
1B
100
AcDbEntity
 67
     1
  8
0
100
AcDbBlockBegin
  2
*PAPER_SPACE
  1

  0
ENDBLK
  5
1D
330
1B
100
AcDbEntity
 67
     1
  8
0
100
AcDbBlockEnd
  0
ENDSEC
  0
SECTION
  2
ENTITIES
  0
LWPOLYLINE
  5
100
100
AcDbEntity
  8
Layer_1
 62
1
100
AcDbPolyline
 90
2
 70
0
 10
2.999999
 20
1125.520319
 30
0.0
 10
-2.999999
 20
1119.518421
 30
0.0
  0
LWPOLYLINE
  5
101
100
AcDbEntity
  8
Layer_1
 62
1
100
AcDbPolyline
 90
2
 70
0
 10
0.000000
 20
1127.519679
 30
0.0
 10
0.000000
 20
1117.519061
 30
0.0
  0
LWPOLYLINE
  5
102
100
AcDbEntity
  8
Layer_1
 62
1
100
AcDbPolyline
 90
2
 70
0
 10
7.999978
 20
1118.520631
 30
0.0
 10
3.999989
 20
1114.520642
 30
0.0
  0
LWPOLYLINE
  5
103
100
AcDbEntity
  8
Layer_1
 62
1
100
AcDbPolyline
 90
2
 70
0
 10
5.999998
 20
1120.520001
 30
0.0
 10
2.000009
 20
1116.520012
 30
0.0
  0
LWPOLYLINE
  5
104
100
AcDbEntity
  8
Layer_1
 62
1
100
AcDbPolyline
 90
2
 70
0
 10
3.999989
 20
1122.519370
 30
0.0
 10
0.000000
 20
1118.519381
 30
0.0
  0
LWPOLYLINE
  5
105
100
AcDbEntity
  8
Layer_1
 62
1
100
AcDbPolyline
 90
2
 70
0
 10
2.999999
 20
1125.520319
 30
0.0
 10
-2.999999
 20
1119.518421
 30
0.0
  0
LWPOLYLINE
  5
106
100
AcDbEntity
  8
Layer_1
 62
1
100
AcDbPolyline
 90
2
 70
0
 10
0.000000
 20
1127.519679
 30
0.0
 10
0.000000
 20
1117.519061
 30
0.0
  0
LWPOLYLINE
  5
107
100
AcDbEntity
  8
Layer_1
 62
1
100
AcDbPolyline
 90
2
 70
0
 10
7.999978
 20
1118.520631
 30
0.0
 10
3.999989
 20
1114.520642
 30
0.0
  0
LWPOLYLINE
  5
108
100
AcDbEntity
  8
Layer_1
 62
1
100
AcDbPolyline
 90
2
 70
0
 10
5.999998
 20
1120.520001
 30
0.0
 10
2.000009
 20
1116.520012
 30
0.0
  0
LWPOLYLINE
  5
109
100
AcDbEntity
  8
Layer_1
 62
1
100
AcDbPolyline
 90
2
 70
0
 10
3.999989
 20
1122.519370
 30
0.0
 10
0.000000
 20
1118.519381
 30
0.0
  0
LWPOLYLINE
  5
10a
100
AcDbEntity
  8
Layer_1
 62
1
100
AcDbPolyline
 90
2
 70
0
 10
2.999999
 20
1125.520319
 30
0.0
 10
-2.999999
 20
1119.518421
 30
0.0
  0
LWPOLYLINE
  5
10b
100
AcDbEntity
  8
Layer_1
 62
1
100
AcDbPolyline
 90
2
 70
0
 10
0.000000
 20
1127.519679
 30
0.0
 10
0.000000
 20
1117.519061
 30
0.0
  0
LWPOLYLINE
  5
10c
100
AcDbEntity
  8
Layer_1
 62
1
100
AcDbPolyline
 90
2
 70
0
 10
7.999978
 20
1118.520631
 30
0.0
 10
3.999989
 20
1114.520642
 30
0.0
  0
LWPOLYLINE
  5
10d
100
AcDbEntity
  8
Layer_1
 62
1
100
AcDbPolyline
 90
2
 70
0
 10
5.999998
 20
1120.520001
 30
0.0
 10
2.000009
 20
1116.520012
 30
0.0
  0
LWPOLYLINE
  5
10e
100
AcDbEntity
  8
Layer_1
 62
1
100
AcDbPolyline
 90
2
 70
0
 10
3.999989
 20
1122.519370
 30
0.0
 10
0.000000
 20
1118.519381
 30
0.0
  0
LWPOLYLINE
  5
10f
100
AcDbEntity
  8
Layer_1
 62
1
100
AcDbPolyline
 90
2
 70
0
 10
2.999999
 20
1125.520319
 30
0.0
 10
-2.999999
 20
1119.518421
 30
0.0
  0
LWPOLYLINE
  5
110
100
AcDbEntity
  8
Layer_1
 62
1
100
AcDbPolyline
 90
2
 70
0
 10
0.000000
 20
1127.519679
 30
0.0
 10
0.000000
 20
1117.519061
 30
0.0
  0
LWPOLYLINE
  5
111
100
AcDbEntity
  8
Layer_1
 62
1
100
AcDbPolyline
 90
2
 70
0
 10
7.999978
 20
1118.520631
 30
0.0
 10
3.999989
 20
1114.520642
 30
0.0
  0
LWPOLYLINE
  5
112
100
AcDbEntity
  8
Layer_1
 62
1
100
AcDbPolyline
 90
2
 70
0
 10
5.999998
 20
1120.520001
 30
0.0
 10
2.000009
 20
1116.520012
 30
0.0
  0
LWPOLYLINE
  5
113
100
AcDbEntity
  8
Layer_1
 62
1
100
AcDbPolyline
 90
2
 70
0
 10
3.999989
 20
1122.519370
 30
0.0
 10
0.000000
 20
1118.519381
 30
0.0
  0
LWPOLYLINE
  5
114
100
AcDbEntity
  8
Layer_1
 62
1
100
AcDbPolyline
 90
2
 70
0
 10
2.999999
 20
1125.520319
 30
0.0
 10
-2.999999
 20
1119.518421
 30
0.0
  0
LWPOLYLINE
  5
115
100
AcDbEntity
  8
Layer_1
 62
1
100
AcDbPolyline
 90
2
 70
0
 10
0.000000
 20
1127.519679
 30
0.0
 10
0.000000
 20
1117.519061
 30
0.0
  0
LWPOLYLINE
  5
116
100
AcDbEntity
  8
Layer_1
 62
1
100
AcDbPolyline
 90
2
 70
0
 10
7.999978
 20
1118.520631
 30
0.0
 10
3.999989
 20
1114.520642
 30
0.0
  0
LWPOLYLINE
  5
117
100
AcDbEntity
  8
Layer_1
 62
1
100
AcDbPolyline
 90
2
 70
0
 10
5.999998
 20
1120.520001
 30
0.0
 10
2.000009
 20
1116.520012
 30
0.0
  0
LWPOLYLINE
  5
118
100
AcDbEntity
  8
Layer_1
 62
1
100
AcDbPolyline
 90
2
 70
0
 10
3.999989
 20
1122.519370
 30
0.0
 10
0.000000
 20
1118.519381
 30
0.0
  0
LWPOLYLINE
  5
119
100
AcDbEntity
  8
Layer_1
 62
1
100
AcDbPolyline
 90
2
 70
0
 10
2.999999
 20
1125.520319
 30
0.0
 10
-2.999999
 20
1119.518421
 30
0.0
  0
LWPOLYLINE
  5
11a
100
AcDbEntity
  8
Layer_1
 62
1
100
AcDbPolyline
 90
2
 70
0
 10
0.000000
 20
1127.519679
 30
0.0
 10
0.000000
 20
1117.519061
 30
0.0
  0
LWPOLYLINE
  5
11b
100
AcDbEntity
  8
Layer_1
 62
1
100
AcDbPolyline
 90
2
 70
0
 10
7.999978
 20
1118.520631
 30
0.0
 10
3.999989
 20
1114.520642
 30
0.0
  0
LWPOLYLINE
  5
11c
100
AcDbEntity
  8
Layer_1
 62
1
100
AcDbPolyline
 90
2
 70
0
 10
5.999998
 20
1120.520001
 30
0.0
 10
2.000009
 20
1116.520012
 30
0.0
  0
LWPOLYLINE
  5
11d
100
AcDbEntity
  8
Layer_1
 62
1
100
AcDbPolyline
 90
2
 70
0
 10
3.999989
 20
1122.519370
 30
0.0
 10
0.000000
 20
1118.519381
 30
0.0
  0
LWPOLYLINE
  5
11e
100
AcDbEntity
  8
Layer_1
 62
1
100
AcDbPolyline
 90
2
 70
0
 10
2.999999
 20
1125.520319
 30
0.0
 10
-2.999999
 20
1119.518421
 30
0.0
  0
LWPOLYLINE
  5
11f
100
AcDbEntity
  8
Layer_1
 62
1
100
AcDbPolyline
 90
2
 70
0
 10
0.000000
 20
1127.519679
 30
0.0
 10
0.000000
 20
1117.519061
 30
0.0
  0
LWPOLYLINE
  5
120
100
AcDbEntity
  8
Layer_1
 62
1
100
AcDbPolyline
 90
2
 70
0
 10
7.999978
 20
1118.520631
 30
0.0
 10
3.999989
 20
1114.520642
 30
0.0
  0
LWPOLYLINE
  5
121
100
AcDbEntity
  8
Layer_1
 62
1
100
AcDbPolyline
 90
2
 70
0
 10
5.999998
 20
1120.520001
 30
0.0
 10
2.000009
 20
1116.520012
 30
0.0
  0
LWPOLYLINE
  5
122
100
AcDbEntity
  8
Layer_1
 62
1
100
AcDbPolyline
 90
2
 70
0
 10
3.999989
 20
1122.519370
 30
0.0
 10
0.000000
 20
1118.519381
 30
0.0
  0
LWPOLYLINE
  5
123
100
AcDbEntity
  8
Layer_1
 62
1
100
AcDbPolyline
 90
2
 70
0
 10
2.999999
 20
1125.520319
 30
0.0
 10
-2.999999
 20
1119.518421
 30
0.0
  0
LWPOLYLINE
  5
124
100
AcDbEntity
  8
Layer_1
 62
1
100
AcDbPolyline
 90
2
 70
0
 10
0.000000
 20
1127.519679
 30
0.0
 10
0.000000
 20
1117.519061
 30
0.0
  0
LWPOLYLINE
  5
125
100
AcDbEntity
  8
Layer_1
 62
1
100
AcDbPolyline
 90
2
 70
0
 10
7.999978
 20
1118.520631
 30
0.0
 10
3.999989
 20
1114.520642
 30
0.0
  0
LWPOLYLINE
  5
126
100
AcDbEntity
  8
Layer_1
 62
1
100
AcDbPolyline
 90
2
 70
0
 10
5.999998
 20
1120.520001
 30
0.0
 10
2.000009
 20
1116.520012
 30
0.0
  0
LWPOLYLINE
  5
127
100
AcDbEntity
  8
Layer_1
 62
1
100
AcDbPolyline
 90
2
 70
0
 10
3.999989
 20
1122.519370
 30
0.0
 10
0.000000
 20
1118.519381
 30
0.0
  0
LWPOLYLINE
  5
128
100
AcDbEntity
  8
Layer_1
 62
1
100
AcDbPolyline
 90
2
 70
0
 10
2.999999
 20
1125.520319
 30
0.0
 10
-2.999999
 20
1119.518421
 30
0.0
  0
LWPOLYLINE
  5
129
100
AcDbEntity
  8
Layer_1
 62
1
100
AcDbPolyline
 90
2
 70
0
 10
0.000000
 20
1127.519679
 30
0.0
 10
0.000000
 20
1117.519061
 30
0.0
  0
LWPOLYLINE
  5
12a
100
AcDbEntity
  8
Layer_1
 62
1
100
AcDbPolyline
 90
2
 70
0
 10
7.999978
 20
1118.520631
 30
0.0
 10
3.999989
 20
1114.520642
 30
0.0
  0
LWPOLYLINE
  5
12b
100
AcDbEntity
  8
Layer_1
 62
1
100
AcDbPolyline
 90
2
 70
0
 10
5.999998
 20
1120.520001
 30
0.0
 10
2.000009
 20
1116.520012
 30
0.0
  0
LWPOLYLINE
  5
12c
100
AcDbEntity
  8
Layer_1
 62
1
100
AcDbPolyline
 90
2
 70
0
 10
3.999989
 20
1122.519370
 30
0.0
 10
0.000000
 20
1118.519381
 30
0.0
  0
LWPOLYLINE
  5
12d
100
AcDbEntity
  8
Layer_1
 62
1
100
AcDbPolyline
 90
2
 70
0
 10
2.999999
 20
1125.520319
 30
0.0
 10
-2.999999
 20
1119.518421
 30
0.0
  0
LWPOLYLINE
  5
12e
100
AcDbEntity
  8
Layer_1
 62
1
100
AcDbPolyline
 90
2
 70
0
 10
0.000000
 20
1127.519679
 30
0.0
 10
0.000000
 20
1117.519061
 30
0.0
  0
LWPOLYLINE
  5
12f
100
AcDbEntity
  8
Layer_1
 62
1
100
AcDbPolyline
 90
2
 70
0
 10
7.999978
 20
1118.520631
 30
0.0
 10
3.999989
 20
1114.520642
 30
0.0
  0
LWPOLYLINE
  5
130
100
AcDbEntity
  8
Layer_1
 62
1
100
AcDbPolyline
 90
2
 70
0
 10
5.999998
 20
1120.520001
 30
0.0
 10
2.000009
 20
1116.520012
 30
0.0
  0
LWPOLYLINE
  5
131
100
AcDbEntity
  8
Layer_1
 62
1
100
AcDbPolyline
 90
2
 70
0
 10
3.999989
 20
1122.519370
 30
0.0
 10
0.000000
 20
1118.519381
 30
0.0
  0
LWPOLYLINE
  5
132
100
AcDbEntity
  8
Layer_1
 62
1
100
AcDbPolyline
 90
2
 70
0
 10
2.999999
 20
1125.520319
 30
0.0
 10
-2.999999
 20
1119.518421
 30
0.0
  0
LWPOLYLINE
  5
133
100
AcDbEntity
  8
Layer_1
 62
1
100
AcDbPolyline
 90
2
 70
0
 10
0.000000
 20
1127.519679
 30
0.0
 10
0.000000
 20
1117.519061
 30
0.0
  0
LWPOLYLINE
  5
134
100
AcDbEntity
  8
Layer_1
 62
1
100
AcDbPolyline
 90
2
 70
0
 10
7.999978
 20
1118.520631
 30
0.0
 10
3.999989
 20
1114.520642
 30
0.0
  0
LWPOLYLINE
  5
135
100
AcDbEntity
  8
Layer_1
 62
1
100
AcDbPolyline
 90
2
 70
0
 10
5.999998
 20
1120.520001
 30
0.0
 10
2.000009
 20
1116.520012
 30
0.0
  0
LWPOLYLINE
  5
136
100
AcDbEntity
  8
Layer_1
 62
1
100
AcDbPolyline
 90
2
 70
0
 10
3.999989
 20
1122.519370
 30
0.0
 10
0.000000
 20
1118.519381
 30
0.0
  0
LWPOLYLINE
  5
137
100
AcDbEntity
  8
Layer_1
 62
1
100
AcDbPolyline
 90
2
 70
0
 10
2.999999
 20
1125.520319
 30
0.0
 10
-2.999999
 20
1119.518421
 30
0.0
  0
LWPOLYLINE
  5
138
100
AcDbEntity
  8
Layer_1
 62
1
100
AcDbPolyline
 90
2
 70
0
 10
0.000000
 20
1127.519679
 30
0.0
 10
0.000000
 20
1117.519061
 30
0.0
  0
LWPOLYLINE
  5
139
100
AcDbEntity
  8
Layer_1
 62
1
100
AcDbPolyline
 90
2
 70
0
 10
7.999978
 20
1118.520631
 30
0.0
 10
3.999989
 20
1114.520642
 30
0.0
  0
LWPOLYLINE
  5
13a
100
AcDbEntity
  8
Layer_1
 62
1
100
AcDbPolyline
 90
2
 70
0
 10
5.999998
 20
1120.520001
 30
0.0
 10
2.000009
 20
1116.520012
 30
0.0
  0
LWPOLYLINE
  5
13b
100
AcDbEntity
  8
Layer_1
 62
1
100
AcDbPolyline
 90
2
 70
0
 10
3.999989
 20
1122.519370
 30
0.0
 10
0.000000
 20
1118.519381
 30
0.0
  0
LWPOLYLINE
  5
13c
100
AcDbEntity
  8
Layer_1
 62
1
100
AcDbPolyline
 90
2
 70
0
 10
2.999999
 20
1125.520319
 30
0.0
 10
-2.999999
 20
1119.518421
 30
0.0
  0
LWPOLYLINE
  5
13d
100
AcDbEntity
  8
Layer_1
 62
1
100
AcDbPolyline
 90
2
 70
0
 10
0.000000
 20
1127.519679
 30
0.0
 10
0.000000
 20
1117.519061
 30
0.0
  0
LWPOLYLINE
  5
13e
100
AcDbEntity
  8
Layer_1
 62
1
100
AcDbPolyline
 90
2
 70
0
 10
7.999978
 20
1118.520631
 30
0.0
 10
3.999989
 20
1114.520642
 30
0.0
  0
LWPOLYLINE
  5
13f
100
AcDbEntity
  8
Layer_1
 62
1
100
AcDbPolyline
 90
2
 70
0
 10
5.999998
 20
1120.520001
 30
0.0
 10
2.000009
 20
1116.520012
 30
0.0
  0
LWPOLYLINE
  5
140
100
AcDbEntity
  8
Layer_1
 62
1
100
AcDbPolyline
 90
2
 70
0
 10
3.999989
 20
1122.519370
 30
0.0
 10
0.000000
 20
1118.519381
 30
0.0
  0
LWPOLYLINE
  5
141
100
AcDbEntity
  8
Layer_1
 62
1
100
AcDbPolyline
 90
2
 70
0
 10
2.999999
 20
1125.520319
 30
0.0
 10
-2.999999
 20
1119.518421
 30
0.0
  0
LWPOLYLINE
  5
142
100
AcDbEntity
  8
Layer_1
 62
1
100
AcDbPolyline
 90
2
 70
0
 10
0.000000
 20
1127.519679
 30
0.0
 10
0.000000
 20
1117.519061
 30
0.0
  0
LWPOLYLINE
  5
143
100
AcDbEntity
  8
Layer_1
 62
1
100
AcDbPolyline
 90
2
 70
0
 10
7.999978
 20
1118.520631
 30
0.0
 10
3.999989
 20
1114.520642
 30
0.0
  0
LWPOLYLINE
  5
144
100
AcDbEntity
  8
Layer_1
 62
1
100
AcDbPolyline
 90
2
 70
0
 10
5.999998
 20
1120.520001
 30
0.0
 10
2.000009
 20
1116.520012
 30
0.0
  0
LWPOLYLINE
  5
145
100
AcDbEntity
  8
Layer_1
 62
1
100
AcDbPolyline
 90
2
 70
0
 10
3.999989
 20
1122.519370
 30
0.0
 10
0.000000
 20
1118.519381
 30
0.0
  0
LWPOLYLINE
  5
146
100
AcDbEntity
  8
Layer_1
 62
1
100
AcDbPolyline
 90
2
 70
0
 10
2.999999
 20
1125.520319
 30
0.0
 10
-2.999999
 20
1119.518421
 30
0.0
  0
LWPOLYLINE
  5
147
100
AcDbEntity
  8
Layer_1
 62
1
100
AcDbPolyline
 90
2
 70
0
 10
0.000000
 20
1127.519679
 30
0.0
 10
0.000000
 20
1117.519061
 30
0.0
  0
LWPOLYLINE
  5
148
100
AcDbEntity
  8
Layer_1
 62
1
100
AcDbPolyline
 90
2
 70
0
 10
7.999978
 20
1118.520631
 30
0.0
 10
3.999989
 20
1114.520642
 30
0.0
  0
LWPOLYLINE
  5
149
100
AcDbEntity
  8
Layer_1
 62
1
100
AcDbPolyline
 90
2
 70
0
 10
5.999998
 20
1120.520001
 30
0.0
 10
2.000009
 20
1116.520012
 30
0.0
  0
LWPOLYLINE
  5
14a
100
AcDbEntity
  8
Layer_1
 62
1
100
AcDbPolyline
 90
2
 70
0
 10
3.999989
 20
1122.519370
 30
0.0
 10
0.000000
 20
1118.519381
 30
0.0
  0
LWPOLYLINE
  5
14b
100
AcDbEntity
  8
Layer_1
 62
1
100
AcDbPolyline
 90
2
 70
0
 10
2.999999
 20
1125.520319
 30
0.0
 10
-2.999999
 20
1119.518421
 30
0.0
  0
LWPOLYLINE
  5
14c
100
AcDbEntity
  8
Layer_1
 62
1
100
AcDbPolyline
 90
2
 70
0
 10
0.000000
 20
1127.519679
 30
0.0
 10
0.000000
 20
1117.519061
 30
0.0
  0
LWPOLYLINE
  5
14d
100
AcDbEntity
  8
Layer_1
 62
1
100
AcDbPolyline
 90
2
 70
0
 10
7.999978
 20
1118.520631
 30
0.0
 10
3.999989
 20
1114.520642
 30
0.0
  0
LWPOLYLINE
  5
14e
100
AcDbEntity
  8
Layer_1
 62
1
100
AcDbPolyline
 90
2
 70
0
 10
5.999998
 20
1120.520001
 30
0.0
 10
2.000009
 20
1116.520012
 30
0.0
  0
LWPOLYLINE
  5
14f
100
AcDbEntity
  8
Layer_1
 62
1
100
AcDbPolyline
 90
2
 70
0
 10
3.999989
 20
1122.519370
 30
0.0
 10
0.000000
 20
1118.519381
 30
0.0
  0
LWPOLYLINE
  5
150
100
AcDbEntity
  8
Layer_1
 62
1
100
AcDbPolyline
 90
2
 70
0
 10
2.999999
 20
1125.520319
 30
0.0
 10
-2.999999
 20
1119.518421
 30
0.0
  0
LWPOLYLINE
  5
151
100
AcDbEntity
  8
Layer_1
 62
1
100
AcDbPolyline
 90
2
 70
0
 10
0.000000
 20
1127.519679
 30
0.0
 10
0.000000
 20
1117.519061
 30
0.0
  0
LWPOLYLINE
  5
152
100
AcDbEntity
  8
Layer_1
 62
1
100
AcDbPolyline
 90
2
 70
0
 10
7.999978
 20
1118.520631
 30
0.0
 10
3.999989
 20
1114.520642
 30
0.0
  0
LWPOLYLINE
  5
153
100
AcDbEntity
  8
Layer_1
 62
1
100
AcDbPolyline
 90
2
 70
0
 10
5.999998
 20
1120.520001
 30
0.0
 10
2.000009
 20
1116.520012
 30
0.0
  0
LWPOLYLINE
  5
154
100
AcDbEntity
  8
Layer_1
 62
1
100
AcDbPolyline
 90
2
 70
0
 10
3.999989
 20
1122.519370
 30
0.0
 10
0.000000
 20
1118.519381
 30
0.0
  0
LWPOLYLINE
  5
155
100
AcDbEntity
  8
Layer_1
 62
1
100
AcDbPolyline
 90
2
 70
0
 10
2.999999
 20
1125.520319
 30
0.0
 10
-2.999999
 20
1119.518421
 30
0.0
  0
LWPOLYLINE
  5
156
100
AcDbEntity
  8
Layer_1
 62
1
100
AcDbPolyline
 90
2
 70
0
 10
0.000000
 20
1127.519679
 30
0.0
 10
0.000000
 20
1117.519061
 30
0.0
  0
LWPOLYLINE
  5
157
100
AcDbEntity
  8
Layer_1
 62
1
100
AcDbPolyline
 90
2
 70
0
 10
7.999978
 20
1118.520631
 30
0.0
 10
3.999989
 20
1114.520642
 30
0.0
  0
LWPOLYLINE
  5
158
100
AcDbEntity
  8
Layer_1
 62
1
100
AcDbPolyline
 90
2
 70
0
 10
5.999998
 20
1120.520001
 30
0.0
 10
2.000009
 20
1116.520012
 30
0.0
  0
LWPOLYLINE
  5
159
100
AcDbEntity
  8
Layer_1
 62
1
100
AcDbPolyline
 90
2
 70
0
 10
3.999989
 20
1122.519370
 30
0.0
 10
0.000000
 20
1118.519381
 30
0.0
  0
LWPOLYLINE
  5
15a
100
AcDbEntity
  8
Layer_1
 62
1
100
AcDbPolyline
 90
2
 70
0
 10
2.999999
 20
1125.520319
 30
0.0
 10
-2.999999
 20
1119.518421
 30
0.0
  0
LWPOLYLINE
  5
15b
100
AcDbEntity
  8
Layer_1
 62
1
100
AcDbPolyline
 90
2
 70
0
 10
0.000000
 20
1127.519679
 30
0.0
 10
0.000000
 20
1117.519061
 30
0.0
  0
LWPOLYLINE
  5
15c
100
AcDbEntity
  8
Layer_1
 62
1
100
AcDbPolyline
 90
2
 70
0
 10
7.999978
 20
1118.520631
 30
0.0
 10
3.999989
 20
1114.520642
 30
0.0
  0
LWPOLYLINE
  5
15d
100
AcDbEntity
  8
Layer_1
 62
1
100
AcDbPolyline
 90
2
 70
0
 10
5.999998
 20
1120.520001
 30
0.0
 10
2.000009
 20
1116.520012
 30
0.0
  0
LWPOLYLINE
  5
15e
100
AcDbEntity
  8
Layer_1
 62
1
100
AcDbPolyline
 90
2
 70
0
 10
3.999989
 20
1122.519370
 30
0.0
 10
0.000000
 20
1118.519381
 30
0.0
  0
LWPOLYLINE
  5
15f
100
AcDbEntity
  8
Layer_1
 62
1
100
AcDbPolyline
 90
2
 70
0
 10
2.999999
 20
1125.520319
 30
0.0
 10
-2.999999
 20
1119.518421
 30
0.0
  0
LWPOLYLINE
  5
160
100
AcDbEntity
  8
Layer_1
 62
1
100
AcDbPolyline
 90
2
 70
0
 10
0.000000
 20
1127.519679
 30
0.0
 10
0.000000
 20
1117.519061
 30
0.0
  0
LWPOLYLINE
  5
161
100
AcDbEntity
  8
Layer_1
 62
1
100
AcDbPolyline
 90
2
 70
0
 10
7.999978
 20
1118.520631
 30
0.0
 10
3.999989
 20
1114.520642
 30
0.0
  0
LWPOLYLINE
  5
162
100
AcDbEntity
  8
Layer_1
 62
1
100
AcDbPolyline
 90
2
 70
0
 10
5.999998
 20
1120.520001
 30
0.0
 10
2.000009
 20
1116.520012
 30
0.0
  0
LWPOLYLINE
  5
163
100
AcDbEntity
  8
Layer_1
 62
1
100
AcDbPolyline
 90
2
 70
0
 10
3.999989
 20
1122.519370
 30
0.0
 10
0.000000
 20
1118.519381
 30
0.0
  0
LWPOLYLINE
  5
164
100
AcDbEntity
  8
Layer_1
 62
1
100
AcDbPolyline
 90
2
 70
0
 10
2.999999
 20
1125.520319
 30
0.0
 10
-2.999999
 20
1119.518421
 30
0.0
  0
LWPOLYLINE
  5
165
100
AcDbEntity
  8
Layer_1
 62
1
100
AcDbPolyline
 90
2
 70
0
 10
0.000000
 20
1127.519679
 30
0.0
 10
0.000000
 20
1117.519061
 30
0.0
  0
LWPOLYLINE
  5
166
100
AcDbEntity
  8
Layer_1
 62
1
100
AcDbPolyline
 90
2
 70
0
 10
7.999978
 20
1118.520631
 30
0.0
 10
3.999989
 20
1114.520642
 30
0.0
  0
LWPOLYLINE
  5
167
100
AcDbEntity
  8
Layer_1
 62
1
100
AcDbPolyline
 90
2
 70
0
 10
5.999998
 20
1120.520001
 30
0.0
 10
2.000009
 20
1116.520012
 30
0.0
  0
LWPOLYLINE
  5
168
100
AcDbEntity
  8
Layer_1
 62
1
100
AcDbPolyline
 90
2
 70
0
 10
3.999989
 20
1122.519370
 30
0.0
 10
0.000000
 20
1118.519381
 30
0.0
  0
LWPOLYLINE
  5
169
100
AcDbEntity
  8
Layer_1
 62
1
100
AcDbPolyline
 90
2
 70
0
 10
2.999999
 20
1125.520319
 30
0.0
 10
-2.999999
 20
1119.518421
 30
0.0
  0
LWPOLYLINE
  5
16a
100
AcDbEntity
  8
Layer_1
 62
1
100
AcDbPolyline
 90
2
 70
0
 10
0.000000
 20
1127.519679
 30
0.0
 10
0.000000
 20
1117.519061
 30
0.0
  0
LWPOLYLINE
  5
16b
100
AcDbEntity
  8
Layer_1
 62
1
100
AcDbPolyline
 90
2
 70
0
 10
7.999978
 20
1118.520631
 30
0.0
 10
3.999989
 20
1114.520642
 30
0.0
  0
LWPOLYLINE
  5
16c
100
AcDbEntity
  8
Layer_1
 62
1
100
AcDbPolyline
 90
2
 70
0
 10
5.999998
 20
1120.520001
 30
0.0
 10
2.000009
 20
1116.520012
 30
0.0
  0
LWPOLYLINE
  5
16d
100
AcDbEntity
  8
Layer_1
 62
1
100
AcDbPolyline
 90
2
 70
0
 10
3.999989
 20
1122.519370
 30
0.0
 10
0.000000
 20
1118.519381
 30
0.0
  0
LWPOLYLINE
  5
16e
100
AcDbEntity
  8
Layer_1
 62
1
100
AcDbPolyline
 90
2
 70
0
 10
2.999999
 20
1125.520319
 30
0.0
 10
-2.999999
 20
1119.518421
 30
0.0
  0
LWPOLYLINE
  5
16f
100
AcDbEntity
  8
Layer_1
 62
1
100
AcDbPolyline
 90
2
 70
0
 10
0.000000
 20
1127.519679
 30
0.0
 10
0.000000
 20
1117.519061
 30
0.0
  0
LWPOLYLINE
  5
170
100
AcDbEntity
  8
Layer_1
 62
1
100
AcDbPolyline
 90
2
 70
0
 10
7.999978
 20
1118.520631
 30
0.0
 10
3.999989
 20
1114.520642
 30
0.0
  0
LWPOLYLINE
  5
171
100
AcDbEntity
  8
Layer_1
 62
1
100
AcDbPolyline
 90
2
 70
0
 10
5.999998
 20
1120.520001
 30
0.0
 10
2.000009
 20
1116.520012
 30
0.0
  0
LWPOLYLINE
  5
172
100
AcDbEntity
  8
Layer_1
 62
1
100
AcDbPolyline
 90
2
 70
0
 10
3.999989
 20
1122.519370
 30
0.0
 10
0.000000
 20
1118.519381
 30
0.0
  0
LWPOLYLINE
  5
173
100
AcDbEntity
  8
Layer_1
 62
1
100
AcDbPolyline
 90
17
 70
1
 10
508.500857
 20
467.999554
 30
0.0
 10
508.137857
 20
469.630553
 30
0.0
 10
507.215858
 20
470.956553
 30
0.0
 10
505.869858
 20
471.847553
 30
0.0
 10
504.230859
 20
472.173553
 30
0.0
 10
502.591859
 20
471.847553
 30
0.0
 10
501.244859
 20
470.956553
 30
0.0
 10
500.322860
 20
469.630553
 30
0.0
 10
499.959860
 20
467.999554
 30
0.0
 10
500.322860
 20
466.368554
 30
0.0
 10
501.244859
 20
465.042555
 30
0.0
 10
502.591859
 20
464.152555
 30
0.0
 10
504.230859
 20
463.826555
 30
0.0
 10
505.869858
 20
464.152555
 30
0.0
 10
507.215858
 20
465.042555
 30
0.0
 10
508.137857
 20
466.368554
 30
0.0
 10
508.500857
 20
467.999554
 30
0.0
  0
LWPOLYLINE
  5
174
100
AcDbEntity
  8
Layer_1
 62
1
100
AcDbPolyline
 90
17
 70
1
 10
508.500857
 20
395.999574
 30
0.0
 10
508.137857
 20
397.630573
 30
0.0
 10
507.215858
 20
398.956573
 30
0.0
 10
505.869858
 20
399.847573
 30
0.0
 10
504.230859
 20
400.173573
 30
0.0
 10
502.591859
 20
399.847573
 30
0.0
 10
501.244859
 20
398.956573
 30
0.0
 10
500.322860
 20
397.630573
 30
0.0
 10
499.959860
 20
395.999574
 30
0.0
 10
500.322860
 20
394.368574
 30
0.0
 10
501.244859
 20
393.042575
 30
0.0
 10
502.591859
 20
392.152575
 30
0.0
 10
504.230859
 20
391.826575
 30
0.0
 10
505.869858
 20
392.152575
 30
0.0
 10
507.215858
 20
393.042575
 30
0.0
 10
508.137857
 20
394.368574
 30
0.0
 10
508.500857
 20
395.999574
 30
0.0
  0
LWPOLYLINE
  5
175
100
AcDbEntity
  8
Layer_1
 62
1
100
AcDbPolyline
 90
17
 70
1
 10
462.757870
 20
338.880590
 30
0.0
 10
462.216870
 20
341.389589
 30
0.0
 10
460.810871
 20
343.432589
 30
0.0
 10
458.746871
 20
344.806588
 30
0.0
 10
456.230872
 20
345.309588
 30
0.0
 10
453.713873
 20
344.806588
 30
0.0
 10
451.649873
 20
343.432589
 30
0.0
 10
450.244874
 20
341.389589
 30
0.0
 10
449.702874
 20
338.880590
 30
0.0
 10
450.244874
 20
336.371591
 30
0.0
 10
451.649873
 20
334.329591
 30
0.0
 10
453.713873
 20
332.955592
 30
0.0
 10
456.230872
 20
332.452592
 30
0.0
 10
458.746871
 20
332.955592
 30
0.0
 10
460.810871
 20
334.329591
 30
0.0
 10
462.216870
 20
336.371591
 30
0.0
 10
462.757870
 20
338.880590
 30
0.0
  0
LWPOLYLINE
  5
176
100
AcDbEntity
  8
Layer_1
 62
1
100
AcDbPolyline
 90
17
 70
1
 10
462.757870
 20
259.200612
 30
0.0
 10
462.216870
 20
261.709612
 30
0.0
 10
460.810871
 20
263.752611
 30
0.0
 10
458.746871
 20
265.126611
 30
0.0
 10
456.230872
 20
265.629611
 30
0.0
 10
453.713873
 20
265.126611
 30
0.0
 10
451.649873
 20
263.752611
 30
0.0
 10
450.244874
 20
261.709612
 30
0.0
 10
449.702874
 20
259.200612
 30
0.0
 10
450.244874
 20
256.691613
 30
0.0
 10
451.649873
 20
254.649614
 30
0.0
 10
453.713873
 20
253.275614
 30
0.0
 10
456.230872
 20
252.772614
 30
0.0
 10
458.746871
 20
253.275614
 30
0.0
 10
460.810871
 20
254.649614
 30
0.0
 10
462.216870
 20
256.691613
 30
0.0
 10
462.757870
 20
259.200612
 30
0.0
  0
LWPOLYLINE
  5
177
100
AcDbEntity
  8
Layer_1
 62
1
100
AcDbPolyline
 90
14
 70
0
 10
838.499765
 20
330.000592
 30
0.0
 10
837.926765
 20
332.136592
 30
0.0
 10
836.362765
 20
333.700591
 30
0.0
 10
834.226766
 20
334.272591
 30
0.0
 10
832.090767
 20
333.700591
 30
0.0
 10
830.526767
 20
332.136592
 30
0.0
 10
829.954767
 20
330.000592
 30
0.0
 10
830.526767
 20
327.864593
 30
0.0
 10
832.090767
 20
326.301593
 30
0.0
 10
834.226766
 20
325.728594
 30
0.0
 10
836.362765
 20
326.301593
 30
0.0
 10
837.926765
 20
327.864593
 30
0.0
 10
838.498765
 20
330.000592
 30
0.0
 10
838.498765
 20
330.000592
 30
0.0
  0
LWPOLYLINE
  5
178
100
AcDbEntity
  8
Layer_1
 62
1
100
AcDbPolyline
 90
14
 70
0
 10
838.499765
 20
294.000603
 30
0.0
 10
837.926765
 20
296.136602
 30
0.0
 10
836.362765
 20
297.700602
 30
0.0
 10
834.226766
 20
298.272601
 30
0.0
 10
832.090767
 20
297.700602
 30
0.0
 10
830.526767
 20
296.136602
 30
0.0
 10
829.954767
 20
294.000603
 30
0.0
 10
830.526767
 20
291.864603
 30
0.0
 10
832.090767
 20
290.301604
 30
0.0
 10
834.226766
 20
289.728604
 30
0.0
 10
836.362765
 20
290.301604
 30
0.0
 10
837.926765
 20
291.864603
 30
0.0
 10
838.498765
 20
294.000603
 30
0.0
 10
838.498765
 20
294.000603
 30
0.0
  0
LWPOLYLINE
  5
179
100
AcDbEntity
  8
Layer_1
 62
1
100
AcDbPolyline
 90
17
 70
1
 10
417.300883
 20
467.999554
 30
0.0
 10
416.937883
 20
469.630553
 30
0.0
 10
416.015883
 20
470.956553
 30
0.0
 10
414.669884
 20
471.847553
 30
0.0
 10
413.030884
 20
472.173553
 30
0.0
 10
411.391885
 20
471.847553
 30
0.0
 10
410.044885
 20
470.956553
 30
0.0
 10
409.122885
 20
469.630553
 30
0.0
 10
408.759885
 20
467.999554
 30
0.0
 10
409.122885
 20
466.368554
 30
0.0
 10
410.044885
 20
465.042555
 30
0.0
 10
411.391885
 20
464.152555
 30
0.0
 10
413.030884
 20
463.826555
 30
0.0
 10
414.669884
 20
464.152555
 30
0.0
 10
416.015883
 20
465.042555
 30
0.0
 10
416.937883
 20
466.368554
 30
0.0
 10
417.300883
 20
467.999554
 30
0.0
  0
LWPOLYLINE
  5
17a
100
AcDbEntity
  8
Layer_1
 62
1
100
AcDbPolyline
 90
4
 70
1
 10
0.000000
 20
-0.000315
 30
0.0
 10
863.999758
 20
-0.000315
 30
0.0
 10
863.999758
 20
1151.999662
 30
0.0
 10
0.000000
 20
1151.999662
 30
0.0
  0
LWPOLYLINE
  5
17b
100
AcDbEntity
  8
Layer_1
 62
1
100
AcDbPolyline
 90
4
 70
1
 10
526.790852
 20
529.439536
 30
0.0
 10
817.670771
 20
529.439536
 30
0.0
 10
817.670771
 20
94.559659
 30
0.0
 10
526.790852
 20
94.559659
 30
0.0
  0
LWPOLYLINE
  5
17c
100
AcDbEntity
  8
Sketch045
 62
1
100
AcDbPolyline
 90
4
 70
1
 10
-212.731940
 20
1038.859594
 30
0.0
 10
-500.730860
 20
1038.859594
 30
0.0
 10
-500.730860
 20
606.859515
 30
0.0
 10
-212.731940
 20
606.859515
 30
0.0
  0
LWPOLYLINE
  5
17d
100
AcDbEntity
  8
Sketch045
 62
1
100
AcDbPolyline
 90
13
 70
1
 10
-470.202868
 20
872.484440
 30
0.0
 10
-471.077868
 20
875.748439
 30
0.0
 10
-473.466867
 20
878.138439
 30
0.0
 10
-476.730866
 20
879.012438
 30
0.0
 10
-479.994865
 20
878.138439
 30
0.0
 10
-482.384865
 20
875.748439
 30
0.0
 10
-483.258864
 20
872.484440
 30
0.0
 10
-482.384865
 20
869.220441
 30
0.0
 10
-479.994865
 20
866.831442
 30
0.0
 10
-476.730866
 20
865.956442
 30
0.0
 10
-473.466867
 20
866.831442
 30
0.0
 10
-471.077868
 20
869.220441
 30
0.0
 10
-470.202868
 20
872.484440
 30
0.0
  0
LWPOLYLINE
  5
17e
100
AcDbEntity
  8
Sketch045
 62
1
100
AcDbPolyline
 90
13
 70
1
 10
-470.202868
 20
792.804463
 30
0.0
 10
-471.077868
 20
796.068462
 30
0.0
 10
-473.466867
 20
798.458461
 30
0.0
 10
-476.730866
 20
799.332461
 30
0.0
 10
-479.994865
 20
798.458461
 30
0.0
 10
-482.384865
 20
796.068462
 30
0.0
 10
-483.258864
 20
792.804463
 30
0.0
 10
-482.384865
 20
789.540464
 30
0.0
 10
-479.994865
 20
787.151464
 30
0.0
 10
-476.730866
 20
786.276464
 30
0.0
 10
-473.466867
 20
787.151464
 30
0.0
 10
-471.077868
 20
789.540464
 30
0.0
 10
-470.202868
 20
792.804463
 30
0.0
  0
LWPOLYLINE
  5
17f
100
AcDbEntity
  8
Sketch045
 62
1
100
AcDbPolyline
 90
13
 70
1
 10
-226.457936
 20
840.861449
 30
0.0
 10
-227.029936
 20
842.997449
 30
0.0
 10
-228.593936
 20
844.561448
 30
0.0
 10
-230.729935
 20
845.133448
 30
0.0
 10
-232.865935
 20
844.561448
 30
0.0
 10
-234.429934
 20
842.997449
 30
0.0
 10
-235.001934
 20
840.861449
 30
0.0
 10
-234.429934
 20
838.725450
 30
0.0
 10
-232.865935
 20
837.161450
 30
0.0
 10
-230.729935
 20
836.589450
 30
0.0
 10
-228.593936
 20
837.161450
 30
0.0
 10
-227.029936
 20
838.725450
 30
0.0
 10
-226.457936
 20
840.861449
 30
0.0
  0
LWPOLYLINE
  5
180
100
AcDbEntity
  8
Sketch045
 62
1
100
AcDbPolyline
 90
13
 70
1
 10
-226.457936
 20
804.861459
 30
0.0
 10
-227.029936
 20
806.997459
 30
0.0
 10
-228.593936
 20
808.561458
 30
0.0
 10
-230.729935
 20
809.133458
 30
0.0
 10
-232.865935
 20
808.561458
 30
0.0
 10
-234.429934
 20
806.997459
 30
0.0
 10
-235.001934
 20
804.861459
 30
0.0
 10
-234.429934
 20
802.725460
 30
0.0
 10
-232.865935
 20
801.161460
 30
0.0
 10
-230.729935
 20
800.589460
 30
0.0
 10
-228.593936
 20
801.161460
 30
0.0
 10
-227.029936
 20
802.725460
 30
0.0
 10
-226.457936
 20
804.861459
 30
0.0
  0
LWPOLYLINE
  5
181
100
AcDbEntity
  8
Sketch047
 62
1
100
AcDbPolyline
 90
4
 70
1
 10
-195.935945
 20
858.281444
 30
0.0
 10
-123.935965
 20
858.281444
 30
0.0
 10
-123.935965
 20
786.281464
 30
0.0
 10
-195.935945
 20
786.281464
 30
0.0
  0
LWPOLYLINE
  5
182
100
AcDbEntity
  8
Sketch047
 62
1
100
AcDbPolyline
 90
13
 70
1
 10
-172.177952
 20
840.283449
 30
0.0
 10
-172.948951
 20
843.163448
 30
0.0
 10
-175.057951
 20
845.271448
 30
0.0
 10
-177.937950
 20
846.043448
 30
0.0
 10
-180.817949
 20
845.271448
 30
0.0
 10
-182.925949
 20
843.163448
 30
0.0
 10
-183.697948
 20
840.283449
 30
0.0
 10
-182.925949
 20
837.403450
 30
0.0
 10
-180.817949
 20
835.294451
 30
0.0
 10
-177.937950
 20
834.523451
 30
0.0
 10
-175.057951
 20
835.294451
 30
0.0
 10
-172.948951
 20
837.403450
 30
0.0
 10
-172.177952
 20
840.283449
 30
0.0
  0
LWPOLYLINE
  5
183
100
AcDbEntity
  8
Sketch047
 62
1
100
AcDbPolyline
 90
13
 70
1
 10
-172.177952
 20
804.283459
 30
0.0
 10
-172.948951
 20
807.163459
 30
0.0
 10
-175.057951
 20
809.271458
 30
0.0
 10
-177.937950
 20
810.043458
 30
0.0
 10
-180.817949
 20
809.271458
 30
0.0
 10
-182.925949
 20
807.163459
 30
0.0
 10
-183.697948
 20
804.283459
 30
0.0
 10
-182.925949
 20
801.403460
 30
0.0
 10
-180.817949
 20
799.294461
 30
0.0
 10
-177.937950
 20
798.523461
 30
0.0
 10
-175.057951
 20
799.294461
 30
0.0
 10
-172.948951
 20
801.403460
 30
0.0
 10
-172.177952
 20
804.283459
 30
0.0
  0
LWPOLYLINE
  5
184
100
AcDbEntity
  8
Sketch047
 62
1
100
AcDbPolyline
 90
13
 70
1
 10
-137.661961
 20
840.283449
 30
0.0
 10
-138.233961
 20
842.419449
 30
0.0
 10
-139.797961
 20
843.982448
 30
0.0
 10
-141.933960
 20
844.555448
 30
0.0
 10
-144.069960
 20
843.982448
 30
0.0
 10
-145.632959
 20
842.419449
 30
0.0
 10
-146.205959
 20
840.283449
 30
0.0
 10
-145.632959
 20
838.147450
 30
0.0
 10
-144.069960
 20
836.583450
 30
0.0
 10
-141.933960
 20
836.011450
 30
0.0
 10
-139.797961
 20
836.583450
 30
0.0
 10
-138.233961
 20
838.147450
 30
0.0
 10
-137.661961
 20
840.283449
 30
0.0
  0
LWPOLYLINE
  5
185
100
AcDbEntity
  8
Sketch047
 62
1
100
AcDbPolyline
 90
13
 70
1
 10
-137.661961
 20
804.283459
 30
0.0
 10
-138.233961
 20
806.419459
 30
0.0
 10
-139.797961
 20
807.982458
 30
0.0
 10
-141.933960
 20
808.555458
 30
0.0
 10
-144.069960
 20
807.982458
 30
0.0
 10
-145.632959
 20
806.419459
 30
0.0
 10
-146.205959
 20
804.283459
 30
0.0
 10
-145.632959
 20
802.147460
 30
0.0
 10
-144.069960
 20
800.583460
 30
0.0
 10
-141.933960
 20
800.011461
 30
0.0
 10
-139.797961
 20
800.583460
 30
0.0
 10
-138.233961
 20
802.147460
 30
0.0
 10
-137.661961
 20
804.283459
 30
0.0
  0
LWPOLYLINE
  5
186
100
AcDbEntity
  8
Sketch048
 62
1
100
AcDbPolyline
 90
14
 70
0
 10
-378.640894
 20
1805.499178
 30
0.0
 10
-505.840858
 20
1805.499178
 30
0.0
 10
-529.840851
 20
1805.499178
 30
0.0
 10
-529.840851
 20
1781.499185
 30
0.0
 10
-529.840851
 20
1777.179186
 30
0.0
 10
-390.640890
 20
1777.179186
 30
0.0
 10
-390.640890
 20
1765.179190
 30
0.0
 10
-501.040859
 20
1765.179190
 30
0.0
 10
-501.040859
 20
1738.299197
 30
0.0
 10
-529.840851
 20
1738.299197
 30
0.0
 10
-529.840851
 20
1733.499199
 30
0.0
 10
-529.840851
 20
1709.499205
 30
0.0
 10
-505.840858
 20
1709.499205
 30
0.0
 10
-378.640894
 20
1709.499205
 30
0.0
  0
LWPOLYLINE
  5
187
100
AcDbEntity
  8
Sketch048
 62
1
100
AcDbPolyline
 90
2
 70
0
 10
-378.640894
 20
1805.499178
 30
0.0
 10
-378.640894
 20
1709.499205
 30
0.0
  0
LWPOLYLINE
  5
188
100
AcDbEntity
  8
Sketch048
 62
1
100
AcDbPolyline
 90
13
 70
1
 10
-512.080856
 20
1793.499182
 30
0.0
 10
-512.851856
 20
1796.379181
 30
0.0
 10
-514.960856
 20
1798.487180
 30
0.0
 10
-517.840855
 20
1799.259180
 30
0.0
 10
-520.720854
 20
1798.487180
 30
0.0
 10
-522.828853
 20
1796.379181
 30
0.0
 10
-523.600853
 20
1793.499182
 30
0.0
 10
-522.828853
 20
1790.619183
 30
0.0
 10
-520.720854
 20
1788.510183
 30
0.0
 10
-517.840855
 20
1787.739183
 30
0.0
 10
-514.960856
 20
1788.510183
 30
0.0
 10
-512.851856
 20
1790.619183
 30
0.0
 10
-512.080856
 20
1793.499182
 30
0.0
  0
LWPOLYLINE
  5
189
100
AcDbEntity
  8
Sketch048
 62
1
100
AcDbPolyline
 90
13
 70
1
 10
-512.080856
 20
1721.499202
 30
0.0
 10
-512.851856
 20
1724.379201
 30
0.0
 10
-514.960856
 20
1726.487201
 30
0.0
 10
-517.840855
 20
1727.259200
 30
0.0
 10
-520.720854
 20
1726.487201
 30
0.0
 10
-522.828853
 20
1724.379201
 30
0.0
 10
-523.600853
 20
1721.499202
 30
0.0
 10
-522.828853
 20
1718.619203
 30
0.0
 10
-520.720854
 20
1716.510203
 30
0.0
 10
-517.840855
 20
1715.739204
 30
0.0
 10
-514.960856
 20
1716.510203
 30
0.0
 10
-512.851856
 20
1718.619203
 30
0.0
 10
-512.080856
 20
1721.499202
 30
0.0
  0
LWPOLYLINE
  5
18a
100
AcDbEntity
  8
Sketch048
 62
1
100
AcDbPolyline
 90
13
 70
1
 10
-420.880882
 20
1793.499182
 30
0.0
 10
-421.651882
 20
1796.379181
 30
0.0
 10
-423.760881
 20
1798.487180
 30
0.0
 10
-426.640880
 20
1799.259180
 30
0.0
 10
-429.520879
 20
1798.487180
 30
0.0
 10
-431.628879
 20
1796.379181
 30
0.0
 10
-432.400879
 20
1793.499182
 30
0.0
 10
-431.628879
 20
1790.619183
 30
0.0
 10
-429.520879
 20
1788.510183
 30
0.0
 10
-426.640880
 20
1787.739183
 30
0.0
 10
-423.760881
 20
1788.510183
 30
0.0
 10
-421.651882
 20
1790.619183
 30
0.0
 10
-420.880882
 20
1793.499182
 30
0.0
  0
LWPOLYLINE
  5
18b
100
AcDbEntity
  8
Sketch049
 62
1
100
AcDbPolyline
 90
15
 70
1
 10
-516.642855
 20
1912.308148
 30
0.0
 10
-516.642855
 20
1864.308162
 30
0.0
 10
-522.640853
 20
1864.308162
 30
0.0
 10
-522.640853
 20
1840.308169
 30
0.0
 10
-498.640860
 20
1840.308169
 30
0.0
 10
-498.640860
 20
1864.308162
 30
0.0
 10
-504.642858
 20
1864.308162
 30
0.0
 10
-504.642858
 20
1907.508150
 30
0.0
 10
-493.840861
 20
1907.508150
 30
0.0
 10
-493.840861
 20
1888.308155
 30
0.0
 10
-390.640890
 20
1888.308155
 30
0.0
 10
-390.640890
 20
1936.308142
 30
0.0
 10
-498.640860
 20
1936.308142
 30
0.0
 10
-522.640853
 20
1936.308142
 30
0.0
 10
-522.640853
 20
1912.308148
 30
0.0
  0
LWPOLYLINE
  5
18c
100
AcDbEntity
  8
Sketch049
 62
1
100
AcDbPolyline
 90
13
 70
1
 10
-504.880858
 20
1924.308145
 30
0.0
 10
-505.651858
 20
1927.188144
 30
0.0
 10
-507.760858
 20
1929.296144
 30
0.0
 10
-510.640857
 20
1930.068143
 30
0.0
 10
-513.520856
 20
1929.296144
 30
0.0
 10
-515.628855
 20
1927.188144
 30
0.0
 10
-516.400855
 20
1924.308145
 30
0.0
 10
-515.628855
 20
1921.428146
 30
0.0
 10
-513.520856
 20
1919.320147
 30
0.0
 10
-510.640857
 20
1918.548147
 30
0.0
 10
-507.760858
 20
1919.320147
 30
0.0
 10
-505.651858
 20
1921.428146
 30
0.0
 10
-504.880858
 20
1924.308145
 30
0.0
  0
LWPOLYLINE
  5
18d
100
AcDbEntity
  8
Sketch049
 62
1
100
AcDbPolyline
 90
13
 70
1
 10
-504.880858
 20
1852.308165
 30
0.0
 10
-505.651858
 20
1855.188165
 30
0.0
 10
-507.760858
 20
1857.296164
 30
0.0
 10
-510.640857
 20
1858.068164
 30
0.0
 10
-513.520856
 20
1857.296164
 30
0.0
 10
-515.628855
 20
1855.188165
 30
0.0
 10
-516.400855
 20
1852.308165
 30
0.0
 10
-515.628855
 20
1849.428166
 30
0.0
 10
-513.520856
 20
1847.320167
 30
0.0
 10
-510.640857
 20
1846.548167
 30
0.0
 10
-507.760858
 20
1847.320167
 30
0.0
 10
-505.651858
 20
1849.428166
 30
0.0
 10
-504.880858
 20
1852.308165
 30
0.0
  0
LWPOLYLINE
  5
18e
100
AcDbEntity
  8
Sketch049
 62
1
100
AcDbPolyline
 90
13
 70
1
 10
-413.680884
 20
1924.308145
 30
0.0
 10
-414.451884
 20
1927.188144
 30
0.0
 10
-416.560883
 20
1929.296144
 30
0.0
 10
-419.440882
 20
1930.068143
 30
0.0
 10
-422.320882
 20
1929.296144
 30
0.0
 10
-424.428881
 20
1927.188144
 30
0.0
 10
-425.200881
 20
1924.308145
 30
0.0
 10
-424.428881
 20
1921.428146
 30
0.0
 10
-422.320882
 20
1919.320147
 30
0.0
 10
-419.440882
 20
1918.548147
 30
0.0
 10
-416.560883
 20
1919.320147
 30
0.0
 10
-414.451884
 20
1921.428146
 30
0.0
 10
-413.680884
 20
1924.308145
 30
0.0
  0
LWPOLYLINE
  5
18f
100
AcDbEntity
  8
Sketch050
 62
1
100
AcDbPolyline
 90
4
 70
1
 10
1118.229686
 20
1438.348281
 30
0.0
 10
-33.768591
 20
1438.348281
 30
0.0
 10
-33.768591
 20
2590.348958
 30
0.0
 10
1118.229686
 20
2590.348958
 30
0.0
  0
LWPOLYLINE
  5
190
100
AcDbEntity
  8
Sketch050
 62
1
100
AcDbPolyline
 90
18
 70
1
 10
278.230922
 20
2555.308968
 30
0.0
 10
273.193923
 20
2554.278968
 30
0.0
 10
269.080925
 20
2551.498969
 30
0.0
 10
266.308925
 20
2547.388970
 30
0.0
 10
265.292926
 20
2542.348972
 30
0.0
 10
266.308925
 20
2537.308973
 30
0.0
 10
269.080925
 20
2533.188974
 30
0.0
 10
273.193923
 20
2530.408975
 30
0.0
 10
278.230922
 20
2529.388975
 30
0.0
 10
374.230895
 20
2529.388975
 30
0.0
 10
379.267894
 20
2530.408975
 30
0.0
 10
383.379892
 20
2533.188974
 30
0.0
 10
386.151892
 20
2537.308973
 30
0.0
 10
387.168891
 20
2542.348972
 30
0.0
 10
386.151892
 20
2547.388970
 30
0.0
 10
383.379892
 20
2551.498969
 30
0.0
 10
379.267894
 20
2554.278968
 30
0.0
 10
374.230895
 20
2555.308968
 30
0.0
  0
LWPOLYLINE
  5
191
100
AcDbEntity
  8
Sketch050
 62
1
100
AcDbPolyline
 90
18
 70
1
 10
806.229774
 20
2555.308968
 30
0.0
 10
801.191775
 20
2554.278968
 30
0.0
 10
797.079776
 20
2551.498969
 30
0.0
 10
794.307777
 20
2547.388970
 30
0.0
 10
793.291777
 20
2542.348972
 30
0.0
 10
794.307777
 20
2537.308973
 30
0.0
 10
797.079776
 20
2533.188974
 30
0.0
 10
801.191775
 20
2530.408975
 30
0.0
 10
806.229774
 20
2529.388975
 30
0.0
 10
902.229747
 20
2529.388975
 30
0.0
 10
907.266745
 20
2530.408975
 30
0.0
 10
911.379744
 20
2533.188974
 30
0.0
 10
914.151744
 20
2537.308973
 30
0.0
 10
915.167743
 20
2542.348972
 30
0.0
 10
914.151744
 20
2547.388970
 30
0.0
 10
911.379744
 20
2551.498969
 30
0.0
 10
907.266745
 20
2554.278968
 30
0.0
 10
902.229747
 20
2555.308968
 30
0.0
  0
LWPOLYLINE
  5
192
100
AcDbEntity
  8
Sketch050
 62
1
100
AcDbPolyline
 90
18
 70
1
 10
278.230922
 20
1499.308264
 30
0.0
 10
273.193923
 20
1498.283265
 30
0.0
 10
269.080925
 20
1495.504265
 30
0.0
 10
266.308925
 20
1491.387267
 30
0.0
 10
265.292926
 20
1486.348268
 30
0.0
 10
266.308925
 20
1481.308269
 30
0.0
 10
269.080925
 20
1477.191271
 30
0.0
 10
273.193923
 20
1474.413271
 30
0.0
 10
278.230922
 20
1473.388272
 30
0.0
 10
374.230895
 20
1473.388272
 30
0.0
 10
379.267894
 20
1474.412271
 30
0.0
 10
383.379892
 20
1477.191271
 30
0.0
 10
386.151892
 20
1481.308269
 30
0.0
 10
387.168891
 20
1486.348268
 30
0.0
 10
386.151892
 20
1491.387267
 30
0.0
 10
383.379892
 20
1495.504265
 30
0.0
 10
379.267894
 20
1498.283265
 30
0.0
 10
374.230895
 20
1499.308264
 30
0.0
  0
LWPOLYLINE
  5
193
100
AcDbEntity
  8
Sketch050
 62
1
100
AcDbPolyline
 90
18
 70
1
 10
806.229774
 20
1499.308264
 30
0.0
 10
801.191775
 20
1498.283265
 30
0.0
 10
797.079776
 20
1495.504265
 30
0.0
 10
794.307777
 20
1491.387267
 30
0.0
 10
793.291777
 20
1486.348268
 30
0.0
 10
794.307777
 20
1481.308269
 30
0.0
 10
797.079776
 20
1477.191271
 30
0.0
 10
801.191775
 20
1474.413271
 30
0.0
 10
806.229774
 20
1473.388272
 30
0.0
 10
902.229747
 20
1473.388272
 30
0.0
 10
907.266745
 20
1474.412271
 30
0.0
 10
911.379744
 20
1477.191271
 30
0.0
 10
914.151744
 20
1481.308269
 30
0.0
 10
915.167743
 20
1486.348268
 30
0.0
 10
914.151744
 20
1491.387267
 30
0.0
 10
911.379744
 20
1495.504265
 30
0.0
 10
907.266745
 20
1498.283265
 30
0.0
 10
902.229747
 20
1499.308264
 30
0.0
  0
LWPOLYLINE
  5
194
100
AcDbEntity
  8
Sketch050
 62
1
100
AcDbPolyline
 90
18
 70
1
 10
27.191292
 20
1798.348180
 30
0.0
 10
26.166493
 20
1803.385179
 30
0.0
 10
23.387593
 20
1807.497178
 30
0.0
 10
19.270595
 20
1810.269177
 30
0.0
 10
14.231296
 20
1811.286177
 30
0.0
 10
9.192047
 20
1810.269177
 30
0.0
 10
5.075029
 20
1807.497178
 30
0.0
 10
2.296139
 20
1803.385179
 30
0.0
 10
1.271320
 20
1798.348180
 30
0.0
 10
1.271330
 20
1702.348207
 30
0.0
 10
2.296149
 20
1697.310209
 30
0.0
 10
5.075029
 20
1693.198210
 30
0.0
 10
9.192057
 20
1690.426211
 30
0.0
 10
14.231296
 20
1689.410211
 30
0.0
 10
19.270595
 20
1690.426211
 30
0.0
 10
23.387593
 20
1693.198210
 30
0.0
 10
26.166493
 20
1697.310209
 30
0.0
 10
27.191292
 20
1702.348207
 30
0.0
  0
LWPOLYLINE
  5
195
100
AcDbEntity
  8
Sketch050
 62
1
100
AcDbPolyline
 90
18
 70
1
 10
27.191292
 20
2326.349032
 30
0.0
 10
26.166493
 20
2331.389031
 30
0.0
 10
23.387593
 20
2335.499030
 30
0.0
 10
19.270595
 20
2338.269029
 30
0.0
 10
14.231296
 20
2339.289029
 30
0.0
 10
9.192047
 20
2338.269029
 30
0.0
 10
5.075029
 20
2335.499030
 30
0.0
 10
2.296139
 20
2331.389031
 30
0.0
 10
1.271320
 20
2326.349032
 30
0.0
 10
1.271330
 20
2230.349059
 30
0.0
 10
2.296149
 20
2225.309061
 30
0.0
 10
5.075029
 20
2221.199062
 30
0.0
 10
9.192057
 20
2218.429063
 30
0.0
 10
14.231296
 20
2217.409063
 30
0.0
 10
19.270595
 20
2218.429063
 30
0.0
 10
23.387593
 20
2221.199062
 30
0.0
 10
26.166493
 20
2225.309061
 30
0.0
 10
27.191292
 20
2230.349059
 30
0.0
  0
LWPOLYLINE
  5
196
100
AcDbEntity
  8
Sketch050
 62
1
100
AcDbPolyline
 90
26
 70
1
 10
1066.389701
 20
2518.348978
 30
0.0
 10
1072.649699
 20
2519.178978
 30
0.0
 10
1078.389697
 20
2521.558978
 30
0.0
 10
1083.319696
 20
2525.338976
 30
0.0
 10
1087.169695
 20
2530.348975
 30
0.0
 10
1089.589694
 20
2536.188973
 30
0.0
 10
1090.389694
 20
2542.348972
 30
0.0
 10
1089.589694
 20
2548.508970
 30
0.0
 10
1087.169695
 20
2554.348968
 30
0.0
 10
1083.319696
 20
2559.358967
 30
0.0
 10
1078.389697
 20
2563.128966
 30
0.0
 10
1072.649699
 20
2565.518965
 30
0.0
 10
1066.389701
 20
2566.348965
 30
0.0
 10
1018.389714
 20
2566.348965
 30
0.0
 10
1012.129716
 20
2565.518965
 30
0.0
 10
1006.389718
 20
2563.128966
 30
0.0
 10
1001.459719
 20
2559.358967
 30
0.0
 10
997.604720
 20
2554.348968
 30
0.0
 10
995.193721
 20
2548.508970
 30
0.0
 10
994.389721
 20
2542.348972
 30
0.0
 10
995.193721
 20
2536.188973
 30
0.0
 10
997.604720
 20
2530.348975
 30
0.0
 10
1001.459719
 20
2525.338976
 30
0.0
 10
1006.389718
 20
2521.558978
 30
0.0
 10
1012.129716
 20
2519.178978
 30
0.0
 10
1018.389714
 20
2518.348978
 30
0.0
  0
LWPOLYLINE
  5
197
100
AcDbEntity
  8
Sketch050
 62
1
100
AcDbPolyline
 90
26
 70
1
 10
70.871080
 20
2518.348978
 30
0.0
 10
77.133078
 20
2519.178978
 30
0.0
 10
82.870977
 20
2521.558978
 30
0.0
 10
87.805175
 20
2525.338976
 30
0.0
 10
91.655574
 20
2530.348975
 30
0.0
 10
94.067174
 20
2536.188973
 30
0.0
 10
94.870973
 20
2542.348972
 30
0.0
 10
94.067174
 20
2548.508970
 30
0.0
 10
91.655574
 20
2554.348968
 30
0.0
 10
87.805175
 20
2559.358967
 30
0.0
 10
82.870977
 20
2563.128966
 30
0.0
 10
77.133078
 20
2565.518965
 30
0.0
 10
70.871080
 20
2566.348965
 30
0.0
 10
22.871294
 20
2566.348965
 30
0.0
 10
16.609295
 20
2565.518965
 30
0.0
 10
10.871297
 20
2563.128966
 30
0.0
 10
5.937218
 20
2559.358967
 30
0.0
 10
2.086739
 20
2554.348968
 30
0.0
 10
-0.324797
 20
2548.508970
 30
0.0
 10
-1.128640
 20
2542.348972
 30
0.0
 10
-0.324797
 20
2536.188973
 30
0.0
 10
2.086739
 20
2530.348975
 30
0.0
 10
5.937218
 20
2525.338976
 30
0.0
 10
10.871297
 20
2521.558978
 30
0.0
 10
16.609295
 20
2519.178978
 30
0.0
 10
22.871294
 20
2518.348978
 30
0.0
  0
LWPOLYLINE
  5
198
100
AcDbEntity
  8
Sketch051
 62
1
100
AcDbPolyline
 90
4
 70
1
 10
1175.109670
 20
1452.619277
 30
0.0
 10
1669.509532
 20
1452.619277
 30
0.0
 10
1669.509532
 20
2604.618954
 30
0.0
 10
1175.109670
 20
2604.618954
 30
0.0
  0
LWPOLYLINE
  5
199
100
AcDbEntity
  8
Sketch051
 62
1
100
AcDbPolyline
 90
26
 70
1
 10
1631.589542
 20
2532.618974
 30
0.0
 10
1637.849540
 20
2533.448974
 30
0.0
 10
1643.589539
 20
2535.838974
 30
0.0
 10
1648.529537
 20
2539.608972
 30
0.0
 10
1652.379536
 20
2544.618971
 30
0.0
 10
1654.789536
 20
2550.458969
 30
0.0
 10
1655.589535
 20
2556.618968
 30
0.0
 10
1654.789536
 20
2562.778966
 30
0.0
 10
1652.379536
 20
2568.618964
 30
0.0
 10
1648.529537
 20
2573.628963
 30
0.0
 10
1643.589539
 20
2577.398962
 30
0.0
 10
1637.849540
 20
2579.788961
 30
0.0
 10
1631.589542
 20
2580.618961
 30
0.0
 10
1607.589549
 20
2580.618961
 30
0.0
 10
1601.329551
 20
2579.788961
 30
0.0
 10
1595.589552
 20
2577.398962
 30
0.0
 10
1590.659554
 20
2573.628963
 30
0.0
 10
1586.809555
 20
2568.618964
 30
0.0
 10
1584.399555
 20
2562.778966
 30
0.0
 10
1583.589556
 20
2556.618968
 30
0.0
 10
1584.399555
 20
2550.458969
 30
0.0
 10
1586.809555
 20
2544.618971
 30
0.0
 10
1590.659554
 20
2539.608972
 30
0.0
 10
1595.589552
 20
2535.838974
 30
0.0
 10
1601.329551
 20
2533.448974
 30
0.0
 10
1607.589549
 20
2532.618974
 30
0.0
  0
LWPOLYLINE
  5
19a
100
AcDbEntity
  8
Sketch051
 62
1
100
AcDbPolyline
 90
26
 70
1
 10
1230.309655
 20
2532.618974
 30
0.0
 10
1236.569653
 20
2533.448974
 30
0.0
 10
1242.309651
 20
2535.838974
 30
0.0
 10
1247.249650
 20
2539.608972
 30
0.0
 10
1251.099649
 20
2544.618971
 30
0.0
 10
1253.509648
 20
2550.458969
 30
0.0
 10
1254.309648
 20
2556.618968
 30
0.0
 10
1253.509648
 20
2562.778966
 30
0.0
 10
1251.099649
 20
2568.618964
 30
0.0
 10
1247.249650
 20
2573.628963
 30
0.0
 10
1242.309651
 20
2577.398962
 30
0.0
 10
1236.569653
 20
2579.788961
 30
0.0
 10
1230.309655
 20
2580.618961
 30
0.0
 10
1206.309662
 20
2580.618961
 30
0.0
 10
1200.049663
 20
2579.788961
 30
0.0
 10
1194.309665
 20
2577.398962
 30
0.0
 10
1189.379666
 20
2573.628963
 30
0.0
 10
1185.529667
 20
2568.618964
 30
0.0
 10
1183.119668
 20
2562.778966
 30
0.0
 10
1182.309668
 20
2556.618968
 30
0.0
 10
1183.119668
 20
2550.458969
 30
0.0
 10
1185.529667
 20
2544.618971
 30
0.0
 10
1189.379666
 20
2539.608972
 30
0.0
 10
1194.309665
 20
2535.838974
 30
0.0
 10
1200.049663
 20
2533.448974
 30
0.0
 10
1206.309662
 20
2532.618974
 30
0.0
  0
LWPOLYLINE
  5
19b
100
AcDbEntity
  8
Sketch051
 62
1
100
AcDbPolyline
 90
26
 70
1
 10
1607.589549
 20
1632.619227
 30
0.0
 10
1601.329551
 20
1631.788227
 30
0.0
 10
1595.589552
 20
1629.404228
 30
0.0
 10
1590.659554
 20
1625.627229
 30
0.0
 10
1586.809555
 20
1620.619230
 30
0.0
 10
1584.399555
 20
1614.781232
 30
0.0
 10
1583.589556
 20
1608.619234
 30
0.0
 10
1584.399555
 20
1602.458235
 30
0.0
 10
1586.809555
 20
1596.619237
 30
0.0
 10
1590.659554
 20
1591.611238
 30
0.0
 10
1595.589552
 20
1587.835240
 30
0.0
 10
1601.329551
 20
1585.450240
 30
0.0
 10
1607.589549
 20
1584.619240
 30
0.0
 10
1631.589542
 20
1584.619240
 30
0.0
 10
1637.849540
 20
1585.450240
 30
0.0
 10
1643.589539
 20
1587.835240
 30
0.0
 10
1648.529537
 20
1591.611238
 30
0.0
 10
1652.379536
 20
1596.619237
 30
0.0
 10
1654.789536
 20
1602.458235
 30
0.0
 10
1655.589535
 20
1608.619234
 30
0.0
 10
1654.789536
 20
1614.781232
 30
0.0
 10
1652.379536
 20
1620.619230
 30
0.0
 10
1648.529537
 20
1625.627229
 30
0.0
 10
1643.589539
 20
1629.404228
 30
0.0
 10
1637.849540
 20
1631.788227
 30
0.0
 10
1631.589542
 20
1632.619227
 30
0.0
  0
LWPOLYLINE
  5
19c
100
AcDbEntity
  8
Sketch052
 62
1
100
AcDbPolyline
 90
4
 70
1
 10
-737.990793
 20
1438.348281
 30
0.0
 10
-1889.989470
 20
1438.348281
 30
0.0
 10
-1889.989470
 20
2590.348958
 30
0.0
 10
-737.990793
 20
2590.348958
 30
0.0
  0
LWPOLYLINE
  5
19d
100
AcDbEntity
  8
Sketch052
 62
1
100
AcDbPolyline
 90
18
 70
1
 10
-1577.989557
 20
2555.308968
 30
0.0
 10
-1583.029556
 20
2554.278968
 30
0.0
 10
-1587.139555
 20
2551.498969
 30
0.0
 10
-1589.909554
 20
2547.388970
 30
0.0
 10
-1590.929554
 20
2542.348972
 30
0.0
 10
-1589.909554
 20
2537.308973
 30
0.0
 10
-1587.139555
 20
2533.188974
 30
0.0
 10
-1583.029556
 20
2530.408975
 30
0.0
 10
-1577.989557
 20
2529.388975
 30
0.0
 10
-1481.989584
 20
2529.388975
 30
0.0
 10
-1476.949586
 20
2530.408975
 30
0.0
 10
-1472.839587
 20
2533.188974
 30
0.0
 10
-1470.069588
 20
2537.308973
 30
0.0
 10
-1469.049588
 20
2542.348972
 30
0.0
 10
-1470.069588
 20
2547.388970
 30
0.0
 10
-1472.839587
 20
2551.498969
 30
0.0
 10
-1476.949586
 20
2554.278968
 30
0.0
 10
-1481.989584
 20
2555.308968
 30
0.0
  0
LWPOLYLINE
  5
19e
100
AcDbEntity
  8
Sketch052
 62
1
100
AcDbPolyline
 90
18
 70
1
 10
-1049.989705
 20
2555.308968
 30
0.0
 10
-1055.029704
 20
2554.278968
 30
0.0
 10
-1059.139703
 20
2551.498969
 30
0.0
 10
-1061.909702
 20
2547.388970
 30
0.0
 10
-1062.929702
 20
2542.348972
 30
0.0
 10
-1061.909702
 20
2537.308973
 30
0.0
 10
-1059.139703
 20
2533.188974
 30
0.0
 10
-1055.029704
 20
2530.408975
 30
0.0
 10
-1049.989705
 20
2529.388975
 30
0.0
 10
-953.990732
 20
2529.388975
 30
0.0
 10
-948.952734
 20
2530.408975
 30
0.0
 10
-944.840735
 20
2533.188974
 30
0.0
 10
-942.068736
 20
2537.308973
 30
0.0
 10
-941.052736
 20
2542.348972
 30
0.0
 10
-942.068736
 20
2547.388970
 30
0.0
 10
-944.840735
 20
2551.498969
 30
0.0
 10
-948.952734
 20
2554.278968
 30
0.0
 10
-953.990732
 20
2555.308968
 30
0.0
  0
LWPOLYLINE
  5
19f
100
AcDbEntity
  8
Sketch052
 62
1
100
AcDbPolyline
 90
18
 70
1
 10
-1577.989557
 20
1499.308264
 30
0.0
 10
-1583.029556
 20
1498.283265
 30
0.0
 10
-1587.139555
 20
1495.504265
 30
0.0
 10
-1589.909554
 20
1491.387267
 30
0.0
 10
-1590.929554
 20
1486.348268
 30
0.0
 10
-1589.909554
 20
1481.308269
 30
0.0
 10
-1587.139555
 20
1477.191271
 30
0.0
 10
-1583.029556
 20
1474.413271
 30
0.0
 10
-1577.989557
 20
1473.388272
 30
0.0
 10
-1481.989584
 20
1473.388272
 30
0.0
 10
-1476.949586
 20
1474.412271
 30
0.0
 10
-1472.839587
 20
1477.191271
 30
0.0
 10
-1470.069588
 20
1481.308269
 30
0.0
 10
-1469.049588
 20
1486.348268
 30
0.0
 10
-1470.069588
 20
1491.387267
 30
0.0
 10
-1472.839587
 20
1495.504265
 30
0.0
 10
-1476.949586
 20
1498.283265
 30
0.0
 10
-1481.989584
 20
1499.308264
 30
0.0
  0
LWPOLYLINE
  5
1a0
100
AcDbEntity
  8
Sketch052
 62
1
100
AcDbPolyline
 90
18
 70
1
 10
-1049.989705
 20
1499.308264
 30
0.0
 10
-1055.029704
 20
1498.283265
 30
0.0
 10
-1059.139703
 20
1495.504265
 30
0.0
 10
-1061.909702
 20
1491.387267
 30
0.0
 10
-1062.929702
 20
1486.348268
 30
0.0
 10
-1061.909702
 20
1481.308269
 30
0.0
 10
-1059.139703
 20
1477.191271
 30
0.0
 10
-1055.029704
 20
1474.413271
 30
0.0
 10
-1049.989705
 20
1473.388272
 30
0.0
 10
-953.990732
 20
1473.388272
 30
0.0
 10
-948.952734
 20
1474.412271
 30
0.0
 10
-944.840735
 20
1477.191271
 30
0.0
 10
-942.068736
 20
1481.308269
 30
0.0
 10
-941.052736
 20
1486.348268
 30
0.0
 10
-942.068736
 20
1491.387267
 30
0.0
 10
-944.840735
 20
1495.504265
 30
0.0
 10
-948.952734
 20
1498.283265
 30
0.0
 10
-953.990732
 20
1499.308264
 30
0.0
  0
LWPOLYLINE
  5
1a1
100
AcDbEntity
  8
Sketch052
 62
1
100
AcDbPolyline
 90
18
 70
1
 10
-1829.029487
 20
1798.348180
 30
0.0
 10
-1830.059487
 20
1803.385179
 30
0.0
 10
-1832.829486
 20
1807.497178
 30
0.0
 10
-1836.949485
 20
1810.269177
 30
0.0
 10
-1841.989483
 20
1811.286177
 30
0.0
 10
-1847.029482
 20
1810.269177
 30
0.0
 10
-1851.149481
 20
1807.497178
 30
0.0
 10
-1853.929480
 20
1803.385179
 30
0.0
 10
-1854.949480
 20
1798.348180
 30
0.0
 10
-1854.949480
 20
1702.348207
 30
0.0
 10
-1853.929480
 20
1697.310209
 30
0.0
 10
-1851.149481
 20
1693.198210
 30
0.0
 10
-1847.029482
 20
1690.426211
 30
0.0
 10
-1841.989483
 20
1689.410211
 30
0.0
 10
-1836.949485
 20
1690.426211
 30
0.0
 10
-1832.829486
 20
1693.198210
 30
0.0
 10
-1830.059487
 20
1697.310209
 30
0.0
 10
-1829.029487
 20
1702.348207
 30
0.0
  0
LWPOLYLINE
  5
1a2
100
AcDbEntity
  8
Sketch052
 62
1
100
AcDbPolyline
 90
18
 70
1
 10
-1829.029487
 20
2326.349032
 30
0.0
 10
-1830.059487
 20
2331.389031
 30
0.0
 10
-1832.829486
 20
2335.499030
 30
0.0
 10
-1836.949485
 20
2338.269029
 30
0.0
 10
-1841.989483
 20
2339.289029
 30
0.0
 10
-1847.029482
 20
2338.269029
 30
0.0
 10
-1851.149481
 20
2335.499030
 30
0.0
 10
-1853.929480
 20
2331.389031
 30
0.0
 10
-1854.949480
 20
2326.349032
 30
0.0
 10
-1854.949480
 20
2230.349059
 30
0.0
 10
-1853.929480
 20
2225.309061
 30
0.0
 10
-1851.149481
 20
2221.199062
 30
0.0
 10
-1847.029482
 20
2218.429063
 30
0.0
 10
-1841.989483
 20
2217.409063
 30
0.0
 10
-1836.949485
 20
2218.429063
 30
0.0
 10
-1832.829486
 20
2221.199062
 30
0.0
 10
-1830.059487
 20
2225.309061
 30
0.0
 10
-1829.029487
 20
2230.349059
 30
0.0
  0
LWPOLYLINE
  5
1a3
100
AcDbEntity
  8
Sketch052
 62
1
100
AcDbPolyline
 90
26
 70
1
 10
-789.830778
 20
2518.348978
 30
0.0
 10
-783.568780
 20
2519.178978
 30
0.0
 10
-777.830782
 20
2521.558978
 30
0.0
 10
-772.895783
 20
2525.338976
 30
0.0
 10
-769.045784
 20
2530.348975
 30
0.0
 10
-766.633785
 20
2536.188973
 30
0.0
 10
-765.830785
 20
2542.348972
 30
0.0
 10
-766.633785
 20
2548.508970
 30
0.0
 10
-769.045784
 20
2554.348968
 30
0.0
 10
-772.895783
 20
2559.358967
 30
0.0
 10
-777.830782
 20
2563.128966
 30
0.0
 10
-783.568780
 20
2565.518965
 30
0.0
 10
-789.830778
 20
2566.348965
 30
0.0
 10
-837.830765
 20
2566.348965
 30
0.0
 10
-844.092763
 20
2565.518965
 30
0.0
 10
-849.830762
 20
2563.128966
 30
0.0
 10
-854.764760
 20
2559.358967
 30
0.0
 10
-858.614759
 20
2554.348968
 30
0.0
 10
-861.026758
 20
2548.508970
 30
0.0
 10
-861.830758
 20
2542.348972
 30
0.0
 10
-861.026758
 20
2536.188973
 30
0.0
 10
-858.614759
 20
2530.348975
 30
0.0
 10
-854.764760
 20
2525.338976
 30
0.0
 10
-849.830762
 20
2521.558978
 30
0.0
 10
-844.092763
 20
2519.178978
 30
0.0
 10
-837.830765
 20
2518.348978
 30
0.0
  0
LWPOLYLINE
  5
1a4
100
AcDbEntity
  8
Sketch052
 62
1
100
AcDbPolyline
 90
26
 70
1
 10
-1785.349499
 20
2518.348978
 30
0.0
 10
-1779.089501
 20
2519.178978
 30
0.0
 10
-1773.349502
 20
2521.558978
 30
0.0
 10
-1768.419504
 20
2525.338976
 30
0.0
 10
-1764.569505
 20
2530.348975
 30
0.0
 10
-1762.149506
 20
2536.188973
 30
0.0
 10
-1761.349506
 20
2542.348972
 30
0.0
 10
-1762.149506
 20
2548.508970
 30
0.0
 10
-1764.569505
 20
2554.348968
 30
0.0
 10
-1768.419504
 20
2559.358967
 30
0.0
 10
-1773.349502
 20
2563.128966
 30
0.0
 10
-1779.089501
 20
2565.518965
 30
0.0
 10
-1785.349499
 20
2566.348965
 30
0.0
 10
-1833.349486
 20
2566.348965
 30
0.0
 10
-1839.609484
 20
2565.518965
 30
0.0
 10
-1845.349482
 20
2563.128966
 30
0.0
 10
-1850.279481
 20
2559.358967
 30
0.0
 10
-1854.139480
 20
2554.348968
 30
0.0
 10
-1856.549479
 20
2548.508970
 30
0.0
 10
-1857.349479
 20
2542.348972
 30
0.0
 10
-1856.549479
 20
2536.188973
 30
0.0
 10
-1854.139480
 20
2530.348975
 30
0.0
 10
-1850.279481
 20
2525.338976
 30
0.0
 10
-1845.349482
 20
2521.558978
 30
0.0
 10
-1839.609484
 20
2519.178978
 30
0.0
 10
-1833.349486
 20
2518.348978
 30
0.0
  0
LWPOLYLINE
  5
1a5
100
AcDbEntity
  8
Sketch053
 62
1
100
AcDbPolyline
 90
5
 70
1
 10
-908.004745
 20
2850.408885
 30
0.0
 10
24.769793
 20
2850.408885
 30
0.0
 10
24.769793
 20
4002.408562
 30
0.0
 10
-914.051744
 20
4002.408562
 30
0.0
 10
-914.051744
 20
2850.408885
 30
0.0
  0
LWPOLYLINE
  5
1a6
100
AcDbEntity
  8
Sketch053
 62
1
100
AcDbPolyline
 90
4
 70
1
 10
-336.026906
 20
3366.408740
 30
0.0
 10
-72.027180
 20
3366.408740
 30
0.0
 10
-72.027180
 20
2958.408855
 30
0.0
 10
-336.026906
 20
2958.408855
 30
0.0
  0
LWPOLYLINE
  5
1a7
100
AcDbEntity
  8
Sketch053
 62
1
100
AcDbPolyline
 90
25
 70
1
 10
-852.131761
 20
3954.408575
 30
0.0
 10
-852.418761
 20
3957.208575
 30
0.0
 10
-853.232761
 20
3959.818574
 30
0.0
 10
-856.216760
 20
3964.228573
 30
0.0
 10
-860.639759
 20
3967.208572
 30
0.0
 10
-863.249758
 20
3968.018572
 30
0.0
 10
-866.051757
 20
3968.298572
 30
0.0
 10
-868.854756
 20
3968.018572
 30
0.0
 10
-871.464755
 20
3967.208572
 30
0.0
 10
-875.886754
 20
3964.228573
 30
0.0
 10
-878.871753
 20
3959.818574
 30
0.0
 10
-879.684753
 20
3957.208575
 30
0.0
 10
-879.971753
 20
3954.408575
 30
0.0
 10
-879.684753
 20
3951.598576
 30
0.0
 10
-878.871753
 20
3948.998577
 30
0.0
 10
-875.886754
 20
3944.578578
 30
0.0
 10
-871.464755
 20
3941.598579
 30
0.0
 10
-868.854756
 20
3940.788579
 30
0.0
 10
-866.051757
 20
3940.508579
 30
0.0
 10
-863.249758
 20
3940.788579
 30
0.0
 10
-860.639759
 20
3941.598579
 30
0.0
 10
-856.216760
 20
3944.578578
 30
0.0
 10
-853.232761
 20
3948.998577
 30
0.0
 10
-852.418761
 20
3951.598576
 30
0.0
 10
-852.131761
 20
3954.408575
 30
0.0
  0
LWPOLYLINE
  5
1a8
100
AcDbEntity
  8
Sketch053
 62
1
100
AcDbPolyline
 90
25
 70
1
 10
-451.244873
 20
3954.408575
 30
0.0
 10
-451.531873
 20
3957.208575
 30
0.0
 10
-452.345873
 20
3959.818574
 30
0.0
 10
-455.330872
 20
3964.228573
 30
0.0
 10
-459.752871
 20
3967.208572
 30
0.0
 10
-462.362870
 20
3968.018572
 30
0.0
 10
-465.164869
 20
3968.298572
 30
0.0
 10
-467.967869
 20
3968.018572
 30
0.0
 10
-470.577868
 20
3967.208572
 30
0.0
 10
-474.999867
 20
3964.228573
 30
0.0
 10
-477.984866
 20
3959.818574
 30
0.0
 10
-478.798866
 20
3957.208575
 30
0.0
 10
-479.084866
 20
3954.408575
 30
0.0
 10
-478.798866
 20
3951.598576
 30
0.0
 10
-477.984866
 20
3948.998577
 30
0.0
 10
-474.999867
 20
3944.578578
 30
0.0
 10
-470.577868
 20
3941.598579
 30
0.0
 10
-467.967869
 20
3940.788579
 30
0.0
 10
-465.164869
 20
3940.508579
 30
0.0
 10
-462.362870
 20
3940.788579
 30
0.0
 10
-459.752871
 20
3941.598579
 30
0.0
 10
-455.330872
 20
3944.578578
 30
0.0
 10
-452.345873
 20
3948.998577
 30
0.0
 10
-451.531873
 20
3951.598576
 30
0.0
 10
-451.244873
 20
3954.408575
 30
0.0
  0
LWPOLYLINE
  5
1a9
100
AcDbEntity
  8
Sketch053
 62
1
100
AcDbPolyline
 90
25
 70
1
 10
-451.244873
 20
3006.408841
 30
0.0
 10
-451.531873
 20
3009.208841
 30
0.0
 10
-452.345873
 20
3011.818840
 30
0.0
 10
-455.330872
 20
3016.228839
 30
0.0
 10
-459.752871
 20
3019.208838
 30
0.0
 10
-462.362870
 20
3020.018838
 30
0.0
 10
-465.164869
 20
3020.298838
 30
0.0
 10
-467.967869
 20
3020.018838
 30
0.0
 10
-470.577868
 20
3019.208838
 30
0.0
 10
-474.999867
 20
3016.228839
 30
0.0
 10
-477.984866
 20
3011.818840
 30
0.0
 10
-478.798866
 20
3009.208841
 30
0.0
 10
-479.084866
 20
3006.408841
 30
0.0
 10
-478.798866
 20
3003.598842
 30
0.0
 10
-477.984866
 20
3000.998843
 30
0.0
 10
-474.999867
 20
2996.578844
 30
0.0
 10
-470.577868
 20
2993.598845
 30
0.0
 10
-467.967869
 20
2992.788845
 30
0.0
 10
-465.164869
 20
2992.508845
 30
0.0
 10
-462.362870
 20
2992.788845
 30
0.0
 10
-459.752871
 20
2993.598845
 30
0.0
 10
-455.330872
 20
2996.578844
 30
0.0
 10
-452.345873
 20
3000.998843
 30
0.0
 10
-451.531873
 20
3003.598842
 30
0.0
 10
-451.244873
 20
3006.408841
 30
0.0
  0
LWPOLYLINE
  5
1aa
100
AcDbEntity
  8
Sketch054
 62
1
100
AcDbPolyline
 90
3
 70
0
 10
1348.817092
 20
3231.849727
 30
0.0
 10
1911.581142
 20
4206.592343
 30
0.0
 10
2856.196289
 20
4206.590075
 30
0.0
  0
LWPOLYLINE
  5
1ab
100
AcDbEntity
  8
Sketch054
 62
1
100
AcDbPolyline
 90
3
 70
0
 10
2856.206289
 20
4206.572755
 30
0.0
 10
3418.961131
 20
3231.853231
 30
0.0
 10
1348.817092
 20
3231.849727
 30
0.0
  0
LWPOLYLINE
  5
1ac
100
AcDbEntity
  8
Sketch054
 62
1
100
AcDbPolyline
 90
10
 70
0
 10
1671.414294
 20
3720.494217
 30
0.0
 10
1669.776437
 20
3715.611073
 30
0.0
 10
1670.118503
 20
3710.658603
 30
0.0
 10
1672.299054
 20
3706.201781
 30
0.0
 10
1676.159334
 20
3702.795580
 30
0.0
 10
1681.033817
 20
3701.152724
 30
0.0
 10
1685.994948
 20
3701.499789
 30
0.0
 10
1690.451770
 20
3703.680340
 30
0.0
 10
1693.862971
 20
3707.531960
 30
0.0
 10
1699.860969
 20
3717.923107
 30
0.0
  0
LWPOLYLINE
  5
1ad
100
AcDbEntity
  8
Sketch054
 62
1
100
AcDbPolyline
 90
10
 70
0
 10
1699.855969
 20
3717.931767
 30
0.0
 10
1701.490165
 20
3722.801251
 30
0.0
 10
1701.143100
 20
3727.762381
 30
0.0
 10
1698.962549
 20
3732.219204
 30
0.0
 10
1695.102269
 20
3735.625405
 30
0.0
 10
1690.232785
 20
3737.259600
 30
0.0
 10
1685.280315
 20
3736.917535
 30
0.0
 10
1680.818493
 20
3734.745644
 30
0.0
 10
1677.407292
 20
3730.894025
 30
0.0
 10
1671.409294
 20
3720.502878
 30
0.0
  0
LWPOLYLINE
  5
1ae
100
AcDbEntity
  8
Sketch054
 62
1
100
AcDbPolyline
 90
14
 70
0
 10
2377.890129
 20
4171.541105
 30
0.0
 10
2374.512151
 20
4171.091938
 30
0.0
 10
2371.413289
 20
4169.799329
 30
0.0
 10
2368.753087
 20
4167.766939
 30
0.0
 10
2366.666448
 20
4165.061107
 30
0.0
 10
2365.368181
 20
4161.909776
 30
0.0
 10
2364.936490
 20
4158.577490
 30
0.0
 10
2365.364318
 20
4155.256474
 30
0.0
 10
2366.669606
 20
4152.095650
 30
0.0
 10
2368.749317
 20
4149.393486
 30
0.0
 10
2371.416488
 20
4147.353809
 30
0.0
 10
2374.513179
 20
4146.070183
 30
0.0
 10
2377.891445
 20
4145.618851
 30
0.0
 10
2389.889441
 20
4145.617701
 30
0.0
  0
LWPOLYLINE
  5
1af
100
AcDbEntity
  8
Sketch054
 62
1
100
AcDbPolyline
 90
13
 70
0
 10
2389.883102
 20
4145.648682
 30
0.0
 10
2393.266079
 20
4146.089189
 30
0.0
 10
2396.364942
 20
4147.381798
 30
0.0
 10
2399.025144
 20
4149.414188
 30
0.0
 10
2401.106783
 20
4152.128680
 30
0.0
 10
2402.405050
 20
4155.280011
 30
0.0
 10
2402.841741
 20
4158.603637
 30
0.0
 10
2402.408913
 20
4161.933314
 30
0.0
 10
2401.108625
 20
4165.085477
 30
0.0
 10
2399.028914
 20
4167.787641
 30
0.0
 10
2396.361742
 20
4169.827318
 30
0.0
 10
2393.265052
 20
4171.110944
 30
0.0
 10
2389.886786
 20
4171.562276
 30
0.0
  0
LWPOLYLINE
  5
1b0
100
AcDbEntity
  8
Sketch054
 62
1
100
AcDbPolyline
 90
2
 70
0
 10
2389.893125
 20
4171.531295
 30
0.0
 10
2377.895129
 20
4171.532445
 30
0.0
  0
LWPOLYLINE
  5
1b1
100
AcDbEntity
  8
Sketch054
 62
1
100
AcDbPolyline
 90
9
 70
0
 10
2035.885536
 20
3292.811602
 30
0.0
 10
2030.852996
 20
3291.788223
 30
0.0
 10
2026.732513
 20
3289.005115
 30
0.0
 10
2023.960042
 20
3284.887182
 30
0.0
 10
2022.940558
 20
3279.852987
 30
0.0
 10
2023.960276
 20
3274.806786
 30
0.0
 10
2026.729724
 20
3270.689964
 30
0.0
 10
2030.852657
 20
3267.908833
 30
0.0
 10
2035.886852
 20
3266.889348
 30
0.0
  0
LWPOLYLINE
  5
1b2
100
AcDbEntity
  8
Sketch054
 62
1
100
AcDbPolyline
 90
2
 70
0
 10
2035.891852
 20
3266.880688
 30
0.0
 10
2047.889849
 20
3266.879538
 30
0.0
  0
LWPOLYLINE
  5
1b3
100
AcDbEntity
  8
Sketch054
 62
1
100
AcDbPolyline
 90
10
 70
0
 10
2047.884849
 20
3266.888198
 30
0.0
 10
2052.926049
 20
3267.916577
 30
0.0
 10
2057.024212
 20
3270.698345
 30
0.0
 10
2059.796682
 20
3274.816278
 30
0.0
 10
2060.816167
 20
3279.850473
 30
0.0
 10
2059.801448
 20
3284.888014
 30
0.0
 10
2057.032001
 20
3289.004836
 30
0.0
 10
2052.922727
 20
3291.782307
 30
0.0
 10
2047.888533
 20
3292.801792
 30
0.0
 10
2035.890536
 20
3292.802942
 30
0.0
  0
LWPOLYLINE
  5
1b4
100
AcDbEntity
  8
Sketch054
 62
1
100
AcDbPolyline
 90
9
 70
0
 10
2719.897574
 20
3292.807392
 30
0.0
 10
2714.856373
 20
3291.779013
 30
0.0
 10
2710.758211
 20
3288.997244
 30
0.0
 10
2707.985740
 20
3284.879311
 30
0.0
 10
2706.966255
 20
3279.845116
 30
0.0
 10
2707.989634
 20
3274.812576
 30
0.0
 10
2710.759082
 20
3270.695753
 30
0.0
 10
2714.859695
 20
3267.913283
 30
0.0
 10
2719.893890
 20
3266.893798
 30
0.0
  0
LWPOLYLINE
  5
1b5
100
AcDbEntity
  8
Sketch054
 62
1
100
AcDbPolyline
 90
11
 70
0
 10
2719.885229
 20
3266.888798
 30
0.0
 10
2731.891886
 20
3266.892648
 30
0.0
 10
2736.929426
 20
3267.907367
 30
0.0
 10
2741.049909
 20
3270.690475
 30
0.0
 10
2743.822380
 20
3274.808408
 30
0.0
 10
2744.836865
 20
3279.851263
 30
0.0
 10
2743.822146
 20
3284.888803
 30
0.0
 10
2741.047698
 20
3289.014286
 30
0.0
 10
2736.929765
 20
3291.786757
 30
0.0
 10
2731.890570
 20
3292.814902
 30
0.0
 10
2719.883913
 20
3292.811052
 30
0.0
  0
LWPOLYLINE
  5
1b6
100
AcDbEntity
  8
Sketch054
 62
1
100
AcDbPolyline
 90
9
 70
0
 10
3090.375707
 20
3730.899683
 30
0.0
 10
3086.963702
 20
3734.749448
 30
0.0
 10
3082.501154
 20
3736.918810
 30
0.0
 10
3077.556792
 20
3737.262699
 30
0.0
 10
3072.682028
 20
3735.626045
 30
0.0
 10
3068.827263
 20
3732.222700
 30
0.0
 10
3066.644241
 20
3727.763812
 30
0.0
 10
3066.291691
 20
3722.814451
 30
0.0
 10
3067.928345
 20
3717.939686
 30
0.0
  0
LWPOLYLINE
  5
1b7
100
AcDbEntity
  8
Sketch054
 62
1
100
AcDbPolyline
 90
2
 70
0
 10
3067.933345
 20
3717.931026
 30
0.0
 10
3073.933344
 20
3707.538729
 30
0.0
  0
LWPOLYLINE
  5
1b8
100
AcDbEntity
  8
Sketch054
 62
1
100
AcDbPolyline
 90
9
 70
0
 10
3073.928344
 20
3707.547389
 30
0.0
 10
3077.331688
 20
3703.692624
 30
0.0
 10
3081.794236
 20
3701.523262
 30
0.0
 10
3086.747258
 20
3701.184373
 30
0.0
 10
3091.622023
 20
3702.821027
 30
0.0
 10
3095.476787
 20
3706.224372
 30
0.0
 10
3097.651150
 20
3710.678260
 30
0.0
 10
3098.003699
 20
3715.627621
 30
0.0
 10
3096.375705
 20
3720.507386
 30
0.0
  0
LWPOLYLINE
  5
1b9
100
AcDbEntity
  8
Sketch054
 62
1
100
AcDbPolyline
 90
2
 70
0
 10
3096.380705
 20
3720.498725
 30
0.0
 10
3090.380707
 20
3730.891022
 30
0.0
  0
LWPOLYLINE
  5
1ba
100
AcDbEntity
  8
Sketch054
 62
1
100
AcDbPolyline
 90
9
 70
0
 10
2885.489172
 20
3292.814182
 30
0.0
 10
2880.447972
 20
3291.785803
 30
0.0
 10
2876.336149
 20
3289.007695
 30
0.0
 10
2873.563678
 20
3284.889762
 30
0.0
 10
2872.544194
 20
3279.855567
 30
0.0
 10
2873.563912
 20
3274.809366
 30
0.0
 10
2876.333360
 20
3270.692544
 30
0.0
 10
2880.456294
 20
3267.911413
 30
0.0
 10
2885.490488
 20
3266.891928
 30
0.0
  0
LWPOLYLINE
  5
1bb
100
AcDbEntity
  8
Sketch054
 62
1
100
AcDbPolyline
 90
2
 70
0
 10
2885.495488
 20
3266.883268
 30
0.0
 10
2897.493485
 20
3266.882118
 30
0.0
  0
LWPOLYLINE
  5
1bc
100
AcDbEntity
  8
Sketch054
 62
1
100
AcDbPolyline
 90
9
 70
0
 10
2897.488485
 20
3266.890778
 30
0.0
 10
2902.534685
 20
3267.910497
 30
0.0
 10
2906.646508
 20
3270.688605
 30
0.0
 10
2909.418979
 20
3274.806538
 30
0.0
 10
2910.442124
 20
3279.854393
 30
0.0
 10
2909.427405
 20
3284.891933
 30
0.0
 10
2906.649297
 20
3289.003756
 30
0.0
 10
2902.535024
 20
3291.789887
 30
0.0
 10
2897.492169
 20
3292.804372
 30
0.0
  0
LWPOLYLINE
  5
1bd
100
AcDbEntity
  8
Sketch054
 62
1
100
AcDbPolyline
 90
2
 70
0
 10
2897.487169
 20
3292.813032
 30
0.0
 10
2885.489172
 20
3292.814182
 30
0.0
  0
LWPOLYLINE
  5
1be
100
AcDbEntity
  8
Sketch055
 62
1
100
AcDbPolyline
 90
2
 70
0
 10
-3367.019055
 20
4102.338534
 30
0.0
 10
-1831.019486
 20
4102.338534
 30
0.0
  0
LWPOLYLINE
  5
1bf
100
AcDbEntity
  8
Sketch055
 62
1
100
AcDbPolyline
 90
6
 70
0
 10
-3367.019055
 20
4102.338534
 30
0.0
 10
-3367.019055
 20
2950.338857
 30
0.0
 10
-1297.259636
 20
2950.338857
 30
0.0
 10
-1297.259636
 20
4102.338534
 30
0.0
 10
-1783.019500
 20
4102.338534
 30
0.0
 10
-1783.019500
 20
4078.338541
 30
0.0
  0
LWPOLYLINE
  5
1c0
100
AcDbEntity
  8
Sketch055
 62
1
100
AcDbPolyline
 90
13
 70
0
 10
-1831.019486
 20
4078.338541
 30
0.0
 10
-1830.189486
 20
4072.078542
 30
0.0
 10
-1827.809487
 20
4066.338544
 30
0.0
 10
-1824.029488
 20
4061.398545
 30
0.0
 10
-1819.019490
 20
4057.548547
 30
0.0
 10
-1813.179491
 20
4055.138547
 30
0.0
 10
-1807.019493
 20
4054.338547
 30
0.0
 10
-1800.859495
 20
4055.138547
 30
0.0
 10
-1795.019496
 20
4057.548547
 30
0.0
 10
-1790.009498
 20
4061.398545
 30
0.0
 10
-1786.239499
 20
4066.338544
 30
0.0
 10
-1783.849499
 20
4072.078542
 30
0.0
 10
-1783.019500
 20
4078.338541
 30
0.0
  0
LWPOLYLINE
  5
1c1
100
AcDbEntity
  8
Sketch055
 62
1
100
AcDbPolyline
 90
2
 70
0
 10
-1831.019486
 20
4102.338534
 30
0.0
 10
-1831.019486
 20
4078.338541
 30
0.0
  0
LWPOLYLINE
  5
1c2
100
AcDbEntity
  8
Sketch055
 62
1
100
AcDbPolyline
 90
25
 70
1
 10
-3274.859081
 20
4054.338547
 30
0.0
 10
-3275.149081
 20
4057.138547
 30
0.0
 10
-3275.959081
 20
4059.748546
 30
0.0
 10
-3278.939080
 20
4064.168545
 30
0.0
 10
-3283.369079
 20
4067.138544
 30
0.0
 10
-3285.979078
 20
4067.948544
 30
0.0
 10
-3288.779077
 20
4068.228544
 30
0.0
 10
-3291.579076
 20
4067.948544
 30
0.0
 10
-3294.189076
 20
4067.138544
 30
0.0
 10
-3298.609074
 20
4064.168545
 30
0.0
 10
-3301.599074
 20
4059.748546
 30
0.0
 10
-3302.409073
 20
4057.138547
 30
0.0
 10
-3302.699073
 20
4054.338547
 30
0.0
 10
-3302.409073
 20
4051.538548
 30
0.0
 10
-3301.599074
 20
4048.928549
 30
0.0
 10
-3298.609074
 20
4044.508550
 30
0.0
 10
-3294.189076
 20
4041.528551
 30
0.0
 10
-3291.579076
 20
4040.718551
 30
0.0
 10
-3288.779077
 20
4040.438551
 30
0.0
 10
-3285.979078
 20
4040.718551
 30
0.0
 10
-3283.369079
 20
4041.528551
 30
0.0
 10
-3278.939080
 20
4044.508550
 30
0.0
 10
-3275.959081
 20
4048.928549
 30
0.0
 10
-3275.149081
 20
4051.538548
 30
0.0
 10
-3274.859081
 20
4054.338547
 30
0.0
  0
LWPOLYLINE
  5
1c3
100
AcDbEntity
  8
Sketch055
 62
1
100
AcDbPolyline
 90
13
 70
1
 10
-3072.489138
 20
3377.538737
 30
0.0
 10
-3073.369138
 20
3380.798736
 30
0.0
 10
-3075.759137
 20
3383.188736
 30
0.0
 10
-3079.019136
 20
3384.068736
 30
0.0
 10
-3082.279135
 20
3383.188736
 30
0.0
 10
-3084.669134
 20
3380.798736
 30
0.0
 10
-3085.549134
 20
3377.538737
 30
0.0
 10
-3084.669134
 20
3374.268738
 30
0.0
 10
-3082.279135
 20
3371.878739
 30
0.0
 10
-3079.019136
 20
3371.008739
 30
0.0
 10
-3075.759137
 20
3371.878739
 30
0.0
 10
-3073.369138
 20
3374.268738
 30
0.0
 10
-3072.489138
 20
3377.538737
 30
0.0
  0
LWPOLYLINE
  5
1c4
100
AcDbEntity
  8
Sketch055
 62
1
100
AcDbPolyline
 90
13
 70
1
 10
-3072.489138
 20
3298.338760
 30
0.0
 10
-3073.369138
 20
3301.598759
 30
0.0
 10
-3075.759137
 20
3303.988758
 30
0.0
 10
-3079.019136
 20
3304.868758
 30
0.0
 10
-3082.279135
 20
3303.988758
 30
0.0
 10
-3084.669134
 20
3301.598759
 30
0.0
 10
-3085.549134
 20
3298.338760
 30
0.0
 10
-3084.669134
 20
3295.068760
 30
0.0
 10
-3082.279135
 20
3292.678761
 30
0.0
 10
-3079.019136
 20
3291.808761
 30
0.0
 10
-3075.759137
 20
3292.678761
 30
0.0
 10
-3073.369138
 20
3295.068760
 30
0.0
 10
-3072.489138
 20
3298.338760
 30
0.0
  0
LWPOLYLINE
  5
1c5
100
AcDbEntity
  8
Sketch055
 62
1
100
AcDbPolyline
 90
13
 70
1
 10
-2624.749264
 20
3316.338755
 30
0.0
 10
-2625.319263
 20
3318.478754
 30
0.0
 10
-2626.889263
 20
3320.038753
 30
0.0
 10
-2629.019262
 20
3320.608753
 30
0.0
 10
-2631.159262
 20
3320.038753
 30
0.0
 10
-2632.719261
 20
3318.478754
 30
0.0
 10
-2633.289261
 20
3316.338755
 30
0.0
 10
-2632.719261
 20
3314.198755
 30
0.0
 10
-2631.159262
 20
3312.638756
 30
0.0
 10
-2629.019262
 20
3312.068756
 30
0.0
 10
-2626.889263
 20
3312.638756
 30
0.0
 10
-2625.319263
 20
3314.198755
 30
0.0
 10
-2624.749264
 20
3316.338755
 30
0.0
  0
LWPOLYLINE
  5
1c6
100
AcDbEntity
  8
Sketch055
 62
1
100
AcDbPolyline
 90
13
 70
1
 10
-2624.749264
 20
3352.338744
 30
0.0
 10
-2625.319263
 20
3354.468744
 30
0.0
 10
-2626.889263
 20
3356.038743
 30
0.0
 10
-2629.019262
 20
3356.608743
 30
0.0
 10
-2631.159262
 20
3356.038743
 30
0.0
 10
-2632.719261
 20
3354.468744
 30
0.0
 10
-2633.289261
 20
3352.338744
 30
0.0
 10
-2632.719261
 20
3350.198745
 30
0.0
 10
-2631.159262
 20
3348.638745
 30
0.0
 10
-2629.019262
 20
3348.058746
 30
0.0
 10
-2626.889263
 20
3348.638745
 30
0.0
 10
-2625.319263
 20
3350.198745
 30
0.0
 10
-2624.749264
 20
3352.338744
 30
0.0
  0
LWPOLYLINE
  5
1c7
100
AcDbEntity
  8
Sketch055
 62
1
100
AcDbPolyline
 90
25
 70
1
 10
-1361.579618
 20
4054.338547
 30
0.0
 10
-1361.869618
 20
4057.138547
 30
0.0
 10
-1362.679618
 20
4059.748546
 30
0.0
 10
-1365.669617
 20
4064.168545
 30
0.0
 10
-1370.089616
 20
4067.138544
 30
0.0
 10
-1372.699615
 20
4067.948544
 30
0.0
 10
-1375.499614
 20
4068.228544
 30
0.0
 10
-1378.299613
 20
4067.948544
 30
0.0
 10
-1380.919613
 20
4067.138544
 30
0.0
 10
-1385.339611
 20
4064.168545
 30
0.0
 10
-1388.319610
 20
4059.748546
 30
0.0
 10
-1389.139610
 20
4057.138547
 30
0.0
 10
-1389.419610
 20
4054.338547
 30
0.0
 10
-1389.139610
 20
4051.538548
 30
0.0
 10
-1388.319610
 20
4048.928549
 30
0.0
 10
-1385.339611
 20
4044.508550
 30
0.0
 10
-1380.919613
 20
4041.528551
 30
0.0
 10
-1378.299613
 20
4040.718551
 30
0.0
 10
-1375.499614
 20
4040.438551
 30
0.0
 10
-1372.699615
 20
4040.718551
 30
0.0
 10
-1370.089616
 20
4041.528551
 30
0.0
 10
-1365.669617
 20
4044.508550
 30
0.0
 10
-1362.679618
 20
4048.928549
 30
0.0
 10
-1361.869618
 20
4051.538548
 30
0.0
 10
-1361.579618
 20
4054.338547
 30
0.0
  0
LWPOLYLINE
  5
1c8
100
AcDbEntity
  8
Sketch055
 62
1
100
AcDbPolyline
 90
18
 70
1
 10
-3079.019136
 20
3011.298840
 30
0.0
 10
-3084.059135
 20
3010.268840
 30
0.0
 10
-3088.169134
 20
3007.488841
 30
0.0
 10
-3090.939133
 20
3003.378842
 30
0.0
 10
-3091.959132
 20
2998.338844
 30
0.0
 10
-3090.939133
 20
2993.298845
 30
0.0
 10
-3088.169134
 20
2989.178846
 30
0.0
 10
-3084.059135
 20
2986.398847
 30
0.0
 10
-3079.019136
 20
2985.378847
 30
0.0
 10
-2983.019163
 20
2985.378847
 30
0.0
 10
-2977.979164
 20
2986.398847
 30
0.0
 10
-2973.869166
 20
2989.178846
 30
0.0
 10
-2971.099166
 20
2993.298845
 30
0.0
 10
-2970.079167
 20
2998.338844
 30
0.0
 10
-2971.099166
 20
3003.378842
 30
0.0
 10
-2973.869166
 20
3007.488841
 30
0.0
 10
-2977.979164
 20
3010.268840
 30
0.0
 10
-2983.019163
 20
3011.298840
 30
0.0
  0
LWPOLYLINE
  5
1c9
100
AcDbEntity
  8
Sketch055
 62
1
100
AcDbPolyline
 90
18
 70
1
 10
-2380.139332
 20
3011.298840
 30
0.0
 10
-2385.179331
 20
3010.268840
 30
0.0
 10
-2389.289330
 20
3007.488841
 30
0.0
 10
-2392.059329
 20
3003.378842
 30
0.0
 10
-2393.079329
 20
2998.338844
 30
0.0
 10
-2392.059329
 20
2993.298845
 30
0.0
 10
-2389.289330
 20
2989.178846
 30
0.0
 10
-2385.179331
 20
2986.398847
 30
0.0
 10
-2380.139332
 20
2985.378847
 30
0.0
 10
-2284.139359
 20
2985.378847
 30
0.0
 10
-2279.099361
 20
2986.398847
 30
0.0
 10
-2274.989362
 20
2989.178846
 30
0.0
 10
-2272.219362
 20
2993.298845
 30
0.0
 10
-2271.199363
 20
2998.338844
 30
0.0
 10
-2272.219362
 20
3003.378842
 30
0.0
 10
-2274.989362
 20
3007.488841
 30
0.0
 10
-2279.099361
 20
3010.268840
 30
0.0
 10
-2284.139359
 20
3011.298840
 30
0.0
  0
LWPOLYLINE
  5
1ca
100
AcDbEntity
  8
Sketch055
 62
1
100
AcDbPolyline
 90
18
 70
1
 10
-1681.259528
 20
3011.298840
 30
0.0
 10
-1686.299527
 20
3010.268840
 30
0.0
 10
-1690.409526
 20
3007.488841
 30
0.0
 10
-1693.179525
 20
3003.378842
 30
0.0
 10
-1694.199525
 20
2998.338844
 30
0.0
 10
-1693.179525
 20
2993.298845
 30
0.0
 10
-1690.409526
 20
2989.178846
 30
0.0
 10
-1686.299527
 20
2986.398847
 30
0.0
 10
-1681.259528
 20
2985.378847
 30
0.0
 10
-1585.259555
 20
2985.378847
 30
0.0
 10
-1580.219557
 20
2986.398847
 30
0.0
 10
-1576.109558
 20
2989.178846
 30
0.0
 10
-1573.339559
 20
2993.298845
 30
0.0
 10
-1572.319559
 20
2998.338844
 30
0.0
 10
-1573.339559
 20
3003.378842
 30
0.0
 10
-1576.109558
 20
3007.488841
 30
0.0
 10
-1580.219557
 20
3010.268840
 30
0.0
 10
-1585.259555
 20
3011.298840
 30
0.0
  0
LWPOLYLINE
  5
1cb
100
AcDbEntity
  8
Sketch055
 62
1
100
AcDbPolyline
 90
4
 70
1
 10
-3032.459149
 20
3575.778682
 30
0.0
 10
-2645.579258
 20
3575.778682
 30
0.0
 10
-2645.579258
 20
3092.898817
 30
0.0
 10
-3032.459149
 20
3092.898817
 30
0.0
  0
LWPOLYLINE
  5
1cc
100
AcDbEntity
  8
Sketch055
 62
1
100
AcDbPolyline
 90
32
 70
1
 10
-2047.019426
 20
3813.348615
 30
0.0
 10
-2042.959427
 20
3814.108615
 30
0.0
 10
-2039.169428
 20
3816.258614
 30
0.0
 10
-2035.749429
 20
3819.668613
 30
0.0
 10
-2032.759430
 20
3824.188612
 30
0.0
 10
-2030.299430
 20
3829.668610
 30
0.0
 10
-2028.439431
 20
3835.948609
 30
0.0
 10
-2027.269431
 20
3842.888607
 30
0.0
 10
-2026.859431
 20
3850.348605
 30
0.0
 10
-2027.269431
 20
3857.808603
 30
0.0
 10
-2028.439431
 20
3864.748601
 30
0.0
 10
-2030.299430
 20
3871.038599
 30
0.0
 10
-2032.759430
 20
3876.508597
 30
0.0
 10
-2035.749429
 20
3881.028596
 30
0.0
 10
-2039.169428
 20
3884.438595
 30
0.0
 10
-2042.959427
 20
3886.588595
 30
0.0
 10
-2047.019426
 20
3887.348594
 30
0.0
 10
-2051.079425
 20
3886.588595
 30
0.0
 10
-2054.869423
 20
3884.438595
 30
0.0
 10
-2058.289422
 20
3881.028596
 30
0.0
 10
-2061.269422
 20
3876.508597
 30
0.0
 10
-2063.739421
 20
3871.038599
 30
0.0
 10
-2065.589420
 20
3864.748601
 30
0.0
 10
-2066.769420
 20
3857.808603
 30
0.0
 10
-2067.179420
 20
3850.348605
 30
0.0
 10
-2066.769420
 20
3842.888607
 30
0.0
 10
-2065.589420
 20
3835.948609
 30
0.0
 10
-2063.739421
 20
3829.668610
 30
0.0
 10
-2061.269422
 20
3824.188612
 30
0.0
 10
-2058.289422
 20
3819.668613
 30
0.0
 10
-2054.869423
 20
3816.258614
 30
0.0
 10
-2051.079425
 20
3814.108615
 30
0.0
  0
LWPOLYLINE
  5
1cd
100
AcDbEntity
  8
Sketch055
 62
1
100
AcDbPolyline
 90
25
 70
1
 10
-3151.019116
 20
3849.488605
 30
0.0
 10
-3151.849116
 20
3855.748603
 30
0.0
 10
-3154.229115
 20
3861.488602
 30
0.0
 10
-3158.009114
 20
3866.418600
 30
0.0
 10
-3163.019113
 20
3870.268599
 30
0.0
 10
-3168.859111
 20
3872.678598
 30
0.0
 10
-3175.019109
 20
3873.488598
 30
0.0
 10
-3181.179107
 20
3872.678598
 30
0.0
 10
-3187.019106
 20
3870.268599
 30
0.0
 10
-3192.029104
 20
3866.418600
 30
0.0
 10
-3195.799103
 20
3861.488602
 30
0.0
 10
-3198.189103
 20
3855.748603
 30
0.0
 10
-3199.019102
 20
3849.488605
 30
0.0
 10
-3198.189103
 20
3843.218607
 30
0.0
 10
-3195.799103
 20
3837.488608
 30
0.0
 10
-3192.029104
 20
3832.548610
 30
0.0
 10
-3187.019106
 20
3828.698611
 30
0.0
 10
-3181.179107
 20
3826.288611
 30
0.0
 10
-3175.019109
 20
3825.488612
 30
0.0
 10
-3168.859111
 20
3826.288611
 30
0.0
 10
-3163.019113
 20
3828.698611
 30
0.0
 10
-3158.009114
 20
3832.548610
 30
0.0
 10
-3154.229115
 20
3837.488608
 30
0.0
 10
-3151.849116
 20
3843.218607
 30
0.0
 10
-3151.019116
 20
3849.488605
 30
0.0
  0
LWPOLYLINE
  5
1ce
100
AcDbEntity
  8
Sketch055
 62
1
100
AcDbPolyline
 90
25
 70
1
 10
-3055.019143
 20
3849.488605
 30
0.0
 10
-3055.849143
 20
3855.748603
 30
0.0
 10
-3058.229142
 20
3861.488602
 30
0.0
 10
-3062.009141
 20
3866.418600
 30
0.0
 10
-3067.019139
 20
3870.268599
 30
0.0
 10
-3072.859138
 20
3872.678598
 30
0.0
 10
-3079.019136
 20
3873.488598
 30
0.0
 10
-3085.179134
 20
3872.678598
 30
0.0
 10
-3091.019133
 20
3870.268599
 30
0.0
 10
-3096.029131
 20
3866.418600
 30
0.0
 10
-3099.799130
 20
3861.488602
 30
0.0
 10
-3102.189130
 20
3855.748603
 30
0.0
 10
-3103.019129
 20
3849.488605
 30
0.0
 10
-3102.189130
 20
3843.218607
 30
0.0
 10
-3099.799130
 20
3837.488608
 30
0.0
 10
-3096.029131
 20
3832.548610
 30
0.0
 10
-3091.019133
 20
3828.698611
 30
0.0
 10
-3085.179134
 20
3826.288611
 30
0.0
 10
-3079.019136
 20
3825.488612
 30
0.0
 10
-3072.859138
 20
3826.288611
 30
0.0
 10
-3067.019139
 20
3828.698611
 30
0.0
 10
-3062.009141
 20
3832.548610
 30
0.0
 10
-3058.229142
 20
3837.488608
 30
0.0
 10
-3055.849143
 20
3843.218607
 30
0.0
 10
-3055.019143
 20
3849.488605
 30
0.0
  0
LWPOLYLINE
  5
1cf
100
AcDbEntity
  8
Sketch055
 62
1
100
AcDbPolyline
 90
25
 70
1
 10
-2959.019170
 20
3849.488605
 30
0.0
 10
-2959.849170
 20
3855.748603
 30
0.0
 10
-2962.229169
 20
3861.488602
 30
0.0
 10
-2966.009168
 20
3866.418600
 30
0.0
 10
-2971.019166
 20
3870.268599
 30
0.0
 10
-2976.859165
 20
3872.678598
 30
0.0
 10
-2983.019163
 20
3873.488598
 30
0.0
 10
-2989.179161
 20
3872.678598
 30
0.0
 10
-2995.019160
 20
3870.268599
 30
0.0
 10
-3000.029158
 20
3866.418600
 30
0.0
 10
-3003.799157
 20
3861.488602
 30
0.0
 10
-3006.189157
 20
3855.748603
 30
0.0
 10
-3007.019156
 20
3849.488605
 30
0.0
 10
-3006.189157
 20
3843.218607
 30
0.0
 10
-3003.799157
 20
3837.488608
 30
0.0
 10
-3000.029158
 20
3832.548610
 30
0.0
 10
-2995.019160
 20
3828.698611
 30
0.0
 10
-2989.179161
 20
3826.288611
 30
0.0
 10
-2983.019163
 20
3825.488612
 30
0.0
 10
-2976.859165
 20
3826.288611
 30
0.0
 10
-2971.019166
 20
3828.698611
 30
0.0
 10
-2966.009168
 20
3832.548610
 30
0.0
 10
-2962.229169
 20
3837.488608
 30
0.0
 10
-2959.849170
 20
3843.218607
 30
0.0
 10
-2959.019170
 20
3849.488605
 30
0.0
  0
LWPOLYLINE
  5
1d0
100
AcDbEntity
  8
Sketch055
 62
1
100
AcDbPolyline
 90
25
 70
1
 10
-2863.019197
 20
3849.488605
 30
0.0
 10
-2863.849196
 20
3855.748603
 30
0.0
 10
-2866.229196
 20
3861.488602
 30
0.0
 10
-2870.009195
 20
3866.418600
 30
0.0
 10
-2875.019193
 20
3870.268599
 30
0.0
 10
-2880.859192
 20
3872.678598
 30
0.0
 10
-2887.019190
 20
3873.488598
 30
0.0
 10
-2893.179188
 20
3872.678598
 30
0.0
 10
-2899.019187
 20
3870.268599
 30
0.0
 10
-2904.029185
 20
3866.418600
 30
0.0
 10
-2907.799184
 20
3861.488602
 30
0.0
 10
-2910.189183
 20
3855.748603
 30
0.0
 10
-2911.019183
 20
3849.488605
 30
0.0
 10
-2910.189183
 20
3843.218607
 30
0.0
 10
-2907.799184
 20
3837.488608
 30
0.0
 10
-2904.029185
 20
3832.548610
 30
0.0
 10
-2899.019187
 20
3828.698611
 30
0.0
 10
-2893.179188
 20
3826.288611
 30
0.0
 10
-2887.019190
 20
3825.488612
 30
0.0
 10
-2880.859192
 20
3826.288611
 30
0.0
 10
-2875.019193
 20
3828.698611
 30
0.0
 10
-2870.009195
 20
3832.548610
 30
0.0
 10
-2866.229196
 20
3837.488608
 30
0.0
 10
-2863.849196
 20
3843.218607
 30
0.0
 10
-2863.019197
 20
3849.488605
 30
0.0
  0
LWPOLYLINE
  5
1d1
100
AcDbEntity
  8
Sketch055
 62
1
100
AcDbPolyline
 90
25
 70
1
 10
-3103.019129
 20
3766.338628
 30
0.0
 10
-3103.849129
 20
3772.598627
 30
0.0
 10
-3106.229128
 20
3778.338625
 30
0.0
 10
-3110.009127
 20
3783.268624
 30
0.0
 10
-3115.019126
 20
3787.118622
 30
0.0
 10
-3120.859124
 20
3789.528622
 30
0.0
 10
-3127.019123
 20
3790.338622
 30
0.0
 10
-3133.179121
 20
3789.528622
 30
0.0
 10
-3139.019119
 20
3787.118622
 30
0.0
 10
-3144.029118
 20
3783.268624
 30
0.0
 10
-3147.799117
 20
3778.338625
 30
0.0
 10
-3150.189116
 20
3772.598627
 30
0.0
 10
-3151.019116
 20
3766.338628
 30
0.0
 10
-3150.189116
 20
3760.078630
 30
0.0
 10
-3147.799117
 20
3754.338632
 30
0.0
 10
-3144.029118
 20
3749.398633
 30
0.0
 10
-3139.019119
 20
3745.548634
 30
0.0
 10
-3133.179121
 20
3743.138635
 30
0.0
 10
-3127.019123
 20
3742.338635
 30
0.0
 10
-3120.859124
 20
3743.138635
 30
0.0
 10
-3115.019126
 20
3745.548634
 30
0.0
 10
-3110.009127
 20
3749.398633
 30
0.0
 10
-3106.229128
 20
3754.338632
 30
0.0
 10
-3103.849129
 20
3760.078630
 30
0.0
 10
-3103.019129
 20
3766.338628
 30
0.0
  0
LWPOLYLINE
  5
1d2
100
AcDbEntity
  8
Sketch055
 62
1
100
AcDbPolyline
 90
25
 70
1
 10
-3007.019156
 20
3766.338628
 30
0.0
 10
-3007.849156
 20
3772.598627
 30
0.0
 10
-3010.229155
 20
3778.338625
 30
0.0
 10
-3014.009154
 20
3783.268624
 30
0.0
 10
-3019.019153
 20
3787.118622
 30
0.0
 10
-3024.859151
 20
3789.528622
 30
0.0
 10
-3031.019150
 20
3790.338622
 30
0.0
 10
-3037.179148
 20
3789.528622
 30
0.0
 10
-3043.019146
 20
3787.118622
 30
0.0
 10
-3048.029145
 20
3783.268624
 30
0.0
 10
-3051.799144
 20
3778.338625
 30
0.0
 10
-3054.189143
 20
3772.598627
 30
0.0
 10
-3055.019143
 20
3766.338628
 30
0.0
 10
-3054.189143
 20
3760.078630
 30
0.0
 10
-3051.799144
 20
3754.338632
 30
0.0
 10
-3048.029145
 20
3749.398633
 30
0.0
 10
-3043.019146
 20
3745.548634
 30
0.0
 10
-3037.179148
 20
3743.138635
 30
0.0
 10
-3031.019150
 20
3742.338635
 30
0.0
 10
-3024.859151
 20
3743.138635
 30
0.0
 10
-3019.019153
 20
3745.548634
 30
0.0
 10
-3014.009154
 20
3749.398633
 30
0.0
 10
-3010.229155
 20
3754.338632
 30
0.0
 10
-3007.849156
 20
3760.078630
 30
0.0
 10
-3007.019156
 20
3766.338628
 30
0.0
  0
LWPOLYLINE
  5
1d3
100
AcDbEntity
  8
Sketch055
 62
1
100
AcDbPolyline
 90
25
 70
1
 10
-2911.019183
 20
3766.338628
 30
0.0
 10
-2911.849183
 20
3772.598627
 30
0.0
 10
-2914.229182
 20
3778.338625
 30
0.0
 10
-2918.009181
 20
3783.268624
 30
0.0
 10
-2923.019180
 20
3787.118622
 30
0.0
 10
-2928.859178
 20
3789.528622
 30
0.0
 10
-2935.019176
 20
3790.338622
 30
0.0
 10
-2941.179175
 20
3789.528622
 30
0.0
 10
-2947.019173
 20
3787.118622
 30
0.0
 10
-2952.029172
 20
3783.268624
 30
0.0
 10
-2955.799171
 20
3778.338625
 30
0.0
 10
-2958.189170
 20
3772.598627
 30
0.0
 10
-2959.019170
 20
3766.338628
 30
0.0
 10
-2958.189170
 20
3760.078630
 30
0.0
 10
-2955.799171
 20
3754.338632
 30
0.0
 10
-2952.029172
 20
3749.398633
 30
0.0
 10
-2947.019173
 20
3745.548634
 30
0.0
 10
-2941.179175
 20
3743.138635
 30
0.0
 10
-2935.019176
 20
3742.338635
 30
0.0
 10
-2928.859178
 20
3743.138635
 30
0.0
 10
-2923.019180
 20
3745.548634
 30
0.0
 10
-2918.009181
 20
3749.398633
 30
0.0
 10
-2914.229182
 20
3754.338632
 30
0.0
 10
-2911.849183
 20
3760.078630
 30
0.0
 10
-2911.019183
 20
3766.338628
 30
0.0
  0
LWPOLYLINE
  5
1d4
100
AcDbEntity
  8
Sketch055
 62
1
100
AcDbPolyline
 90
25
 70
1
 10
-2767.019224
 20
3849.488605
 30
0.0
 10
-2767.849223
 20
3855.748603
 30
0.0
 10
-2770.229223
 20
3861.488602
 30
0.0
 10
-2774.009222
 20
3866.418600
 30
0.0
 10
-2779.019220
 20
3870.268599
 30
0.0
 10
-2784.859219
 20
3872.678598
 30
0.0
 10
-2791.019217
 20
3873.488598
 30
0.0
 10
-2797.179215
 20
3872.678598
 30
0.0
 10
-2803.019214
 20
3870.268599
 30
0.0
 10
-2808.029212
 20
3866.418600
 30
0.0
 10
-2811.799211
 20
3861.488602
 30
0.0
 10
-2814.189210
 20
3855.748603
 30
0.0
 10
-2815.019210
 20
3849.488605
 30
0.0
 10
-2814.189210
 20
3843.218607
 30
0.0
 10
-2811.799211
 20
3837.488608
 30
0.0
 10
-2808.029212
 20
3832.548610
 30
0.0
 10
-2803.019214
 20
3828.698611
 30
0.0
 10
-2797.179215
 20
3826.288611
 30
0.0
 10
-2791.019217
 20
3825.488612
 30
0.0
 10
-2784.859219
 20
3826.288611
 30
0.0
 10
-2779.019220
 20
3828.698611
 30
0.0
 10
-2774.009222
 20
3832.548610
 30
0.0
 10
-2770.229223
 20
3837.488608
 30
0.0
 10
-2767.849223
 20
3843.218607
 30
0.0
 10
-2767.019224
 20
3849.488605
 30
0.0
  0
LWPOLYLINE
  5
1d5
100
AcDbEntity
  8
Sketch055
 62
1
100
AcDbPolyline
 90
25
 70
1
 10
-2671.019251
 20
3849.488605
 30
0.0
 10
-2671.849250
 20
3855.748603
 30
0.0
 10
-2674.229250
 20
3861.488602
 30
0.0
 10
-2678.009249
 20
3866.418600
 30
0.0
 10
-2683.019247
 20
3870.268599
 30
0.0
 10
-2688.859246
 20
3872.678598
 30
0.0
 10
-2695.019244
 20
3873.488598
 30
0.0
 10
-2701.179242
 20
3872.678598
 30
0.0
 10
-2707.019240
 20
3870.268599
 30
0.0
 10
-2712.029239
 20
3866.418600
 30
0.0
 10
-2715.799238
 20
3861.488602
 30
0.0
 10
-2718.189237
 20
3855.748603
 30
0.0
 10
-2719.019237
 20
3849.488605
 30
0.0
 10
-2718.189237
 20
3843.218607
 30
0.0
 10
-2715.799238
 20
3837.488608
 30
0.0
 10
-2712.029239
 20
3832.548610
 30
0.0
 10
-2707.019240
 20
3828.698611
 30
0.0
 10
-2701.179242
 20
3826.288611
 30
0.0
 10
-2695.019244
 20
3825.488612
 30
0.0
 10
-2688.859246
 20
3826.288611
 30
0.0
 10
-2683.019247
 20
3828.698611
 30
0.0
 10
-2678.009249
 20
3832.548610
 30
0.0
 10
-2674.229250
 20
3837.488608
 30
0.0
 10
-2671.849250
 20
3843.218607
 30
0.0
 10
-2671.019251
 20
3849.488605
 30
0.0
  0
LWPOLYLINE
  5
1d6
100
AcDbEntity
  8
Sketch055
 62
1
100
AcDbPolyline
 90
25
 70
1
 10
-2575.019277
 20
3849.488605
 30
0.0
 10
-2575.849277
 20
3855.748603
 30
0.0
 10
-2578.229277
 20
3861.488602
 30
0.0
 10
-2582.009276
 20
3866.418600
 30
0.0
 10
-2587.019274
 20
3870.268599
 30
0.0
 10
-2592.859272
 20
3872.678598
 30
0.0
 10
-2599.019271
 20
3873.488598
 30
0.0
 10
-2605.179269
 20
3872.678598
 30
0.0
 10
-2611.019267
 20
3870.268599
 30
0.0
 10
-2616.029266
 20
3866.418600
 30
0.0
 10
-2619.799265
 20
3861.488602
 30
0.0
 10
-2622.189264
 20
3855.748603
 30
0.0
 10
-2623.019264
 20
3849.488605
 30
0.0
 10
-2622.189264
 20
3843.218607
 30
0.0
 10
-2619.799265
 20
3837.488608
 30
0.0
 10
-2616.029266
 20
3832.548610
 30
0.0
 10
-2611.019267
 20
3828.698611
 30
0.0
 10
-2605.179269
 20
3826.288611
 30
0.0
 10
-2599.019271
 20
3825.488612
 30
0.0
 10
-2592.859272
 20
3826.288611
 30
0.0
 10
-2587.019274
 20
3828.698611
 30
0.0
 10
-2582.009276
 20
3832.548610
 30
0.0
 10
-2578.229277
 20
3837.488608
 30
0.0
 10
-2575.849277
 20
3843.218607
 30
0.0
 10
-2575.019277
 20
3849.488605
 30
0.0
  0
LWPOLYLINE
  5
1d7
100
AcDbEntity
  8
Sketch055
 62
1
100
AcDbPolyline
 90
25
 70
1
 10
-2479.019304
 20
3849.488605
 30
0.0
 10
-2479.849304
 20
3855.748603
 30
0.0
 10
-2482.229304
 20
3861.488602
 30
0.0
 10
-2486.009302
 20
3866.418600
 30
0.0
 10
-2491.019301
 20
3870.268599
 30
0.0
 10
-2496.859299
 20
3872.678598
 30
0.0
 10
-2503.019298
 20
3873.488598
 30
0.0
 10
-2509.179296
 20
3872.678598
 30
0.0
 10
-2515.019294
 20
3870.268599
 30
0.0
 10
-2520.029293
 20
3866.418600
 30
0.0
 10
-2523.799292
 20
3861.488602
 30
0.0
 10
-2526.189291
 20
3855.748603
 30
0.0
 10
-2527.019291
 20
3849.488605
 30
0.0
 10
-2526.189291
 20
3843.218607
 30
0.0
 10
-2523.799292
 20
3837.488608
 30
0.0
 10
-2520.029293
 20
3832.548610
 30
0.0
 10
-2515.019294
 20
3828.698611
 30
0.0
 10
-2509.179296
 20
3826.288611
 30
0.0
 10
-2503.019298
 20
3825.488612
 30
0.0
 10
-2496.859299
 20
3826.288611
 30
0.0
 10
-2491.019301
 20
3828.698611
 30
0.0
 10
-2486.009302
 20
3832.548610
 30
0.0
 10
-2482.229304
 20
3837.488608
 30
0.0
 10
-2479.849304
 20
3843.218607
 30
0.0
 10
-2479.019304
 20
3849.488605
 30
0.0
  0
LWPOLYLINE
  5
1d8
100
AcDbEntity
  8
Sketch055
 62
1
100
AcDbPolyline
 90
25
 70
1
 10
-2719.019237
 20
3766.338628
 30
0.0
 10
-2719.849237
 20
3772.598627
 30
0.0
 10
-2722.229236
 20
3778.338625
 30
0.0
 10
-2726.009235
 20
3783.268624
 30
0.0
 10
-2731.019234
 20
3787.118622
 30
0.0
 10
-2736.859232
 20
3789.528622
 30
0.0
 10
-2743.019230
 20
3790.338622
 30
0.0
 10
-2749.179229
 20
3789.528622
 30
0.0
 10
-2755.019227
 20
3787.118622
 30
0.0
 10
-2760.029226
 20
3783.268624
 30
0.0
 10
-2763.799225
 20
3778.338625
 30
0.0
 10
-2766.189224
 20
3772.598627
 30
0.0
 10
-2767.019224
 20
3766.338628
 30
0.0
 10
-2766.189224
 20
3760.078630
 30
0.0
 10
-2763.799225
 20
3754.338632
 30
0.0
 10
-2760.029226
 20
3749.398633
 30
0.0
 10
-2755.019227
 20
3745.548634
 30
0.0
 10
-2749.179229
 20
3743.138635
 30
0.0
 10
-2743.019230
 20
3742.338635
 30
0.0
 10
-2736.859232
 20
3743.138635
 30
0.0
 10
-2731.019234
 20
3745.548634
 30
0.0
 10
-2726.009235
 20
3749.398633
 30
0.0
 10
-2722.229236
 20
3754.338632
 30
0.0
 10
-2719.849237
 20
3760.078630
 30
0.0
 10
-2719.019237
 20
3766.338628
 30
0.0
  0
LWPOLYLINE
  5
1d9
100
AcDbEntity
  8
Sketch055
 62
1
100
AcDbPolyline
 90
25
 70
1
 10
-2623.019264
 20
3766.338628
 30
0.0
 10
-2623.849264
 20
3772.598627
 30
0.0
 10
-2626.229263
 20
3778.338625
 30
0.0
 10
-2630.009262
 20
3783.268624
 30
0.0
 10
-2635.019261
 20
3787.118622
 30
0.0
 10
-2640.859259
 20
3789.528622
 30
0.0
 10
-2647.019257
 20
3790.338622
 30
0.0
 10
-2653.179256
 20
3789.528622
 30
0.0
 10
-2659.019254
 20
3787.118622
 30
0.0
 10
-2664.029253
 20
3783.268624
 30
0.0
 10
-2667.799251
 20
3778.338625
 30
0.0
 10
-2670.189251
 20
3772.598627
 30
0.0
 10
-2671.019251
 20
3766.338628
 30
0.0
 10
-2670.189251
 20
3760.078630
 30
0.0
 10
-2667.799251
 20
3754.338632
 30
0.0
 10
-2664.029253
 20
3749.398633
 30
0.0
 10
-2659.019254
 20
3745.548634
 30
0.0
 10
-2653.179256
 20
3743.138635
 30
0.0
 10
-2647.019257
 20
3742.338635
 30
0.0
 10
-2640.859259
 20
3743.138635
 30
0.0
 10
-2635.019261
 20
3745.548634
 30
0.0
 10
-2630.009262
 20
3749.398633
 30
0.0
 10
-2626.229263
 20
3754.338632
 30
0.0
 10
-2623.849264
 20
3760.078630
 30
0.0
 10
-2623.019264
 20
3766.338628
 30
0.0
  0
LWPOLYLINE
  5
1da
100
AcDbEntity
  8
Sketch055
 62
1
100
AcDbPolyline
 90
25
 70
1
 10
-2527.019291
 20
3766.338628
 30
0.0
 10
-2527.849291
 20
3772.598627
 30
0.0
 10
-2530.229290
 20
3778.338625
 30
0.0
 10
-2534.009289
 20
3783.268624
 30
0.0
 10
-2539.019288
 20
3787.118622
 30
0.0
 10
-2544.859286
 20
3789.528622
 30
0.0
 10
-2551.019284
 20
3790.338622
 30
0.0
 10
-2557.179282
 20
3789.528622
 30
0.0
 10
-2563.019281
 20
3787.118622
 30
0.0
 10
-2568.029279
 20
3783.268624
 30
0.0
 10
-2571.799278
 20
3778.338625
 30
0.0
 10
-2574.189278
 20
3772.598627
 30
0.0
 10
-2575.019277
 20
3766.338628
 30
0.0
 10
-2574.189278
 20
3760.078630
 30
0.0
 10
-2571.799278
 20
3754.338632
 30
0.0
 10
-2568.029279
 20
3749.398633
 30
0.0
 10
-2563.019281
 20
3745.548634
 30
0.0
 10
-2557.179282
 20
3743.138635
 30
0.0
 10
-2551.019284
 20
3742.338635
 30
0.0
 10
-2544.859286
 20
3743.138635
 30
0.0
 10
-2539.019288
 20
3745.548634
 30
0.0
 10
-2534.009289
 20
3749.398633
 30
0.0
 10
-2530.229290
 20
3754.338632
 30
0.0
 10
-2527.849291
 20
3760.078630
 30
0.0
 10
-2527.019291
 20
3766.338628
 30
0.0
  0
LWPOLYLINE
  5
1db
100
AcDbEntity
  8
Sketch055
 62
1
100
AcDbPolyline
 90
25
 70
1
 10
-2815.019210
 20
3766.338628
 30
0.0
 10
-2815.849210
 20
3772.598627
 30
0.0
 10
-2818.229209
 20
3778.338625
 30
0.0
 10
-2822.009208
 20
3783.268624
 30
0.0
 10
-2827.019207
 20
3787.118622
 30
0.0
 10
-2832.859205
 20
3789.528622
 30
0.0
 10
-2839.019203
 20
3790.338622
 30
0.0
 10
-2845.179202
 20
3789.528622
 30
0.0
 10
-2851.019200
 20
3787.118622
 30
0.0
 10
-2856.029199
 20
3783.268624
 30
0.0
 10
-2859.799198
 20
3778.338625
 30
0.0
 10
-2862.189197
 20
3772.598627
 30
0.0
 10
-2863.019197
 20
3766.338628
 30
0.0
 10
-2862.189197
 20
3760.078630
 30
0.0
 10
-2859.799198
 20
3754.338632
 30
0.0
 10
-2856.029199
 20
3749.398633
 30
0.0
 10
-2851.019200
 20
3745.548634
 30
0.0
 10
-2845.179202
 20
3743.138635
 30
0.0
 10
-2839.019203
 20
3742.338635
 30
0.0
 10
-2832.859205
 20
3743.138635
 30
0.0
 10
-2827.019207
 20
3745.548634
 30
0.0
 10
-2822.009208
 20
3749.398633
 30
0.0
 10
-2818.229209
 20
3754.338632
 30
0.0
 10
-2815.849210
 20
3760.078630
 30
0.0
 10
-2815.019210
 20
3766.338628
 30
0.0
  0
SPLINE
  5
1dc
100
AcDbEntity
  8
Sketch055
 62
1
100
AcDbSpline
 70
8
 71
3
 72
8
 73
4
 74
0
 40
0
 40
0
 40
0
 40
0
 40
1
 40
1
 40
1
 40
1
 10
-3443.879034
 20
6557.828145
 30
0.0
 10
-3443.879034
 20
6963.052954
 30
0.0
 10
-3660.063896
 20
7337.496119
 30
0.0
 10
-4010.998875
 20
7540.108523
 30
0.0
  0
SPLINE
  5
1dd
100
AcDbEntity
  8
Sketch055
 62
1
100
AcDbSpline
 70
8
 71
3
 72
8
 73
4
 74
0
 40
0
 40
0
 40
0
 40
0
 40
1
 40
1
 40
1
 40
1
 10
-4010.998875
 20
7540.108523
 30
0.0
 10
-4361.933853
 20
7742.720928
 30
0.0
 10
-4794.303577
 20
7742.720928
 30
0.0
 10
-5145.238556
 20
7540.108523
 30
0.0
  0
SPLINE
  5
1de
100
AcDbEntity
  8
Sketch055
 62
1
100
AcDbSpline
 70
8
 71
3
 72
8
 73
4
 74
0
 40
0
 40
0
 40
0
 40
0
 40
1
 40
1
 40
1
 40
1
 10
-5145.238556
 20
7540.108523
 30
0.0
 10
-5496.173535
 20
7337.496119
 30
0.0
 10
-5712.358397
 20
6963.052954
 30
0.0
 10
-5712.358397
 20
6557.828145
 30
0.0
  0
SPLINE
  5
1df
100
AcDbEntity
  8
Sketch055
 62
1
100
AcDbSpline
 70
8
 71
3
 72
8
 73
4
 74
0
 40
0
 40
0
 40
0
 40
0
 40
1
 40
1
 40
1
 40
1
 10
-5712.358397
 20
6557.828145
 30
0.0
 10
-5712.358397
 20
6152.603336
 30
0.0
 10
-5496.173535
 20
5778.160171
 30
0.0
 10
-5145.238556
 20
5575.547767
 30
0.0
  0
SPLINE
  5
1e0
100
AcDbEntity
  8
Sketch055
 62
1
100
AcDbSpline
 70
8
 71
3
 72
8
 73
4
 74
0
 40
0
 40
0
 40
0
 40
0
 40
1
 40
1
 40
1
 40
1
 10
-5145.238556
 20
5575.547767
 30
0.0
 10
-4794.303577
 20
5372.935362
 30
0.0
 10
-4361.933853
 20
5372.935362
 30
0.0
 10
-4010.998875
 20
5575.547767
 30
0.0
  0
SPLINE
  5
1e1
100
AcDbEntity
  8
Sketch055
 62
1
100
AcDbSpline
 70
8
 71
3
 72
8
 73
4
 74
0
 40
0
 40
0
 40
0
 40
0
 40
1
 40
1
 40
1
 40
1
 10
-4010.998875
 20
5575.547767
 30
0.0
 10
-3660.063896
 20
5778.160171
 30
0.0
 10
-3443.879034
 20
6152.603336
 30
0.0
 10
-3443.879034
 20
6557.828145
 30
0.0
  0
LWPOLYLINE
  5
1e2
100
AcDbEntity
  8
Sketch055
 62
1
100
AcDbPolyline
 90
25
 70
1
 10
-1811.039492
 20
3106.338813
 30
0.0
 10
-1811.319492
 20
3109.138813
 30
0.0
 10
-1812.139492
 20
3111.748812
 30
0.0
 10
-1815.119491
 20
3116.168811
 30
0.0
 10
-1819.539489
 20
3119.138810
 30
0.0
 10
-1822.149489
 20
3119.948810
 30
0.0
 10
-1824.959488
 20
3120.228810
 30
0.0
 10
-1827.759487
 20
3119.948810
 30
0.0
 10
-1830.369486
 20
3119.138810
 30
0.0
 10
-1834.789485
 20
3116.168811
 30
0.0
 10
-1837.779484
 20
3111.748812
 30
0.0
 10
-1838.589484
 20
3109.138813
 30
0.0
 10
-1838.879484
 20
3106.338813
 30
0.0
 10
-1838.589484
 20
3103.538814
 30
0.0
 10
-1837.779484
 20
3100.928815
 30
0.0
 10
-1834.789485
 20
3096.508816
 30
0.0
 10
-1830.369486
 20
3093.528817
 30
0.0
 10
-1827.759487
 20
3092.718817
 30
0.0
 10
-1824.959488
 20
3092.438817
 30
0.0
 10
-1822.149489
 20
3092.718817
 30
0.0
 10
-1819.539489
 20
3093.528817
 30
0.0
 10
-1815.119491
 20
3096.508816
 30
0.0
 10
-1812.139492
 20
3100.928815
 30
0.0
 10
-1811.319492
 20
3103.538814
 30
0.0
 10
-1811.039492
 20
3106.338813
 30
0.0
  0
SPLINE
  5
1e3
100
AcDbEntity
  8
Sketch055
 62
1
100
AcDbSpline
 70
8
 71
3
 72
8
 73
4
 74
0
 40
0
 40
0
 40
0
 40
0
 40
1
 40
1
 40
1
 40
1
 10
-4386.118769
 20
6557.828145
 30
0.0
 10
-4386.118769
 20
6626.423119
 30
0.0
 10
-4422.713752
 20
6689.807489
 30
0.0
 10
-4482.118742
 20
6724.104976
 30
0.0
  0
SPLINE
  5
1e4
100
AcDbEntity
  8
Sketch055
 62
1
100
AcDbSpline
 70
8
 71
3
 72
8
 73
4
 74
0
 40
0
 40
0
 40
0
 40
0
 40
1
 40
1
 40
1
 40
1
 10
-4482.118742
 20
6724.104976
 30
0.0
 10
-4541.523732
 20
6758.402463
 30
0.0
 10
-4614.713698
 20
6758.402463
 30
0.0
 10
-4674.118689
 20
6724.104976
 30
0.0
  0
SPLINE
  5
1e5
100
AcDbEntity
  8
Sketch055
 62
1
100
AcDbSpline
 70
8
 71
3
 72
8
 73
4
 74
0
 40
0
 40
0
 40
0
 40
0
 40
1
 40
1
 40
1
 40
1
 10
-4674.118689
 20
6724.104976
 30
0.0
 10
-4733.523679
 20
6689.807489
 30
0.0
 10
-4770.118662
 20
6626.423119
 30
0.0
 10
-4770.118662
 20
6557.828145
 30
0.0
  0
SPLINE
  5
1e6
100
AcDbEntity
  8
Sketch055
 62
1
100
AcDbSpline
 70
8
 71
3
 72
8
 73
4
 74
0
 40
0
 40
0
 40
0
 40
0
 40
1
 40
1
 40
1
 40
1
 10
-4770.118662
 20
6557.828145
 30
0.0
 10
-4770.118662
 20
6489.233171
 30
0.0
 10
-4733.523679
 20
6425.848801
 30
0.0
 10
-4674.118689
 20
6391.551314
 30
0.0
  0
SPLINE
  5
1e7
100
AcDbEntity
  8
Sketch055
 62
1
100
AcDbSpline
 70
8
 71
3
 72
8
 73
4
 74
0
 40
0
 40
0
 40
0
 40
0
 40
1
 40
1
 40
1
 40
1
 10
-4674.118689
 20
6391.551314
 30
0.0
 10
-4614.713698
 20
6357.253827
 30
0.0
 10
-4541.523732
 20
6357.253827
 30
0.0
 10
-4482.118742
 20
6391.551314
 30
0.0
  0
SPLINE
  5
1e8
100
AcDbEntity
  8
Sketch055
 62
1
100
AcDbSpline
 70
8
 71
3
 72
8
 73
4
 74
0
 40
0
 40
0
 40
0
 40
0
 40
1
 40
1
 40
1
 40
1
 10
-4482.118742
 20
6391.551314
 30
0.0
 10
-4422.713752
 20
6425.848801
 30
0.0
 10
-4386.118769
 20
6489.233171
 30
0.0
 10
-4386.118769
 20
6557.828145
 30
0.0
  0
LWPOLYLINE
  5
1e9
100
AcDbEntity
  8
Sketch055
 62
1
100
AcDbPolyline
 90
1
 70
1
 10
-3443.879034
 20
6557.828145
 30
0.0
  0
LWPOLYLINE
  5
1ea
100
AcDbEntity
  8
Sketch055
 62
1
100
AcDbPolyline
 90
1
 70
1
 10
-4386.118769
 20
6557.828145
 30
0.0
  0
LWPOLYLINE
  5
1eb
100
AcDbEntity
  8
Sketch055
 62
1
100
AcDbPolyline
 90
4
 70
0
 10
-5560.712440
 20
3600.878675
 30
0.0
 10
-5459.126468
 20
3659.538658
 30
0.0
 10
-5509.526454
 20
3746.828634
 30
0.0
 10
-5611.112426
 20
3688.178650
 30
0.0
  0
LWPOLYLINE
  5
1ec
100
AcDbEntity
  8
Sketch055
 62
1
100
AcDbPolyline
 90
2
 70
0
 10
-5611.112426
 20
4662.922377
 30
0.0
 10
-5611.112426
 20
3688.178650
 30
0.0
  0
LWPOLYLINE
  5
1ed
100
AcDbEntity
  8
Sketch055
 62
1
100
AcDbPolyline
 90
4
 70
0
 10
-5611.112426
 20
4662.922377
 30
0.0
 10
-5509.526454
 20
4604.271393
 30
0.0
 10
-5459.126468
 20
4691.563369
 30
0.0
 10
-5560.712440
 20
4750.214352
 30
0.0
  0
LWPOLYLINE
  5
1ee
100
AcDbEntity
  8
Sketch055
 62
1
100
AcDbPolyline
 90
2
 70
0
 10
-4716.558677
 20
5237.588215
 30
0.0
 10
-5560.712440
 20
4750.214352
 30
0.0
  0
LWPOLYLINE
  5
1ef
100
AcDbEntity
  8
Sketch055
 62
1
100
AcDbPolyline
 90
4
 70
0
 10
-4716.558677
 20
5237.588215
 30
0.0
 10
-4716.558677
 20
5120.287248
 30
0.0
 10
-4615.758705
 20
5120.287248
 30
0.0
 10
-4615.758705
 20
5237.588215
 30
0.0
  0
LWPOLYLINE
  5
1f0
100
AcDbEntity
  8
Sketch055
 62
1
100
AcDbPolyline
 90
2
 70
0
 10
-3771.604942
 20
4750.214352
 30
0.0
 10
-4615.758705
 20
5237.588215
 30
0.0
  0
LWPOLYLINE
  5
1f1
100
AcDbEntity
  8
Sketch055
 62
1
100
AcDbPolyline
 90
4
 70
0
 10
-3771.604942
 20
4750.214352
 30
0.0
 10
-3873.190913
 20
4691.563369
 30
0.0
 10
-3822.790927
 20
4604.271393
 30
0.0
 10
-3721.204956
 20
4662.922377
 30
0.0
  0
LWPOLYLINE
  5
1f2
100
AcDbEntity
  8
Sketch055
 62
1
100
AcDbPolyline
 90
2
 70
0
 10
-3721.204956
 20
3688.178650
 30
0.0
 10
-3721.204956
 20
4662.922377
 30
0.0
  0
LWPOLYLINE
  5
1f3
100
AcDbEntity
  8
Sketch055
 62
1
100
AcDbPolyline
 90
4
 70
0
 10
-3721.204956
 20
3688.178650
 30
0.0
 10
-3822.790927
 20
3746.828634
 30
0.0
 10
-3873.190913
 20
3659.538658
 30
0.0
 10
-3771.604942
 20
3600.878675
 30
0.0
  0
LWPOLYLINE
  5
1f4
100
AcDbEntity
  8
Sketch055
 62
1
100
AcDbPolyline
 90
2
 70
0
 10
-4615.758705
 20
3113.508811
 30
0.0
 10
-3771.604942
 20
3600.878675
 30
0.0
  0
LWPOLYLINE
  5
1f5
100
AcDbEntity
  8
Sketch055
 62
1
100
AcDbPolyline
 90
4
 70
0
 10
-4615.758705
 20
3113.508811
 30
0.0
 10
-4615.758705
 20
3230.808779
 30
0.0
 10
-4716.558677
 20
3230.808779
 30
0.0
 10
-4716.558677
 20
3113.508811
 30
0.0
  0
SPLINE
  5
1f6
100
AcDbEntity
  8
Sketch055
 62
1
100
AcDbSpline
 70
8
 71
3
 72
8
 73
4
 74
0
 40
0
 40
0
 40
0
 40
0
 40
1
 40
1
 40
1
 40
1
 10
-5230.247352
 20
3456.091015
 30
0.0
 10
-5224.048676
 20
3452.512212
 30
0.0
 10
-5216.122462
 20
3454.636038
 30
0.0
 10
-5212.543658
 20
3460.834714
 30
0.0
  0
SPLINE
  5
1f7
100
AcDbEntity
  8
Sketch055
 62
1
100
AcDbSpline
 70
8
 71
3
 72
8
 73
4
 74
0
 40
0
 40
0
 40
0
 40
0
 40
1
 40
1
 40
1
 40
1
 10
-5212.543658
 20
3460.834714
 30
0.0
 10
-5208.964854
 20
3467.033391
 30
0.0
 10
-5211.088680
 20
3474.959605
 30
0.0
 10
-5217.287356
 20
3478.538409
 30
0.0
  0
LWPOLYLINE
  5
1f8
100
AcDbEntity
  8
Sketch055
 62
1
100
AcDbPolyline
 90
2
 70
0
 10
-5560.712440
 20
3600.878675
 30
0.0
 10
-4716.558677
 20
3113.508811
 30
0.0
  0
SPLINE
  5
1f9
100
AcDbEntity
  8
Sketch055
 62
1
100
AcDbSpline
 70
8
 71
3
 72
8
 73
4
 74
0
 40
0
 40
0
 40
0
 40
0
 40
1
 40
1
 40
1
 40
1
 10
-5383.563839
 20
3574.538382
 30
0.0
 10
-5389.762516
 20
3578.117186
 30
0.0
 10
-5397.688730
 20
3575.993360
 30
0.0
 10
-5401.267534
 20
3569.794683
 30
0.0
  0
SPLINE
  5
1fa
100
AcDbEntity
  8
Sketch055
 62
1
100
AcDbSpline
 70
8
 71
3
 72
8
 73
4
 74
0
 40
0
 40
0
 40
0
 40
0
 40
1
 40
1
 40
1
 40
1
 10
-5401.267534
 20
3569.794683
 30
0.0
 10
-5404.846338
 20
3563.596007
 30
0.0
 10
-5402.722512
 20
3555.669793
 30
0.0
 10
-5396.523836
 20
3552.090989
 30
0.0
  0
LWPOLYLINE
  5
1fb
100
AcDbEntity
  8
Sketch055
 62
1
100
AcDbPolyline
 90
2
 70
0
 10
-5217.285536
 20
3478.538709
 30
0.0
 10
-5383.561489
 20
3574.538682
 30
0.0
  0
SPLINE
  5
1fc
100
AcDbEntity
  8
Sketch055
 62
1
100
AcDbSpline
 70
8
 71
3
 72
8
 73
4
 74
0
 40
0
 40
0
 40
0
 40
0
 40
1
 40
1
 40
1
 40
1
 10
-4325.132766
 20
3327.303651
 30
0.0
 10
-4321.122926
 20
3329.618732
 30
0.0
 10
-4318.652761
 20
3333.897179
 30
0.0
 10
-4318.652759
 20
3338.527343
 30
0.0
  0
SPLINE
  5
1fd
100
AcDbEntity
  8
Sketch055
 62
1
100
AcDbSpline
 70
8
 71
3
 72
8
 73
4
 74
0
 40
0
 40
0
 40
0
 40
0
 40
1
 40
1
 40
1
 40
1
 10
-4318.652759
 20
3338.527343
 30
0.0
 10
-4318.652757
 20
3343.157507
 30
0.0
 10
-4321.122919
 20
3347.435956
 30
0.0
 10
-4325.132757
 20
3349.751039
 30
0.0
  0
SPLINE
  5
1fe
100
AcDbEntity
  8
Sketch055
 62
1
100
AcDbSpline
 70
8
 71
3
 72
8
 73
4
 74
0
 40
0
 40
0
 40
0
 40
0
 40
1
 40
1
 40
1
 40
1
 10
-4325.132757
 20
3349.751039
 30
0.0
 10
-4329.142596
 20
3352.066123
 30
0.0
 10
-4334.082922
 20
3352.066125
 30
0.0
 10
-4338.092763
 20
3349.751045
 30
0.0
  0
LWPOLYLINE
  5
1ff
100
AcDbEntity
  8
Sketch055
 62
1
100
AcDbPolyline
 90
2
 70
0
 10
-5396.521486
 20
3552.088688
 30
0.0
 10
-5230.245532
 20
3456.088715
 30
0.0
  0
SPLINE
  5
200
100
AcDbEntity
  8
Sketch055
 62
1
100
AcDbSpline
 70
8
 71
3
 72
8
 73
4
 74
0
 40
0
 40
0
 40
0
 40
0
 40
1
 40
1
 40
1
 40
1
 10
-4504.369636
 20
3253.751072
 30
0.0
 10
-4508.379477
 20
3251.435991
 30
0.0
 10
-4510.849641
 20
3247.157545
 30
0.0
 10
-4510.849643
 20
3242.527381
 30
0.0
  0
SPLINE
  5
201
100
AcDbEntity
  8
Sketch055
 62
1
100
AcDbSpline
 70
8
 71
3
 72
8
 73
4
 74
0
 40
0
 40
0
 40
0
 40
0
 40
1
 40
1
 40
1
 40
1
 10
-4510.849643
 20
3242.527381
 30
0.0
 10
-4510.849645
 20
3237.897217
 30
0.0
 10
-4508.379484
 20
3233.618768
 30
0.0
 10
-4504.369645
 20
3231.303684
 30
0.0
  0
SPLINE
  5
202
100
AcDbEntity
  8
Sketch055
 62
1
100
AcDbSpline
 70
8
 71
3
 72
8
 73
4
 74
0
 40
0
 40
0
 40
0
 40
0
 40
1
 40
1
 40
1
 40
1
 10
-4504.369645
 20
3231.303684
 30
0.0
 10
-4500.359807
 20
3228.988600
 30
0.0
 10
-4495.419481
 20
3228.988598
 30
0.0
 10
-4491.409640
 20
3231.303679
 30
0.0
  0
LWPOLYLINE
  5
203
100
AcDbEntity
  8
Sketch055
 62
1
100
AcDbPolyline
 90
2
 70
0
 10
-4338.092783
 20
3349.748745
 30
0.0
 10
-4504.369736
 20
3253.748772
 30
0.0
  0
SPLINE
  5
204
100
AcDbEntity
  8
Sketch055
 62
1
100
AcDbSpline
 70
8
 71
3
 72
8
 73
4
 74
0
 40
0
 40
0
 40
0
 40
0
 40
1
 40
1
 40
1
 40
1
 10
-3761.045245
 20
4046.764150
 30
0.0
 10
-3761.045245
 20
4051.394310
 30
0.0
 10
-3763.515406
 20
4055.672755
 30
0.0
 10
-3767.525243
 20
4057.987836
 30
0.0
  0
SPLINE
  5
205
100
AcDbEntity
  8
Sketch055
 62
1
100
AcDbSpline
 70
8
 71
3
 72
8
 73
4
 74
0
 40
0
 40
0
 40
0
 40
0
 40
1
 40
1
 40
1
 40
1
 10
-3767.525243
 20
4057.987836
 30
0.0
 10
-3771.535080
 20
4060.302916
 30
0.0
 10
-3776.475402
 20
4060.302916
 30
0.0
 10
-3780.485239
 20
4057.987836
 30
0.0
  0
SPLINE
  5
206
100
AcDbEntity
  8
Sketch055
 62
1
100
AcDbSpline
 70
8
 71
3
 72
8
 73
4
 74
0
 40
0
 40
0
 40
0
 40
0
 40
1
 40
1
 40
1
 40
1
 10
-3780.485239
 20
4057.987836
 30
0.0
 10
-3784.495076
 20
4055.672755
 30
0.0
 10
-3786.965237
 20
4051.394310
 30
0.0
 10
-3786.965237
 20
4046.764150
 30
0.0
  0
LWPOLYLINE
  5
207
100
AcDbEntity
  8
Sketch055
 62
1
100
AcDbPolyline
 90
2
 70
0
 10
-4491.409740
 20
3231.308778
 30
0.0
 10
-4325.132786
 20
3327.308751
 30
0.0
  0
SPLINE
  5
208
100
AcDbEntity
  8
Sketch055
 62
1
100
AcDbSpline
 70
8
 71
3
 72
8
 73
4
 74
0
 40
0
 40
0
 40
0
 40
0
 40
1
 40
1
 40
1
 40
1
 10
-3786.965237
 20
3854.764203
 30
0.0
 10
-3786.965237
 20
3850.134043
 30
0.0
 10
-3784.495076
 20
3845.855598
 30
0.0
 10
-3780.485239
 20
3843.540517
 30
0.0
  0
SPLINE
  5
209
100
AcDbEntity
  8
Sketch055
 62
1
100
AcDbSpline
 70
8
 71
3
 72
8
 73
4
 74
0
 40
0
 40
0
 40
0
 40
0
 40
1
 40
1
 40
1
 40
1
 10
-3780.485239
 20
3843.540517
 30
0.0
 10
-3776.475402
 20
3841.225437
 30
0.0
 10
-3771.535080
 20
3841.225437
 30
0.0
 10
-3767.525243
 20
3843.540517
 30
0.0
  0
SPLINE
  5
20a
100
AcDbEntity
  8
Sketch055
 62
1
100
AcDbSpline
 70
8
 71
3
 72
8
 73
4
 74
0
 40
0
 40
0
 40
0
 40
0
 40
1
 40
1
 40
1
 40
1
 10
-3767.525243
 20
3843.540517
 30
0.0
 10
-3763.515406
 20
3845.855598
 30
0.0
 10
-3761.045245
 20
3850.134043
 30
0.0
 10
-3761.045245
 20
3854.764203
 30
0.0
  0
LWPOLYLINE
  5
20b
100
AcDbEntity
  8
Sketch055
 62
1
100
AcDbPolyline
 90
2
 70
0
 10
-3786.964937
 20
4046.768550
 30
0.0
 10
-3786.964937
 20
3854.768603
 30
0.0
  0
SPLINE
  5
20c
100
AcDbEntity
  8
Sketch055
 62
1
100
AcDbSpline
 70
8
 71
3
 72
8
 73
4
 74
0
 40
0
 40
0
 40
0
 40
0
 40
1
 40
1
 40
1
 40
1
 10
-5571.272137
 20
4304.333547
 30
0.0
 10
-5571.272137
 20
4299.703387
 30
0.0
 10
-5568.801975
 20
4295.424942
 30
0.0
 10
-5564.792139
 20
4293.109861
 30
0.0
  0
SPLINE
  5
20d
100
AcDbEntity
  8
Sketch055
 62
1
100
AcDbSpline
 70
8
 71
3
 72
8
 73
4
 74
0
 40
0
 40
0
 40
0
 40
0
 40
1
 40
1
 40
1
 40
1
 10
-5564.792139
 20
4293.109861
 30
0.0
 10
-5560.782302
 20
4290.794781
 30
0.0
 10
-5555.841979
 20
4290.794781
 30
0.0
 10
-5551.832142
 20
4293.109861
 30
0.0
  0
SPLINE
  5
20e
100
AcDbEntity
  8
Sketch055
 62
1
100
AcDbSpline
 70
8
 71
3
 72
8
 73
4
 74
0
 40
0
 40
0
 40
0
 40
0
 40
1
 40
1
 40
1
 40
1
 10
-5551.832142
 20
4293.109861
 30
0.0
 10
-5547.822305
 20
4295.424942
 30
0.0
 10
-5545.352144
 20
4299.703387
 30
0.0
 10
-5545.352144
 20
4304.333547
 30
0.0
  0
LWPOLYLINE
  5
20f
100
AcDbEntity
  8
Sketch055
 62
1
100
AcDbPolyline
 90
2
 70
0
 10
-3761.044945
 20
3854.768603
 30
0.0
 10
-3761.044945
 20
4046.768550
 30
0.0
  0
SPLINE
  5
210
100
AcDbEntity
  8
Sketch055
 62
1
100
AcDbSpline
 70
8
 71
3
 72
8
 73
4
 74
0
 40
0
 40
0
 40
0
 40
0
 40
1
 40
1
 40
1
 40
1
 10
-5545.352144
 20
4496.333493
 30
0.0
 10
-5545.352144
 20
4500.963654
 30
0.0
 10
-5547.822305
 20
4505.242099
 30
0.0
 10
-5551.832142
 20
4507.557180
 30
0.0
  0
SPLINE
  5
211
100
AcDbEntity
  8
Sketch055
 62
1
100
AcDbSpline
 70
8
 71
3
 72
8
 73
4
 74
0
 40
0
 40
0
 40
0
 40
0
 40
1
 40
1
 40
1
 40
1
 10
-5551.832142
 20
4507.557180
 30
0.0
 10
-5555.841979
 20
4509.872260
 30
0.0
 10
-5560.782302
 20
4509.872260
 30
0.0
 10
-5564.792139
 20
4507.557180
 30
0.0
  0
SPLINE
  5
212
100
AcDbEntity
  8
Sketch055
 62
1
100
AcDbSpline
 70
8
 71
3
 72
8
 73
4
 74
0
 40
0
 40
0
 40
0
 40
0
 40
1
 40
1
 40
1
 40
1
 10
-5564.792139
 20
4507.557180
 30
0.0
 10
-5568.801975
 20
4505.242099
 30
0.0
 10
-5571.272137
 20
4500.963654
 30
0.0
 10
-5571.272137
 20
4496.333493
 30
0.0
  0
LWPOLYLINE
  5
213
100
AcDbEntity
  8
Sketch055
 62
1
100
AcDbPolyline
 90
2
 70
0
 10
-5545.352444
 20
4304.333477
 30
0.0
 10
-5545.352444
 20
4496.333423
 30
0.0
  0
SPLINE
  5
214
100
AcDbEntity
  8
Sketch055
 62
1
100
AcDbSpline
 70
8
 71
3
 72
8
 73
4
 74
0
 40
0
 40
0
 40
0
 40
0
 40
1
 40
1
 40
1
 40
1
 10
-5007.184615
 20
5023.794015
 30
0.0
 10
-5013.381474
 20
5020.214376
 30
0.0
 10
-5015.503977
 20
5012.289479
 30
0.0
 10
-5011.925749
 20
5006.091805
 30
0.0
  0
SPLINE
  5
215
100
AcDbEntity
  8
Sketch055
 62
1
100
AcDbSpline
 70
8
 71
3
 72
8
 73
4
 74
0
 40
0
 40
0
 40
0
 40
0
 40
1
 40
1
 40
1
 40
1
 10
-5011.925749
 20
5006.091805
 30
0.0
 10
-5008.347521
 20
4999.894132
 30
0.0
 10
-5000.423107
 20
4997.769824
 30
0.0
 10
-4994.224619
 20
5001.346642
 30
0.0
  0
LWPOLYLINE
  5
216
100
AcDbEntity
  8
Sketch055
 62
1
100
AcDbPolyline
 90
2
 70
0
 10
-5571.272437
 20
4496.333423
 30
0.0
 10
-5571.272437
 20
4304.333477
 30
0.0
  0
SPLINE
  5
217
100
AcDbEntity
  8
Sketch055
 62
1
100
AcDbSpline
 70
8
 71
3
 72
8
 73
4
 74
0
 40
0
 40
0
 40
0
 40
0
 40
1
 40
1
 40
1
 40
1
 10
-4827.947745
 20
5097.346615
 30
0.0
 10
-4821.750887
 20
5100.926254
 30
0.0
 10
-4819.628383
 20
5108.851151
 30
0.0
 10
-4823.206611
 20
5115.048825
 30
0.0
  0
SPLINE
  5
218
100
AcDbEntity
  8
Sketch055
 62
1
100
AcDbSpline
 70
8
 71
3
 72
8
 73
4
 74
0
 40
0
 40
0
 40
0
 40
0
 40
1
 40
1
 40
1
 40
1
 10
-4823.206611
 20
5115.048825
 30
0.0
 10
-4826.784840
 20
5121.246498
 30
0.0
 10
-4834.709254
 20
5123.370806
 30
0.0
 10
-4840.907742
 20
5119.793989
 30
0.0
  0
LWPOLYLINE
  5
219
100
AcDbEntity
  8
Sketch055
 62
1
100
AcDbPolyline
 90
2
 70
0
 10
-4994.224599
 20
5001.345282
 30
0.0
 10
-4827.947645
 20
5097.345255
 30
0.0
  0
SPLINE
  5
21a
100
AcDbEntity
  8
Sketch055
 62
1
100
AcDbSpline
 70
8
 71
3
 72
8
 73
4
 74
0
 40
0
 40
0
 40
0
 40
0
 40
1
 40
1
 40
1
 40
1
 10
-4102.070029
 20
4895.006652
 30
0.0
 10
-4108.268517
 20
4898.583469
 30
0.0
 10
-4116.192931
 20
4896.459161
 30
0.0
 10
-4119.771159
 20
4890.261488
 30
0.0
  0
SPLINE
  5
21b
100
AcDbEntity
  8
Sketch055
 62
1
100
AcDbSpline
 70
8
 71
3
 72
8
 73
4
 74
0
 40
0
 40
0
 40
0
 40
0
 40
1
 40
1
 40
1
 40
1
 10
-4119.771159
 20
4890.261488
 30
0.0
 10
-4123.349388
 20
4884.063814
 30
0.0
 10
-4121.226884
 20
4876.138917
 30
0.0
 10
-4115.030025
 20
4872.559278
 30
0.0
  0
LWPOLYLINE
  5
21c
100
AcDbEntity
  8
Sketch055
 62
1
100
AcDbPolyline
 90
2
 70
0
 10
-4840.907642
 20
5119.791249
 30
0.0
 10
-5007.184595
 20
5023.791275
 30
0.0
  0
SPLINE
  5
21d
100
AcDbEntity
  8
Sketch055
 62
1
100
AcDbSpline
 70
8
 71
3
 72
8
 73
4
 74
0
 40
0
 40
0
 40
0
 40
0
 40
1
 40
1
 40
1
 40
1
 10
-3948.753542
 20
4776.559305
 30
0.0
 10
-3942.555054
 20
4772.982488
 30
0.0
 10
-3934.630640
 20
4775.106795
 30
0.0
 10
-3931.052412
 20
4781.304468
 30
0.0
  0
SPLINE
  5
21e
100
AcDbEntity
  8
Sketch055
 62
1
100
AcDbSpline
 70
8
 71
3
 72
8
 73
4
 74
0
 40
0
 40
0
 40
0
 40
0
 40
1
 40
1
 40
1
 40
1
 10
-3931.052412
 20
4781.304468
 30
0.0
 10
-3927.474183
 20
4787.502142
 30
0.0
 10
-3929.596687
 20
4795.427040
 30
0.0
 10
-3935.793546
 20
4799.006679
 30
0.0
  0
LWPOLYLINE
  5
21f
100
AcDbEntity
  8
Sketch055
 62
1
100
AcDbPolyline
 90
2
 70
0
 10
-4115.031845
 20
4872.561318
 30
0.0
 10
-3948.755892
 20
4776.561345
 30
0.0
  0
LWPOLYLINE
  5
220
100
AcDbEntity
  8
Sketch055
 62
1
100
AcDbPolyline
 90
2
 70
0
 10
-3935.795896
 20
4799.008339
 30
0.0
 10
-4102.071849
 20
4895.008312
 30
0.0
  0
LWPOLYLINE
  5
221
100
AcDbEntity
  8
Sketch056
 62
1
100
AcDbPolyline
 90
4
 70
1
 10
734.233794
 20
3764.618629
 30
0.0
 10
806.233774
 20
3764.618629
 30
0.0
 10
806.233774
 20
3692.618649
 30
0.0
 10
734.233794
 20
3692.618649
 30
0.0
  0
LWPOLYLINE
  5
222
100
AcDbEntity
  8
Sketch056
 62
1
100
AcDbPolyline
 90
13
 70
1
 10
757.991787
 20
3746.618634
 30
0.0
 10
757.219788
 20
3749.498633
 30
0.0
 10
755.111788
 20
3751.608632
 30
0.0
 10
752.231789
 20
3752.378632
 30
0.0
 10
749.351790
 20
3751.608632
 30
0.0
 10
747.243790
 20
3749.498633
 30
0.0
 10
746.471791
 20
3746.618634
 30
0.0
 10
747.243790
 20
3743.738635
 30
0.0
 10
749.351790
 20
3741.628635
 30
0.0
 10
752.231789
 20
3740.858635
 30
0.0
 10
755.111788
 20
3741.628635
 30
0.0
 10
757.219788
 20
3743.738635
 30
0.0
 10
757.991787
 20
3746.618634
 30
0.0
  0
LWPOLYLINE
  5
223
100
AcDbEntity
  8
Sketch056
 62
1
100
AcDbPolyline
 90
13
 70
1
 10
757.991787
 20
3710.618644
 30
0.0
 10
757.219788
 20
3713.498643
 30
0.0
 10
755.111788
 20
3715.608643
 30
0.0
 10
752.231789
 20
3716.378642
 30
0.0
 10
749.351790
 20
3715.608643
 30
0.0
 10
747.243790
 20
3713.498643
 30
0.0
 10
746.471791
 20
3710.618644
 30
0.0
 10
747.243790
 20
3707.738645
 30
0.0
 10
749.351790
 20
3705.628645
 30
0.0
 10
752.231789
 20
3704.858646
 30
0.0
 10
755.111788
 20
3705.628645
 30
0.0
 10
757.219788
 20
3707.738645
 30
0.0
 10
757.991787
 20
3710.618644
 30
0.0
  0
LWPOLYLINE
  5
224
100
AcDbEntity
  8
Sketch056
 62
1
100
AcDbPolyline
 90
13
 70
1
 10
792.502778
 20
3746.618634
 30
0.0
 10
791.929778
 20
3748.758633
 30
0.0
 10
790.366778
 20
3750.318633
 30
0.0
 10
788.230779
 20
3750.888633
 30
0.0
 10
786.094779
 20
3750.318633
 30
0.0
 10
784.530780
 20
3748.758633
 30
0.0
 10
783.958780
 20
3746.618634
 30
0.0
 10
784.530780
 20
3744.478634
 30
0.0
 10
786.094779
 20
3742.918635
 30
0.0
 10
788.230779
 20
3742.348635
 30
0.0
 10
790.366778
 20
3742.918635
 30
0.0
 10
791.929778
 20
3744.478634
 30
0.0
 10
792.502778
 20
3746.618634
 30
0.0
  0
LWPOLYLINE
  5
225
100
AcDbEntity
  8
Sketch056
 62
1
100
AcDbPolyline
 90
13
 70
1
 10
792.502778
 20
3710.618644
 30
0.0
 10
791.929778
 20
3712.758643
 30
0.0
 10
790.366778
 20
3714.318643
 30
0.0
 10
788.230779
 20
3714.888643
 30
0.0
 10
786.094779
 20
3714.318643
 30
0.0
 10
784.530780
 20
3712.758643
 30
0.0
 10
783.958780
 20
3710.618644
 30
0.0
 10
784.530780
 20
3708.478645
 30
0.0
 10
786.094779
 20
3706.918645
 30
0.0
 10
788.230779
 20
3706.348645
 30
0.0
 10
790.366778
 20
3706.918645
 30
0.0
 10
791.929778
 20
3708.478645
 30
0.0
 10
792.502778
 20
3710.618644
 30
0.0
  0
LWPOLYLINE
  5
226
100
AcDbEntity
  8
Sketch057
 62
1
100
AcDbPolyline
 90
4
 70
1
 10
273.193923
 20
3971.962871
 30
0.0
 10
657.191816
 20
3971.962871
 30
0.0
 10
657.191816
 20
3491.963005
 30
0.0
 10
273.193923
 20
3491.963005
 30
0.0
  0
LWPOLYLINE
  5
227
100
AcDbEntity
  8
Sketch057
 62
1
100
AcDbPolyline
 90
13
 70
1
 10
327.721908
 20
3775.162926
 30
0.0
 10
326.846908
 20
3778.422925
 30
0.0
 10
324.457909
 20
3780.812924
 30
0.0
 10
321.193910
 20
3781.692924
 30
0.0
 10
317.929911
 20
3780.812924
 30
0.0
 10
315.539911
 20
3778.422925
 30
0.0
 10
314.665912
 20
3775.162926
 30
0.0
 10
315.539911
 20
3771.892927
 30
0.0
 10
317.929911
 20
3769.502927
 30
0.0
 10
321.193910
 20
3768.632928
 30
0.0
 10
324.457909
 20
3769.502927
 30
0.0
 10
326.846908
 20
3771.892927
 30
0.0
 10
327.721908
 20
3775.162926
 30
0.0
  0
LWPOLYLINE
  5
228
100
AcDbEntity
  8
Sketch057
 62
1
100
AcDbPolyline
 90
13
 70
1
 10
327.721908
 20
3695.962948
 30
0.0
 10
326.846908
 20
3699.222947
 30
0.0
 10
324.457909
 20
3701.612946
 30
0.0
 10
321.193910
 20
3702.492946
 30
0.0
 10
317.929911
 20
3701.612946
 30
0.0
 10
315.539911
 20
3699.222947
 30
0.0
 10
314.665912
 20
3695.962948
 30
0.0
 10
315.539911
 20
3692.692949
 30
0.0
 10
317.929911
 20
3690.302950
 30
0.0
 10
321.193910
 20
3689.432950
 30
0.0
 10
324.457909
 20
3690.302950
 30
0.0
 10
326.846908
 20
3692.692949
 30
0.0
 10
327.721908
 20
3695.962948
 30
0.0
  0
LWPOLYLINE
  5
229
100
AcDbEntity
  8
Sketch057
 62
1
100
AcDbPolyline
 90
13
 70
1
 10
643.464819
 20
3749.962933
 30
0.0
 10
642.892820
 20
3752.102932
 30
0.0
 10
641.328820
 20
3753.662932
 30
0.0
 10
639.192821
 20
3754.232932
 30
0.0
 10
637.056821
 20
3753.662932
 30
0.0
 10
635.492822
 20
3752.102932
 30
0.0
 10
634.920822
 20
3749.962933
 30
0.0
 10
635.492822
 20
3747.822933
 30
0.0
 10
637.056821
 20
3746.262934
 30
0.0
 10
639.192821
 20
3745.692934
 30
0.0
 10
641.328820
 20
3746.262934
 30
0.0
 10
642.892820
 20
3747.822933
 30
0.0
 10
643.464819
 20
3749.962933
 30
0.0
  0
LWPOLYLINE
  5
22a
100
AcDbEntity
  8
Sketch057
 62
1
100
AcDbPolyline
 90
13
 70
1
 10
643.464819
 20
3713.962943
 30
0.0
 10
642.892820
 20
3716.102942
 30
0.0
 10
641.328820
 20
3717.662942
 30
0.0
 10
639.192821
 20
3718.232942
 30
0.0
 10
637.056821
 20
3717.662942
 30
0.0
 10
635.492822
 20
3716.102942
 30
0.0
 10
634.920822
 20
3713.962943
 30
0.0
 10
635.492822
 20
3711.822944
 30
0.0
 10
637.056821
 20
3710.262944
 30
0.0
 10
639.192821
 20
3709.692944
 30
0.0
 10
641.328820
 20
3710.262944
 30
0.0
 10
642.892820
 20
3711.822944
 30
0.0
 10
643.464819
 20
3713.962943
 30
0.0
  0
LWPOLYLINE
  5
22b
100
AcDbEntity
  8
Sketch058
 62
1
100
AcDbPolyline
 90
4
 70
1
 10
-251.676929
 20
4175.548513
 30
0.0
 10
869.940756
 20
4175.548513
 30
0.0
 10
869.940756
 20
5327.548190
 30
0.0
 10
-251.676929
 20
5327.548190
 30
0.0
  0
LWPOLYLINE
  5
22c
100
AcDbEntity
  8
Sketch058
 62
1
100
AcDbPolyline
 90
25
 70
1
 10
811.857772
 20
5279.548204
 30
0.0
 10
811.570772
 20
5282.348203
 30
0.0
 10
810.756773
 20
5284.958202
 30
0.0
 10
807.771773
 20
5289.368201
 30
0.0
 10
803.349775
 20
5292.348200
 30
0.0
 10
800.739775
 20
5293.158200
 30
0.0
 10
797.937776
 20
5293.438200
 30
0.0
 10
795.134777
 20
5293.158200
 30
0.0
 10
792.524778
 20
5292.348200
 30
0.0
 10
788.102779
 20
5289.368201
 30
0.0
 10
785.117780
 20
5284.958202
 30
0.0
 10
784.303780
 20
5282.348203
 30
0.0
 10
784.017780
 20
5279.548204
 30
0.0
 10
784.303780
 20
5276.738204
 30
0.0
 10
785.117780
 20
5274.138205
 30
0.0
 10
788.102779
 20
5269.718206
 30
0.0
 10
792.524778
 20
5266.738207
 30
0.0
 10
795.134777
 20
5265.928208
 30
0.0
 10
797.937776
 20
5265.648208
 30
0.0
 10
800.739775
 20
5265.928208
 30
0.0
 10
803.349775
 20
5266.738207
 30
0.0
 10
807.771773
 20
5269.718206
 30
0.0
 10
810.756773
 20
5274.138205
 30
0.0
 10
811.570772
 20
5276.738204
 30
0.0
 10
811.857772
 20
5279.548204
 30
0.0
  0
LWPOLYLINE
  5
22d
100
AcDbEntity
  8
Sketch058
 62
1
100
AcDbPolyline
 90
25
 70
1
 10
-189.756947
 20
5279.548204
 30
0.0
 10
-190.043947
 20
5282.348203
 30
0.0
 10
-190.856946
 20
5284.958202
 30
0.0
 10
-193.841946
 20
5289.368201
 30
0.0
 10
-198.263944
 20
5292.348200
 30
0.0
 10
-200.874944
 20
5293.158200
 30
0.0
 10
-203.676943
 20
5293.438200
 30
0.0
 10
-206.478942
 20
5293.158200
 30
0.0
 10
-209.089941
 20
5292.348200
 30
0.0
 10
-213.511940
 20
5289.368201
 30
0.0
 10
-216.495939
 20
5284.958202
 30
0.0
 10
-217.309939
 20
5282.348203
 30
0.0
 10
-217.596939
 20
5279.548204
 30
0.0
 10
-217.309939
 20
5276.738204
 30
0.0
 10
-216.495939
 20
5274.138205
 30
0.0
 10
-213.511940
 20
5269.718206
 30
0.0
 10
-209.089941
 20
5266.738207
 30
0.0
 10
-206.478942
 20
5265.928208
 30
0.0
 10
-203.676943
 20
5265.648208
 30
0.0
 10
-200.874944
 20
5265.928208
 30
0.0
 10
-198.263944
 20
5266.738207
 30
0.0
 10
-193.841946
 20
5269.718206
 30
0.0
 10
-190.856946
 20
5274.138205
 30
0.0
 10
-190.043947
 20
5276.738204
 30
0.0
 10
-189.756947
 20
5279.548204
 30
0.0
  0
LWPOLYLINE
  5
22e
100
AcDbEntity
  8
Sketch058
 62
1
100
AcDbPolyline
 90
9
 70
0
 10
-2.869349
 20
4236.508496
 30
0.0
 10
-7.906858
 20
4235.488497
 30
0.0
 10
-12.019097
 20
4232.708497
 30
0.0
 10
-14.790996
 20
4228.588499
 30
0.0
 10
-15.807196
 20
4223.548500
 30
0.0
 10
-14.790996
 20
4218.508501
 30
0.0
 10
-12.019097
 20
4214.388503
 30
0.0
 10
-7.906858
 20
4211.618503
 30
0.0
 10
-2.869349
 20
4210.588504
 30
0.0
  0
LWPOLYLINE
  5
22f
100
AcDbEntity
  8
Sketch058
 62
1
100
AcDbPolyline
 90
2
 70
0
 10
-2.869159
 20
4210.578504
 30
0.0
 10
93.130574
 20
4210.578504
 30
0.0
  0
LWPOLYLINE
  5
230
100
AcDbEntity
  8
Sketch058
 62
1
100
AcDbPolyline
 90
9
 70
0
 10
93.130974
 20
4210.578504
 30
0.0
 10
98.168472
 20
4211.608503
 30
0.0
 10
102.280971
 20
4214.388503
 30
0.0
 10
105.052971
 20
4218.498501
 30
0.0
 10
106.068970
 20
4223.538500
 30
0.0
 10
105.052971
 20
4228.578499
 30
0.0
 10
102.280971
 20
4232.698497
 30
0.0
 10
98.168472
 20
4235.478497
 30
0.0
 10
93.130974
 20
4236.498496
 30
0.0
  0
LWPOLYLINE
  5
231
100
AcDbEntity
  8
Sketch058
 62
1
100
AcDbPolyline
 90
2
 70
0
 10
93.130574
 20
4236.508496
 30
0.0
 10
-2.869159
 20
4236.508496
 30
0.0
  0
LWPOLYLINE
  5
232
100
AcDbEntity
  8
Sketch058
 62
1
100
AcDbPolyline
 90
9
 70
0
 10
525.127853
 20
4236.508496
 30
0.0
 10
520.089854
 20
4235.488497
 30
0.0
 10
515.977855
 20
4232.708497
 30
0.0
 10
513.205856
 20
4228.588499
 30
0.0
 10
512.189856
 20
4223.548500
 30
0.0
 10
513.205856
 20
4218.508501
 30
0.0
 10
515.977855
 20
4214.388503
 30
0.0
 10
520.089854
 20
4211.618503
 30
0.0
 10
525.127853
 20
4210.588504
 30
0.0
  0
LWPOLYLINE
  5
233
100
AcDbEntity
  8
Sketch058
 62
1
100
AcDbPolyline
 90
10
 70
0
 10
525.127853
 20
4210.578504
 30
0.0
 10
621.127826
 20
4210.578504
 30
0.0
 10
626.164824
 20
4211.608503
 30
0.0
 10
630.276823
 20
4214.388503
 30
0.0
 10
633.048822
 20
4218.498501
 30
0.0
 10
634.064822
 20
4223.538500
 30
0.0
 10
633.048822
 20
4228.578499
 30
0.0
 10
630.276823
 20
4232.698497
 30
0.0
 10
626.164824
 20
4235.478497
 30
0.0
 10
621.127826
 20
4236.498496
 30
0.0
  0
LWPOLYLINE
  5
234
100
AcDbEntity
  8
Sketch058
 62
1
100
AcDbPolyline
 90
2
 70
0
 10
621.127826
 20
4236.508496
 30
0.0
 10
525.127853
 20
4236.508496
 30
0.0
  0
LWPOLYLINE
  5
235
100
AcDbEntity
  8
Sketch059
 62
1
100
AcDbPolyline
 90
25
 70
1
 10
1269.704763
 20
4994.800560
 30
0.0
 10
1268.062276
 20
4997.085430
 30
0.0
 10
1266.047137
 20
4998.935754
 30
0.0
 10
1261.256383
 20
5001.273584
 30
0.0
 10
1255.943554
 20
5001.635678
 30
0.0
 10
1253.278230
 20
5001.032159
 30
0.0
 10
1250.704700
 20
4999.869646
 30
0.0
 10
1248.419831
 20
4998.227160
 30
0.0
 10
1246.564506
 20
4996.220680
 30
0.0
 10
1244.221676
 20
4991.438587
 30
0.0
 10
1243.842262
 20
4986.115758
 30
0.0
 10
1244.445781
 20
4983.450434
 30
0.0
 10
1245.594634
 20
4980.880564
 30
0.0
 10
1247.245781
 20
4978.600695
 30
0.0
 10
1249.252260
 20
4976.745370
 30
0.0
 10
1254.051674
 20
4974.412540
 30
0.0
 10
1259.369503
 20
4974.041786
 30
0.0
 10
1262.034827
 20
4974.645305
 30
0.0
 10
1264.599696
 20
4975.802818
 30
0.0
 10
1266.893226
 20
4977.450305
 30
0.0
 10
1268.748551
 20
4979.456784
 30
0.0
 10
1271.086381
 20
4984.247538
 30
0.0
 10
1271.457135
 20
4989.565367
 30
0.0
 10
1270.862276
 20
4992.235691
 30
0.0
 10
1269.704763
 20
4994.800560
 30
0.0
  0
LWPOLYLINE
  5
236
100
AcDbEntity
  8
Sketch059
 62
1
100
AcDbPolyline
 90
25
 70
1
 10
3186.201899
 20
4994.788444
 30
0.0
 10
3184.559412
 20
4997.073313
 30
0.0
 10
3182.544272
 20
4998.923638
 30
0.0
 10
3177.758519
 20
5001.252808
 30
0.0
 10
3172.440690
 20
5001.623562
 30
0.0
 10
3169.775365
 20
5001.020042
 30
0.0
 10
3167.201836
 20
4999.857530
 30
0.0
 10
3164.916966
 20
4998.215043
 30
0.0
 10
3163.061642
 20
4996.208563
 30
0.0
 10
3160.723812
 20
4991.417810
 30
0.0
 10
3160.339397
 20
4986.103642
 30
0.0
 10
3160.942917
 20
4983.438317
 30
0.0
 10
3162.091769
 20
4980.868448
 30
0.0
 10
3163.747916
 20
4978.579918
 30
0.0
 10
3165.749396
 20
4976.733254
 30
0.0
 10
3170.548809
 20
4974.400424
 30
0.0
 10
3175.866638
 20
4974.029669
 30
0.0
 10
3178.531963
 20
4974.633189
 30
0.0
 10
3181.096832
 20
4975.790702
 30
0.0
 10
3183.390362
 20
4977.438188
 30
0.0
 10
3185.245686
 20
4979.444668
 30
0.0
 10
3187.583516
 20
4984.235421
 30
0.0
 10
3187.954271
 20
4989.553250
 30
0.0
 10
3187.364411
 20
4992.214914
 30
0.0
 10
3186.201899
 20
4994.788444
 30
0.0
  0
LWPOLYLINE
  5
237
100
AcDbEntity
  8
Sketch059
 62
1
100
AcDbPolyline
 90
25
 70
1
 10
2676.248251
 20
5883.633653
 30
0.0
 10
2674.597105
 20
5885.913522
 30
0.0
 10
2672.590625
 20
5887.768847
 30
0.0
 10
2667.791211
 20
5890.101677
 30
0.0
 10
2662.473382
 20
5890.472431
 30
0.0
 10
2659.813058
 20
5889.860251
 30
0.0
 10
2657.243189
 20
5888.711399
 30
0.0
 10
2654.963319
 20
5887.060252
 30
0.0
 10
2653.102995
 20
5885.062433
 30
0.0
 10
2650.756504
 20
5880.266680
 30
0.0
 10
2650.385750
 20
5874.948851
 30
0.0
 10
2650.989270
 20
5872.283526
 30
0.0
 10
2652.138122
 20
5869.713657
 30
0.0
 10
2653.789269
 20
5867.433787
 30
0.0
 10
2655.795749
 20
5865.578463
 30
0.0
 10
2660.586502
 20
5863.240633
 30
0.0
 10
2665.912991
 20
5862.874879
 30
0.0
 10
2668.578315
 20
5863.478398
 30
0.0
 10
2671.143185
 20
5864.635911
 30
0.0
 10
2673.428054
 20
5866.278397
 30
0.0
 10
2675.283379
 20
5868.284877
 30
0.0
 10
2677.621209
 20
5873.075630
 30
0.0
 10
2678.000623
 20
5878.398459
 30
0.0
 10
2677.397104
 20
5881.063784
 30
0.0
 10
2676.248251
 20
5883.633653
 30
0.0
  0
LWPOLYLINE
  5
238
100
AcDbEntity
  8
Sketch059
 62
1
100
AcDbPolyline
 90
25
 70
1
 10
1779.643751
 20
5883.619000
 30
0.0
 10
1777.992604
 20
5885.898870
 30
0.0
 10
1775.986124
 20
5887.754194
 30
0.0
 10
1771.195371
 20
5890.092024
 30
0.0
 10
1765.873882
 20
5890.449118
 30
0.0
 10
1763.208557
 20
5889.845599
 30
0.0
 10
1760.638688
 20
5888.696746
 30
0.0
 10
1758.358819
 20
5887.045599
 30
0.0
 10
1756.503494
 20
5885.039120
 30
0.0
 10
1754.160664
 20
5880.257027
 30
0.0
 10
1753.781249
 20
5874.934198
 30
0.0
 10
1754.384769
 20
5872.268873
 30
0.0
 10
1755.533621
 20
5869.699004
 30
0.0
 10
1757.184768
 20
5867.419135
 30
0.0
 10
1759.191248
 20
5865.563810
 30
0.0
 10
1763.990661
 20
5863.230980
 30
0.0
 10
1769.308490
 20
5862.860226
 30
0.0
 10
1771.973815
 20
5863.463745
 30
0.0
 10
1774.538684
 20
5864.621258
 30
0.0
 10
1776.823553
 20
5866.263745
 30
0.0
 10
1778.678878
 20
5868.270224
 30
0.0
 10
1781.025368
 20
5873.065977
 30
0.0
 10
1781.396123
 20
5878.383806
 30
0.0
 10
1780.792603
 20
5881.049131
 30
0.0
 10
1779.643751
 20
5883.619000
 30
0.0
  0
LWPOLYLINE
  5
239
100
AcDbEntity
  8
Sketch059
 62
1
100
AcDbPolyline
 90
2
 70
0
 10
1160.040048
 20
4931.485578
 30
0.0
 10
1536.553518
 20
4802.224909
 30
0.0
  0
LWPOLYLINE
  5
23a
100
AcDbEntity
  8
Sketch059
 62
1
100
AcDbPolyline
 90
4
 70
0
 10
1160.040048
 20
4931.485578
 30
0.0
 10
1736.653695
 20
5930.239954
 30
0.0
 10
2695.126137
 20
5930.236133
 30
0.0
 10
3271.750976
 20
4931.493082
 30
0.0
  0
LWPOLYLINE
  5
23b
100
AcDbEntity
  8
Sketch059
 62
1
100
AcDbPolyline
 90
2
 70
0
 10
2895.240114
 20
4802.229486
 30
0.0
 10
3271.750976
 20
4931.493082
 30
0.0
  0
LWPOLYLINE
  5
23c
100
AcDbEntity
  8
Sketch059
 62
1
100
AcDbPolyline
 90
2
 70
0
 10
1536.558518
 20
4802.216249
 30
0.0
 10
2895.245114
 20
4802.220826
 30
0.0
  0
LWPOLYLINE
  5
23d
100
AcDbEntity
  8
Sketch059
 62
1
100
AcDbPolyline
 90
13
 70
1
 10
2757.672886
 20
4830.423008
 30
0.0
 10
2756.109252
 20
4831.991301
 30
0.0
 10
2753.978254
 20
4832.562300
 30
0.0
 10
2751.839961
 20
4831.985934
 30
0.0
 10
2750.271668
 20
4830.422300
 30
0.0
 10
2749.700669
 20
4828.291302
 30
0.0
 10
2750.277035
 20
4826.153009
 30
0.0
 10
2751.840669
 20
4824.584716
 30
0.0
 10
2753.971667
 20
4824.013717
 30
0.0
 10
2756.109960
 20
4824.590083
 30
0.0
 10
2757.678253
 20
4826.153717
 30
0.0
 10
2758.249252
 20
4828.284715
 30
0.0
 10
2757.672886
 20
4830.423008
 30
0.0
  0
LWPOLYLINE
  5
23e
100
AcDbEntity
  8
Sketch059
 62
1
100
AcDbPolyline
 90
17
 70
1
 10
2872.876168
 20
4830.424968
 30
0.0
 10
2871.751720
 20
4831.692569
 30
0.0
 10
2870.283638
 20
4832.415363
 30
0.0
 10
2868.645844
 20
4832.532106
 30
0.0
 10
2867.034583
 20
4831.982894
 30
0.0
 10
2865.761982
 20
4830.867106
 30
0.0
 10
2865.044188
 20
4829.390364
 30
0.0
 10
2864.936105
 20
4827.757570
 30
0.0
 10
2865.471656
 20
4826.149969
 30
0.0
 10
2866.596105
 20
4824.882368
 30
0.0
 10
2868.064187
 20
4824.159574
 30
0.0
 10
2869.701981
 20
4824.042831
 30
0.0
 10
2871.304582
 20
4824.587043
 30
0.0
 10
2872.585843
 20
4825.707831
 30
0.0
 10
2873.303637
 20
4827.184573
 30
0.0
 10
2873.411720
 20
4828.817367
 30
0.0
 10
2872.876168
 20
4830.424968
 30
0.0
  0
LWPOLYLINE
  5
23f
100
AcDbEntity
  8
Sketch059
 62
1
100
AcDbPolyline
 90
25
 70
1
 10
2526.597366
 20
4875.077711
 30
0.0
 10
2521.592061
 20
4881.587152
 30
0.0
 10
2515.177385
 20
4886.497697
 30
0.0
 10
2507.720204
 20
4889.593917
 30
0.0
 10
2499.577384
 20
4890.677702
 30
0.0
 10
2491.439256
 20
4889.593360
 30
0.0
 10
2483.977398
 20
4886.497687
 30
0.0
 10
2477.565540
 20
4881.583363
 30
0.0
 10
2472.557411
 20
4875.077706
 30
0.0
 10
2469.424590
 20
4867.483923
 30
0.0
 10
2468.377407
 20
4859.477705
 30
0.0
 10
2469.422729
 20
4851.467161
 30
0.0
 10
2472.557421
 20
4843.877719
 30
0.0
 10
2477.567727
 20
4837.359618
 30
0.0
 10
2483.977403
 20
4832.457733
 30
0.0
 10
2491.439583
 20
4829.352853
 30
0.0
 10
2499.577404
 20
4828.277728
 30
0.0
 10
2507.720531
 20
4829.353410
 30
0.0
 10
2515.177390
 20
4832.457743
 30
0.0
 10
2521.594248
 20
4837.363407
 30
0.0
 10
2526.597376
 20
4843.877724
 30
0.0
 10
2529.735198
 20
4851.462847
 30
0.0
 10
2530.777381
 20
4859.477725
 30
0.0
 10
2529.737058
 20
4867.479609
 30
0.0
 10
2526.597366
 20
4875.077711
 30
0.0
  0
LWPOLYLINE
  5
240
100
AcDbEntity
  8
Sketch059
 62
1
100
AcDbPolyline
 90
33
 70
0
 10
2215.412366
 20
4906.286187
 30
0.0
 10
2209.495911
 20
4902.373798
 30
0.0
 10
2204.426583
 20
4897.634140
 30
0.0
 10
2200.259646
 20
4892.191496
 30
0.0
 10
2197.045363
 20
4886.178807
 30
0.0
 10
2194.847655
 20
4879.725357
 30
0.0
 10
2193.716786
 20
4872.964087
 30
0.0
 10
2193.703019
 20
4866.027938
 30
0.0
 10
2194.875277
 20
4859.037534
 30
0.0
 10
2197.203463
 20
4852.345002
 30
0.0
 10
2200.543558
 20
4846.259791
 30
0.0
 10
2204.787262
 20
4840.869482
 30
0.0
 10
2209.812611
 20
4836.265321
 30
0.0
 10
2215.511307
 20
4832.534890
 30
0.0
 10
2221.788706
 20
4829.762112
 30
0.0
 10
2228.500528
 20
4828.036892
 30
0.0
 10
2235.565791
 20
4827.439491
 30
0.0
 10
2242.635670
 20
4828.034095
 30
0.0
 10
2249.350715
 20
4829.763288
 30
0.0
 10
2255.622004
 20
4832.541089
 30
0.0
 10
2261.325972
 20
4836.261517
 30
0.0
 10
2266.353697
 20
4840.873233
 30
0.0
 10
2270.591615
 20
4846.252935
 30
0.0
 10
2273.935803
 20
4852.340623
 30
0.0
 10
2276.257696
 20
4859.038977
 30
0.0
 10
2277.433468
 20
4866.022472
 30
0.0
 10
2277.419915
 20
4872.965940
 30
0.0
 10
2276.288375
 20
4879.725819
 30
0.0
 10
2274.086529
 20
4886.179524
 30
0.0
 10
2270.872055
 20
4892.187153
 30
0.0
 10
2266.701294
 20
4897.631121
 30
0.0
 10
2261.640585
 20
4902.376526
 30
0.0
 10
2255.725288
 20
4906.282123
 30
0.0
  0
LWPOLYLINE
  5
241
100
AcDbEntity
  8
Sketch059
 62
1
100
AcDbPolyline
 90
2
 70
0
 10
2255.738170
 20
4912.859804
 30
0.0
 10
2255.743948
 20
4906.269803
 30
0.0
  0
LWPOLYLINE
  5
242
100
AcDbEntity
  8
Sketch059
 62
1
100
AcDbPolyline
 90
2
 70
0
 10
2215.406589
 20
4912.876188
 30
0.0
 10
2255.728170
 20
4912.877124
 30
0.0
  0
LWPOLYLINE
  5
243
100
AcDbEntity
  8
Sketch059
 62
1
100
AcDbPolyline
 90
2
 70
0
 10
2215.412366
 20
4906.286187
 30
0.0
 10
2215.406589
 20
4912.876188
 30
0.0
  0
LWPOLYLINE
  5
244
100
AcDbEntity
  8
Sketch059
 62
1
100
AcDbPolyline
 90
13
 70
1
 10
2208.553586
 20
4919.565937
 30
0.0
 10
2206.989952
 20
4921.134230
 30
0.0
 10
2204.858954
 20
4921.705229
 30
0.0
 10
2202.720661
 20
4921.128863
 30
0.0
 10
2201.152368
 20
4919.565229
 30
0.0
 10
2200.581369
 20
4917.434231
 30
0.0
 10
2201.157734
 20
4915.295938
 30
0.0
 10
2202.716368
 20
4913.736305
 30
0.0
 10
2204.852367
 20
4913.156646
 30
0.0
 10
2206.990660
 20
4913.733012
 30
0.0
 10
2208.558953
 20
4915.296646
 30
0.0
 10
2209.124951
 20
4917.436304
 30
0.0
 10
2208.553586
 20
4919.565937
 30
0.0
  0
LWPOLYLINE
  5
245
100
AcDbEntity
  8
Sketch059
 62
1
100
AcDbPolyline
 90
13
 70
1
 10
2270.005559
 20
4823.548037
 30
0.0
 10
2268.441925
 20
4825.116330
 30
0.0
 10
2266.310927
 20
4825.687329
 30
0.0
 10
2264.167634
 20
4825.119623
 30
0.0
 10
2262.604341
 20
4823.547329
 30
0.0
 10
2262.033342
 20
4821.416331
 30
0.0
 10
2262.609707
 20
4819.278038
 30
0.0
 10
2264.168341
 20
4817.718405
 30
0.0
 10
2266.304340
 20
4817.138746
 30
0.0
 10
2268.442633
 20
4817.715112
 30
0.0
 10
2270.010926
 20
4819.278746
 30
0.0
 10
2270.576924
 20
4821.418404
 30
0.0
 10
2270.005559
 20
4823.548037
 30
0.0
  0
LWPOLYLINE
  5
246
100
AcDbEntity
  8
Sketch059
 62
1
100
AcDbPolyline
 90
33
 70
0
 10
2335.419651
 20
4906.267367
 30
0.0
 10
2329.503195
 20
4902.354977
 30
0.0
 10
2324.433868
 20
4897.615319
 30
0.0
 10
2320.266931
 20
4892.172675
 30
0.0
 10
2317.052647
 20
4886.159987
 30
0.0
 10
2314.854939
 20
4879.706536
 30
0.0
 10
2313.719071
 20
4872.953926
 30
0.0
 10
2313.710304
 20
4866.009118
 30
0.0
 10
2314.882561
 20
4859.018714
 30
0.0
 10
2317.210747
 20
4852.326182
 30
0.0
 10
2320.550843
 20
4846.240970
 30
0.0
 10
2324.794546
 20
4840.850662
 30
0.0
 10
2329.819896
 20
4836.246501
 30
0.0
 10
2335.518591
 20
4832.516070
 30
0.0
 10
2341.790990
 20
4829.751952
 30
0.0
 10
2348.516473
 20
4828.023071
 30
0.0
 10
2355.573076
 20
4827.420670
 30
0.0
 10
2362.637954
 20
4828.023935
 30
0.0
 10
2369.357999
 20
4829.744467
 30
0.0
 10
2375.629288
 20
4832.522268
 30
0.0
 10
2381.336917
 20
4836.256357
 30
0.0
 10
2386.360982
 20
4840.854412
 30
0.0
 10
2390.607560
 20
4846.239114
 30
0.0
 10
2393.943087
 20
4852.321803
 30
0.0
 10
2396.264980
 20
4859.020157
 30
0.0
 10
2397.435753
 20
4866.012311
 30
0.0
 10
2397.435860
 20
4872.952120
 30
0.0
 10
2396.295660
 20
4879.706998
 30
0.0
 10
2394.093813
 20
4886.160704
 30
0.0
 10
2390.888000
 20
4892.173332
 30
0.0
 10
2386.717239
 20
4897.617301
 30
0.0
 10
2381.647870
 20
4902.357706
 30
0.0
 10
2375.741232
 20
4906.268303
 30
0.0
  0
LWPOLYLINE
  5
247
100
AcDbEntity
  8
Sketch059
 62
1
100
AcDbPolyline
 90
2
 70
0
 10
2375.725455
 20
4912.875624
 30
0.0
 10
2375.731232
 20
4906.285623
 30
0.0
  0
LWPOLYLINE
  5
248
100
AcDbEntity
  8
Sketch059
 62
1
100
AcDbPolyline
 90
2
 70
0
 10
2335.422533
 20
4912.862368
 30
0.0
 10
2375.735455
 20
4912.858304
 30
0.0
  0
LWPOLYLINE
  5
249
100
AcDbEntity
  8
Sketch059
 62
1
100
AcDbPolyline
 90
2
 70
0
 10
2335.419651
 20
4906.267367
 30
0.0
 10
2335.422533
 20
4912.862368
 30
0.0
  0
LWPOLYLINE
  5
24a
100
AcDbEntity
  8
Sketch059
 62
1
100
AcDbPolyline
 90
17
 70
1
 10
2328.560870
 20
4919.547116
 30
0.0
 10
2327.440082
 20
4920.828378
 30
0.0
 10
2325.968340
 20
4921.537511
 30
0.0
 10
2324.339206
 20
4921.659254
 30
0.0
 10
2322.727945
 20
4921.110043
 30
0.0
 10
2321.455344
 20
4919.994255
 30
0.0
 10
2320.737550
 20
4918.517512
 30
0.0
 10
2320.624467
 20
4916.893379
 30
0.0
 10
2321.165019
 20
4915.277118
 30
0.0
 10
2322.289467
 20
4914.009516
 30
0.0
 10
2323.757549
 20
4913.286723
 30
0.0
 10
2325.390343
 20
4913.178640
 30
0.0
 10
2326.997944
 20
4913.714191
 30
0.0
 10
2328.274205
 20
4914.843640
 30
0.0
 10
2328.988339
 20
4916.306722
 30
0.0
 10
2329.105082
 20
4917.944515
 30
0.0
 10
2328.560870
 20
4919.547116
 30
0.0
  0
LWPOLYLINE
  5
24b
100
AcDbEntity
  8
Sketch059
 62
1
100
AcDbPolyline
 90
17
 70
1
 10
2389.992843
 20
4823.563857
 30
0.0
 10
2388.872055
 20
4824.845119
 30
0.0
 10
2387.400313
 20
4825.554252
 30
0.0
 10
2385.762519
 20
4825.670995
 30
0.0
 10
2384.154918
 20
4825.135444
 30
0.0
 10
2382.887317
 20
4824.010996
 30
0.0
 10
2382.169523
 20
4822.534253
 30
0.0
 10
2382.047780
 20
4820.905120
 30
0.0
 10
2382.596992
 20
4819.293859
 30
0.0
 10
2383.712780
 20
4818.021257
 30
0.0
 10
2385.189522
 20
4817.303464
 30
0.0
 10
2386.822316
 20
4817.195381
 30
0.0
 10
2388.429917
 20
4817.730932
 30
0.0
 10
2389.697518
 20
4818.855380
 30
0.0
 10
2390.420312
 20
4820.323463
 30
0.0
 10
2390.537055
 20
4821.961256
 30
0.0
 10
2389.992843
 20
4823.563857
 30
0.0
  0
LWPOLYLINE
  5
24c
100
AcDbEntity
  8
Sketch059
 62
1
100
AcDbPolyline
 90
13
 70
1
 10
2589.684956
 20
4830.406787
 30
0.0
 10
2588.121322
 20
4831.975081
 30
0.0
 10
2585.990324
 20
4832.546079
 30
0.0
 10
2583.852031
 20
4831.969714
 30
0.0
 10
2582.292398
 20
4830.411080
 30
0.0
 10
2581.712739
 20
4828.275082
 30
0.0
 10
2582.289105
 20
4826.136789
 30
0.0
 10
2583.847739
 20
4824.577156
 30
0.0
 10
2585.992397
 20
4824.002497
 30
0.0
 10
2588.122030
 20
4824.573862
 30
0.0
 10
2589.690323
 20
4826.137496
 30
0.0
 10
2590.256322
 20
4828.277155
 30
0.0
 10
2589.684956
 20
4830.406787
 30
0.0
  0
LWPOLYLINE
  5
24d
100
AcDbEntity
  8
Sketch059
 62
1
100
AcDbPolyline
 90
13
 70
1
 10
2704.888238
 20
4830.408747
 30
0.0
 10
2703.324604
 20
4831.977041
 30
0.0
 10
2701.184946
 20
4832.543039
 30
0.0
 10
2699.055313
 20
4831.971674
 30
0.0
 10
2697.487020
 20
4830.408040
 30
0.0
 10
2696.916021
 20
4828.277042
 30
0.0
 10
2697.483726
 20
4826.133749
 30
0.0
 10
2699.051020
 20
4824.579116
 30
0.0
 10
2701.187019
 20
4823.999457
 30
0.0
 10
2703.325312
 20
4824.575822
 30
0.0
 10
2704.884945
 20
4826.134456
 30
0.0
 10
2705.459604
 20
4828.279115
 30
0.0
 10
2704.888238
 20
4830.408747
 30
0.0
  0
LWPOLYLINE
  5
24e
100
AcDbEntity
  8
Sketch060
 62
1
100
AcDbPolyline
 90
25
 70
1
 10
-969.561728
 20
5588.978117
 30
0.0
 10
-969.848728
 20
5591.778116
 30
0.0
 10
-970.662728
 20
5594.388115
 30
0.0
 10
-973.646727
 20
5598.798114
 30
0.0
 10
-978.068726
 20
5601.778113
 30
0.0
 10
-980.679725
 20
5602.588113
 30
0.0
 10
-983.481724
 20
5602.868113
 30
0.0
 10
-986.283723
 20
5602.588113
 30
0.0
 10
-988.894723
 20
5601.778113
 30
0.0
 10
-993.316721
 20
5598.798114
 30
0.0
 10
-996.301720
 20
5594.388115
 30
0.0
 10
-997.114720
 20
5591.778116
 30
0.0
 10
-997.401720
 20
5588.978117
 30
0.0
 10
-997.114720
 20
5586.168118
 30
0.0
 10
-996.301720
 20
5583.568118
 30
0.0
 10
-993.316721
 20
5579.148120
 30
0.0
 10
-988.894723
 20
5576.168120
 30
0.0
 10
-986.283723
 20
5575.358121
 30
0.0
 10
-983.481724
 20
5575.078121
 30
0.0
 10
-980.679725
 20
5575.358121
 30
0.0
 10
-978.068726
 20
5576.168120
 30
0.0
 10
-973.646727
 20
5579.148120
 30
0.0
 10
-970.662728
 20
5583.568118
 30
0.0
 10
-969.848728
 20
5586.168118
 30
0.0
 10
-969.561728
 20
5588.978117
 30
0.0
  0
LWPOLYLINE
  5
24f
100
AcDbEntity
  8
Sketch060
 62
1
100
AcDbPolyline
 90
25
 70
1
 10
-1964.939449
 20
5588.978117
 30
0.0
 10
-1965.229449
 20
5591.778116
 30
0.0
 10
-1966.039448
 20
5594.388115
 30
0.0
 10
-1969.019448
 20
5598.798114
 30
0.0
 10
-1973.449446
 20
5601.778113
 30
0.0
 10
-1976.059446
 20
5602.588113
 30
0.0
 10
-1978.859445
 20
5602.868113
 30
0.0
 10
-1981.659444
 20
5602.588113
 30
0.0
 10
-1984.269443
 20
5601.778113
 30
0.0
 10
-1988.689442
 20
5598.798114
 30
0.0
 10
-1991.679441
 20
5594.388115
 30
0.0
 10
-1992.489441
 20
5591.778116
 30
0.0
 10
-1992.779441
 20
5588.978117
 30
0.0
 10
-1992.489441
 20
5586.168118
 30
0.0
 10
-1991.679441
 20
5583.568118
 30
0.0
 10
-1988.689442
 20
5579.148120
 30
0.0
 10
-1984.269443
 20
5576.168120
 30
0.0
 10
-1981.659444
 20
5575.358121
 30
0.0
 10
-1978.859445
 20
5575.078121
 30
0.0
 10
-1976.059446
 20
5575.358121
 30
0.0
 10
-1973.449446
 20
5576.168120
 30
0.0
 10
-1969.019448
 20
5579.148120
 30
0.0
 10
-1966.039448
 20
5583.568118
 30
0.0
 10
-1965.229449
 20
5586.168118
 30
0.0
 10
-1964.939449
 20
5588.978117
 30
0.0
  0
LWPOLYLINE
  5
250
100
AcDbEntity
  8
Sketch060
 62
1
100
AcDbPolyline
 90
4
 70
1
 10
-2026.859431
 20
4484.978427
 30
0.0
 10
-905.237746
 20
4484.978427
 30
0.0
 10
-905.237746
 20
5636.978103
 30
0.0
 10
-2026.859431
 20
5636.978103
 30
0.0
  0
LWPOLYLINE
  5
251
100
AcDbEntity
  8
Sketch060
 62
1
100
AcDbPolyline
 90
9
 70
0
 10
-1202.049663
 20
4520.008417
 30
0.0
 10
-1197.009664
 20
4521.038417
 30
0.0
 10
-1192.899665
 20
4523.818416
 30
0.0
 10
-1190.129666
 20
4527.928415
 30
0.0
 10
-1189.109666
 20
4532.968413
 30
0.0
 10
-1190.129666
 20
4538.008412
 30
0.0
 10
-1192.899665
 20
4542.128411
 30
0.0
 10
-1197.009664
 20
4544.908410
 30
0.0
 10
-1202.049663
 20
4545.928410
 30
0.0
  0
LWPOLYLINE
  5
252
100
AcDbEntity
  8
Sketch060
 62
1
100
AcDbPolyline
 90
10
 70
0
 10
-1202.049663
 20
4545.938410
 30
0.0
 10
-1298.049636
 20
4545.938410
 30
0.0
 10
-1303.089634
 20
4544.918410
 30
0.0
 10
-1307.199633
 20
4542.138411
 30
0.0
 10
-1309.969632
 20
4538.018412
 30
0.0
 10
-1310.989632
 20
4532.978413
 30
0.0
 10
-1309.969632
 20
4527.938415
 30
0.0
 10
-1307.199633
 20
4523.818416
 30
0.0
 10
-1303.089634
 20
4521.048417
 30
0.0
 10
-1298.049636
 20
4520.018417
 30
0.0
  0
LWPOLYLINE
  5
253
100
AcDbEntity
  8
Sketch060
 62
1
100
AcDbPolyline
 90
2
 70
0
 10
-1298.049636
 20
4520.008417
 30
0.0
 10
-1202.049663
 20
4520.008417
 30
0.0
  0
LWPOLYLINE
  5
254
100
AcDbEntity
  8
Sketch060
 62
1
100
AcDbPolyline
 90
9
 70
0
 10
-1634.049542
 20
4520.008417
 30
0.0
 10
-1629.009543
 20
4521.038417
 30
0.0
 10
-1624.899544
 20
4523.818416
 30
0.0
 10
-1622.129545
 20
4527.928415
 30
0.0
 10
-1621.109545
 20
4532.968413
 30
0.0
 10
-1622.129545
 20
4538.008412
 30
0.0
 10
-1624.899544
 20
4542.128411
 30
0.0
 10
-1629.009543
 20
4544.908410
 30
0.0
 10
-1634.049542
 20
4545.928410
 30
0.0
  0
LWPOLYLINE
  5
255
100
AcDbEntity
  8
Sketch060
 62
1
100
AcDbPolyline
 90
10
 70
0
 10
-1634.049542
 20
4545.938410
 30
0.0
 10
-1730.049515
 20
4545.938410
 30
0.0
 10
-1735.089513
 20
4544.918410
 30
0.0
 10
-1739.199512
 20
4542.138411
 30
0.0
 10
-1741.969511
 20
4538.018412
 30
0.0
 10
-1742.989511
 20
4532.978413
 30
0.0
 10
-1741.969511
 20
4527.938415
 30
0.0
 10
-1739.199512
 20
4523.818416
 30
0.0
 10
-1735.089513
 20
4521.048417
 30
0.0
 10
-1730.049515
 20
4520.018417
 30
0.0
  0
LWPOLYLINE
  5
256
100
AcDbEntity
  8
Sketch060
 62
1
100
AcDbPolyline
 90
2
 70
0
 10
-1730.049515
 20
4520.008417
 30
0.0
 10
-1634.049542
 20
4520.008417
 30
0.0
  0
LWPOLYLINE
  5
257
100
AcDbEntity
  8
Sketch060
 62
1
100
AcDbPolyline
 90
13
 70
1
 10
-1508.989577
 20
5071.518262
 30
0.0
 10
-1509.559576
 20
5073.658261
 30
0.0
 10
-1511.119576
 20
5075.218261
 30
0.0
 10
-1513.259575
 20
5075.788261
 30
0.0
 10
-1515.399575
 20
5075.218261
 30
0.0
 10
-1516.959574
 20
5073.658261
 30
0.0
 10
-1517.529574
 20
5071.518262
 30
0.0
 10
-1516.959574
 20
5069.388263
 30
0.0
 10
-1515.399575
 20
5067.818263
 30
0.0
 10
-1513.259575
 20
5067.248263
 30
0.0
 10
-1511.119576
 20
5067.818263
 30
0.0
 10
-1509.559576
 20
5069.388263
 30
0.0
 10
-1508.989577
 20
5071.518262
 30
0.0
  0
LWPOLYLINE
  5
258
100
AcDbEntity
  8
Sketch060
 62
1
100
AcDbPolyline
 90
13
 70
1
 10
-1460.989590
 20
5071.518262
 30
0.0
 10
-1461.559590
 20
5073.658261
 30
0.0
 10
-1463.119589
 20
5075.218261
 30
0.0
 10
-1465.259589
 20
5075.788261
 30
0.0
 10
-1467.399588
 20
5075.218261
 30
0.0
 10
-1468.959588
 20
5073.658261
 30
0.0
 10
-1469.529588
 20
5071.518262
 30
0.0
 10
-1468.959588
 20
5069.388263
 30
0.0
 10
-1467.399588
 20
5067.818263
 30
0.0
 10
-1465.259589
 20
5067.248263
 30
0.0
 10
-1463.119589
 20
5067.818263
 30
0.0
 10
-1461.559590
 20
5069.388263
 30
0.0
 10
-1460.989590
 20
5071.518262
 30
0.0
  0
LWPOLYLINE
  5
259
100
AcDbEntity
  8
Sketch060
 62
1
100
AcDbPolyline
 90
13
 70
1
 10
-1508.989577
 20
5023.518276
 30
0.0
 10
-1509.559576
 20
5025.658275
 30
0.0
 10
-1511.119576
 20
5027.218274
 30
0.0
 10
-1513.259575
 20
5027.788274
 30
0.0
 10
-1515.399575
 20
5027.218274
 30
0.0
 10
-1516.959574
 20
5025.658275
 30
0.0
 10
-1517.529574
 20
5023.518276
 30
0.0
 10
-1516.959574
 20
5021.388276
 30
0.0
 10
-1515.399575
 20
5019.818277
 30
0.0
 10
-1513.259575
 20
5019.248277
 30
0.0
 10
-1511.119576
 20
5019.818277
 30
0.0
 10
-1509.559576
 20
5021.388276
 30
0.0
 10
-1508.989577
 20
5023.518276
 30
0.0
  0
LWPOLYLINE
  5
25a
100
AcDbEntity
  8
Sketch060
 62
1
100
AcDbPolyline
 90
13
 70
1
 10
-1460.989590
 20
5023.518276
 30
0.0
 10
-1461.559590
 20
5025.658275
 30
0.0
 10
-1463.119589
 20
5027.218274
 30
0.0
 10
-1465.259589
 20
5027.788274
 30
0.0
 10
-1467.399588
 20
5027.218274
 30
0.0
 10
-1468.959588
 20
5025.658275
 30
0.0
 10
-1469.529588
 20
5023.518276
 30
0.0
 10
-1468.959588
 20
5021.388276
 30
0.0
 10
-1467.399588
 20
5019.818277
 30
0.0
 10
-1465.259589
 20
5019.248277
 30
0.0
 10
-1463.119589
 20
5019.818277
 30
0.0
 10
-1461.559590
 20
5021.388276
 30
0.0
 10
-1460.989590
 20
5023.518276
 30
0.0
  0
LWPOLYLINE
  5
25b
100
AcDbEntity
  8
Sketch061
 62
1
100
AcDbPolyline
 90
32
 70
1
 10
261.129927
 20
6276.997924
 30
0.0
 10
265.192926
 20
6277.747924
 30
0.0
 10
268.976925
 20
6279.907923
 30
0.0
 10
272.401924
 20
6283.317922
 30
0.0
 10
275.384923
 20
6287.837921
 30
0.0
 10
277.846922
 20
6293.307919
 30
0.0
 10
279.705922
 20
6299.597917
 30
0.0
 10
280.880921
 20
6306.537916
 30
0.0
 10
281.289921
 20
6313.997913
 30
0.0
 10
280.880921
 20
6321.447911
 30
0.0
 10
279.705922
 20
6328.397909
 30
0.0
 10
277.846922
 20
6334.677908
 30
0.0
 10
275.384923
 20
6340.157906
 30
0.0
 10
272.401924
 20
6344.677905
 30
0.0
 10
268.976925
 20
6348.087904
 30
0.0
 10
265.192926
 20
6350.237903
 30
0.0
 10
261.129927
 20
6350.987903
 30
0.0
 10
257.066928
 20
6350.237903
 30
0.0
 10
253.282929
 20
6348.087904
 30
0.0
 10
249.858930
 20
6344.677905
 30
0.0
 10
246.874931
 20
6340.157906
 30
0.0
 10
244.412931
 20
6334.677908
 30
0.0
 10
242.553932
 20
6328.397909
 30
0.0
 10
241.379932
 20
6321.447911
 30
0.0
 10
240.969932
 20
6313.997913
 30
0.0
 10
241.379932
 20
6306.537916
 30
0.0
 10
242.553932
 20
6299.597917
 30
0.0
 10
244.412931
 20
6293.307919
 30
0.0
 10
246.874931
 20
6287.837921
 30
0.0
 10
249.857930
 20
6283.317922
 30
0.0
 10
253.282929
 20
6279.907923
 30
0.0
 10
257.066928
 20
6277.747924
 30
0.0
  0
LWPOLYLINE
  5
25c
100
AcDbEntity
  8
Sketch061
 62
1
100
AcDbPolyline
 90
10
 70
1
 10
621.130826
 20
5985.678006
 30
0.0
 10
621.130826
 20
6561.677844
 30
0.0
 10
-492.468862
 20
6561.677844
 30
0.0
 10
-492.468862
 20
5985.678006
 30
0.0
 10
-492.468862
 20
5517.688137
 30
0.0
 10
164.726954
 20
5517.688137
 30
0.0
 10
164.726954
 20
5985.678006
 30
0.0
 10
356.725900
 20
5985.678006
 30
0.0
 10
356.725900
 20
5529.678134
 30
0.0
 10
621.130826
 20
5529.678134
 30
0.0
  0
LWPOLYLINE
  5
25d
100
AcDbEntity
  8
Sketch061
 62
1
100
AcDbPolyline
 90
13
 70
1
 10
241.402932
 20
6537.677851
 30
0.0
 10
240.829932
 20
6539.807850
 30
0.0
 10
239.266933
 20
6541.377850
 30
0.0
 10
237.130933
 20
6541.947849
 30
0.0
 10
234.994934
 20
6541.377850
 30
0.0
 10
233.430935
 20
6539.807850
 30
0.0
 10
232.858935
 20
6537.677851
 30
0.0
 10
233.430935
 20
6535.537851
 30
0.0
 10
234.994934
 20
6533.977852
 30
0.0
 10
237.130933
 20
6533.397852
 30
0.0
 10
239.266933
 20
6533.977852
 30
0.0
 10
240.829932
 20
6535.537851
 30
0.0
 10
241.402932
 20
6537.677851
 30
0.0
  0
LWPOLYLINE
  5
25e
100
AcDbEntity
  8
Sketch061
 62
1
100
AcDbPolyline
 90
13
 70
1
 10
289.401919
 20
6537.677851
 30
0.0
 10
288.829919
 20
6539.807850
 30
0.0
 10
287.265919
 20
6541.377850
 30
0.0
 10
285.129920
 20
6541.947849
 30
0.0
 10
282.993921
 20
6541.377850
 30
0.0
 10
281.430921
 20
6539.807850
 30
0.0
 10
280.857921
 20
6537.677851
 30
0.0
 10
281.430921
 20
6535.537851
 30
0.0
 10
282.993921
 20
6533.977852
 30
0.0
 10
285.129920
 20
6533.397852
 30
0.0
 10
287.265919
 20
6533.977852
 30
0.0
 10
288.829919
 20
6535.537851
 30
0.0
 10
289.401919
 20
6537.677851
 30
0.0
  0
LWPOLYLINE
  5
25f
100
AcDbEntity
  8
Sketch061
 62
1
100
AcDbPolyline
 90
25
 70
1
 10
-436.550878
 20
6513.677857
 30
0.0
 10
-436.836877
 20
6516.477857
 30
0.0
 10
-437.650877
 20
6519.087856
 30
0.0
 10
-440.635876
 20
6523.497855
 30
0.0
 10
-445.057875
 20
6526.477854
 30
0.0
 10
-447.667874
 20
6527.287854
 30
0.0
 10
-450.470874
 20
6527.567854
 30
0.0
 10
-453.272873
 20
6527.287854
 30
0.0
 10
-455.882872
 20
6526.477854
 30
0.0
 10
-460.304871
 20
6523.497855
 30
0.0
 10
-463.289870
 20
6519.087856
 30
0.0
 10
-464.103870
 20
6516.477857
 30
0.0
 10
-464.390870
 20
6513.677857
 30
0.0
 10
-464.103870
 20
6510.867858
 30
0.0
 10
-463.289870
 20
6508.257859
 30
0.0
 10
-460.304871
 20
6503.847860
 30
0.0
 10
-455.882872
 20
6500.867861
 30
0.0
 10
-453.272873
 20
6500.057861
 30
0.0
 10
-450.470874
 20
6499.777861
 30
0.0
 10
-447.667874
 20
6500.057861
 30
0.0
 10
-445.057875
 20
6500.867861
 30
0.0
 10
-440.635876
 20
6503.847860
 30
0.0
 10
-437.650877
 20
6508.257859
 30
0.0
 10
-436.836877
 20
6510.867858
 30
0.0
 10
-436.550878
 20
6513.677857
 30
0.0
  0
LWPOLYLINE
  5
260
100
AcDbEntity
  8
Sketch061
 62
1
100
AcDbPolyline
 90
13
 70
1
 10
-438.708877
 20
5937.678019
 30
0.0
 10
-439.479877
 20
5940.558018
 30
0.0
 10
-441.588876
 20
5942.658018
 30
0.0
 10
-444.468875
 20
5943.438017
 30
0.0
 10
-447.348874
 20
5942.658018
 30
0.0
 10
-449.456874
 20
5940.558018
 30
0.0
 10
-450.228874
 20
5937.678019
 30
0.0
 10
-449.456874
 20
5934.798020
 30
0.0
 10
-447.348874
 20
5932.688020
 30
0.0
 10
-444.468875
 20
5931.918021
 30
0.0
 10
-441.588876
 20
5932.688020
 30
0.0
 10
-439.479877
 20
5934.798020
 30
0.0
 10
-438.708877
 20
5937.678019
 30
0.0
  0
LWPOLYLINE
  5
261
100
AcDbEntity
  8
Sketch061
 62
1
100
AcDbPolyline
 90
25
 70
1
 10
-436.550878
 20
5565.688123
 30
0.0
 10
-436.836877
 20
5568.498123
 30
0.0
 10
-437.650877
 20
5571.108122
 30
0.0
 10
-440.635876
 20
5575.518121
 30
0.0
 10
-445.057875
 20
5578.498120
 30
0.0
 10
-447.667874
 20
5579.308120
 30
0.0
 10
-450.470874
 20
5579.588119
 30
0.0
 10
-453.272873
 20
5579.308120
 30
0.0
 10
-455.882872
 20
5578.498120
 30
0.0
 10
-460.304871
 20
5575.518121
 30
0.0
 10
-463.289870
 20
5571.108122
 30
0.0
 10
-464.103870
 20
5568.498123
 30
0.0
 10
-464.390870
 20
5565.688123
 30
0.0
 10
-464.103870
 20
5562.888124
 30
0.0
 10
-463.289870
 20
5560.278125
 30
0.0
 10
-460.304871
 20
5555.868126
 30
0.0
 10
-455.882872
 20
5552.888127
 30
0.0
 10
-453.272873
 20
5552.078127
 30
0.0
 10
-450.470874
 20
5551.798127
 30
0.0
 10
-447.667874
 20
5552.078127
 30
0.0
 10
-445.057875
 20
5552.888127
 30
0.0
 10
-440.635876
 20
5555.868126
 30
0.0
 10
-437.650877
 20
5560.278125
 30
0.0
 10
-436.836877
 20
5562.888124
 30
0.0
 10
-436.550878
 20
5565.688123
 30
0.0
  0
LWPOLYLINE
  5
262
100
AcDbEntity
  8
Sketch061
 62
1
100
AcDbPolyline
 90
13
 70
1
 10
578.890838
 20
5937.678019
 30
0.0
 10
578.119838
 20
5940.558018
 30
0.0
 10
576.010838
 20
5942.658018
 30
0.0
 10
573.130839
 20
5943.438017
 30
0.0
 10
570.250840
 20
5942.658018
 30
0.0
 10
568.142841
 20
5940.558018
 30
0.0
 10
567.370841
 20
5937.678019
 30
0.0
 10
568.142841
 20
5934.798020
 30
0.0
 10
570.250840
 20
5932.688020
 30
0.0
 10
573.130839
 20
5931.918021
 30
0.0
 10
576.010838
 20
5932.688020
 30
0.0
 10
578.119838
 20
5934.798020
 30
0.0
 10
578.890838
 20
5937.678019
 30
0.0
  0
LWPOLYLINE
  5
263
100
AcDbEntity
  8
Sketch061
 62
1
100
AcDbPolyline
 90
13
 70
1
 10
578.890838
 20
5661.688096
 30
0.0
 10
578.119838
 20
5664.568096
 30
0.0
 10
576.010838
 20
5666.678095
 30
0.0
 10
573.130839
 20
5667.448095
 30
0.0
 10
570.250840
 20
5666.678095
 30
0.0
 10
568.142841
 20
5664.568096
 30
0.0
 10
567.370841
 20
5661.688096
 30
0.0
 10
568.142841
 20
5658.808097
 30
0.0
 10
570.250840
 20
5656.708098
 30
0.0
 10
573.130839
 20
5655.928098
 30
0.0
 10
576.010838
 20
5656.708098
 30
0.0
 10
578.119838
 20
5658.808097
 30
0.0
 10
578.890838
 20
5661.688096
 30
0.0
  0
LWPOLYLINE
  5
264
100
AcDbEntity
  8
Sketch061
 62
1
100
AcDbPolyline
 90
13
 70
1
 10
122.485966
 20
5937.678019
 30
0.0
 10
121.713966
 20
5940.558018
 30
0.0
 10
119.605966
 20
5942.658018
 30
0.0
 10
116.725967
 20
5943.438017
 30
0.0
 10
113.845968
 20
5942.658018
 30
0.0
 10
111.737969
 20
5940.558018
 30
0.0
 10
110.965969
 20
5937.678019
 30
0.0
 10
111.737969
 20
5934.798020
 30
0.0
 10
113.845968
 20
5932.688020
 30
0.0
 10
116.725967
 20
5931.918021
 30
0.0
 10
119.605966
 20
5932.688020
 30
0.0
 10
121.713966
 20
5934.798020
 30
0.0
 10
122.485966
 20
5937.678019
 30
0.0
  0
LWPOLYLINE
  5
265
100
AcDbEntity
  8
Sketch061
 62
1
100
AcDbPolyline
 90
13
 70
1
 10
410.486885
 20
5937.678019
 30
0.0
 10
409.714885
 20
5940.558018
 30
0.0
 10
407.606886
 20
5942.658018
 30
0.0
 10
404.726886
 20
5943.438017
 30
0.0
 10
401.846887
 20
5942.658018
 30
0.0
 10
399.738888
 20
5940.558018
 30
0.0
 10
398.966888
 20
5937.678019
 30
0.0
 10
399.738888
 20
5934.798020
 30
0.0
 10
401.846887
 20
5932.688020
 30
0.0
 10
404.726886
 20
5931.918021
 30
0.0
 10
407.606886
 20
5932.688020
 30
0.0
 10
409.714885
 20
5934.798020
 30
0.0
 10
410.486885
 20
5937.678019
 30
0.0
  0
LWPOLYLINE
  5
266
100
AcDbEntity
  8
Sketch061
 62
1
100
AcDbPolyline
 90
13
 70
1
 10
122.485966
 20
5565.688123
 30
0.0
 10
121.713966
 20
5568.568123
 30
0.0
 10
119.605966
 20
5570.678122
 30
0.0
 10
116.725967
 20
5571.448122
 30
0.0
 10
113.845968
 20
5570.678122
 30
0.0
 10
111.737969
 20
5568.568123
 30
0.0
 10
110.965969
 20
5565.688123
 30
0.0
 10
111.737969
 20
5562.808124
 30
0.0
 10
113.845968
 20
5560.708125
 30
0.0
 10
116.725967
 20
5559.928125
 30
0.0
 10
119.605966
 20
5560.708125
 30
0.0
 10
121.713966
 20
5562.808124
 30
0.0
 10
122.485966
 20
5565.688123
 30
0.0
  0
LWPOLYLINE
  5
267
100
AcDbEntity
  8
Sketch061
 62
1
100
AcDbPolyline
 90
13
 70
1
 10
410.486885
 20
5565.688123
 30
0.0
 10
409.714885
 20
5568.568123
 30
0.0
 10
407.606886
 20
5570.678122
 30
0.0
 10
404.726886
 20
5571.448122
 30
0.0
 10
401.846887
 20
5570.678122
 30
0.0
 10
399.738888
 20
5568.568123
 30
0.0
 10
398.966888
 20
5565.688123
 30
0.0
 10
399.738888
 20
5562.808124
 30
0.0
 10
401.846887
 20
5560.708125
 30
0.0
 10
404.726886
 20
5559.928125
 30
0.0
 10
407.606886
 20
5560.708125
 30
0.0
 10
409.714885
 20
5562.808124
 30
0.0
 10
410.486885
 20
5565.688123
 30
0.0
  0
LWPOLYLINE
  5
268
100
AcDbEntity
  8
Sketch061
 62
1
100
AcDbPolyline
 90
25
 70
1
 10
556.081844
 20
5565.688123
 30
0.0
 10
555.794844
 20
5568.498123
 30
0.0
 10
554.980844
 20
5571.108122
 30
0.0
 10
551.996845
 20
5575.518121
 30
0.0
 10
547.574846
 20
5578.498120
 30
0.0
 10
544.963847
 20
5579.308120
 30
0.0
 10
542.161848
 20
5579.588119
 30
0.0
 10
539.359849
 20
5579.308120
 30
0.0
 10
536.748849
 20
5578.498120
 30
0.0
 10
532.326851
 20
5575.518121
 30
0.0
 10
529.341851
 20
5571.108122
 30
0.0
 10
528.528852
 20
5568.498123
 30
0.0
 10
528.241852
 20
5565.688123
 30
0.0
 10
528.528852
 20
5562.888124
 30
0.0
 10
529.341851
 20
5560.278125
 30
0.0
 10
532.326851
 20
5555.868126
 30
0.0
 10
536.748849
 20
5552.888127
 30
0.0
 10
539.359849
 20
5552.078127
 30
0.0
 10
542.161848
 20
5551.798127
 30
0.0
 10
544.963847
 20
5552.078127
 30
0.0
 10
547.574846
 20
5552.888127
 30
0.0
 10
551.996845
 20
5555.868126
 30
0.0
 10
554.980844
 20
5560.278125
 30
0.0
 10
555.794844
 20
5562.888124
 30
0.0
 10
556.081844
 20
5565.688123
 30
0.0
  0
LWPOLYLINE
  5
269
100
AcDbEntity
  8
Sketch062
 62
1
100
AcDbPolyline
 90
13
 70
1
 10
-2408.309324
 20
6129.447965
 30
0.0
 10
-2409.079324
 20
6132.327964
 30
0.0
 10
-2411.189323
 20
6134.437964
 30
0.0
 10
-2414.069323
 20
6135.207964
 30
0.0
 10
-2416.949322
 20
6134.437964
 30
0.0
 10
-2419.059321
 20
6132.327964
 30
0.0
 10
-2419.829321
 20
6129.447965
 30
0.0
 10
-2419.059321
 20
6126.567966
 30
0.0
 10
-2416.949322
 20
6124.457967
 30
0.0
 10
-2414.069323
 20
6123.687967
 30
0.0
 10
-2411.189323
 20
6124.457967
 30
0.0
 10
-2409.079324
 20
6126.567966
 30
0.0
 10
-2408.309324
 20
6129.447965
 30
0.0
  0
LWPOLYLINE
  5
26a
100
AcDbEntity
  8
Sketch062
 62
1
100
AcDbPolyline
 90
25
 70
1
 10
-2400.149327
 20
5757.468070
 30
0.0
 10
-2400.439326
 20
5760.268069
 30
0.0
 10
-2401.249326
 20
5762.878068
 30
0.0
 10
-2404.239325
 20
5767.298067
 30
0.0
 10
-2408.659324
 20
5770.268066
 30
0.0
 10
-2411.269323
 20
5771.078066
 30
0.0
 10
-2414.069323
 20
5771.368066
 30
0.0
 10
-2416.869322
 20
5771.078066
 30
0.0
 10
-2419.479321
 20
5770.268066
 30
0.0
 10
-2423.909320
 20
5767.298067
 30
0.0
 10
-2426.889319
 20
5762.878068
 30
0.0
 10
-2427.699319
 20
5760.268069
 30
0.0
 10
-2427.989319
 20
5757.468070
 30
0.0
 10
-2427.699319
 20
5754.668070
 30
0.0
 10
-2426.889319
 20
5752.058071
 30
0.0
 10
-2423.909320
 20
5747.638072
 30
0.0
 10
-2419.479321
 20
5744.658073
 30
0.0
 10
-2416.869322
 20
5743.848073
 30
0.0
 10
-2414.069323
 20
5743.568073
 30
0.0
 10
-2411.269323
 20
5743.848073
 30
0.0
 10
-2408.659324
 20
5744.658073
 30
0.0
 10
-2404.239325
 20
5747.638072
 30
0.0
 10
-2401.249326
 20
5752.058071
 30
0.0
 10
-2400.439326
 20
5754.668070
 30
0.0
 10
-2400.149327
 20
5757.468070
 30
0.0
  0
LWPOLYLINE
  5
26b
100
AcDbEntity
  8
Sketch062
 62
1
100
AcDbPolyline
 90
13
 70
1
 10
-1390.709610
 20
6129.447965
 30
0.0
 10
-1391.479610
 20
6132.327964
 30
0.0
 10
-1393.589609
 20
6134.437964
 30
0.0
 10
-1396.469608
 20
6135.207964
 30
0.0
 10
-1399.349607
 20
6134.437964
 30
0.0
 10
-1401.459607
 20
6132.327964
 30
0.0
 10
-1402.229607
 20
6129.447965
 30
0.0
 10
-1401.459607
 20
6126.567966
 30
0.0
 10
-1399.349607
 20
6124.457967
 30
0.0
 10
-1396.469608
 20
6123.687967
 30
0.0
 10
-1393.589609
 20
6124.457967
 30
0.0
 10
-1391.479610
 20
6126.567966
 30
0.0
 10
-1390.709610
 20
6129.447965
 30
0.0
  0
LWPOLYLINE
  5
26c
100
AcDbEntity
  8
Sketch062
 62
1
100
AcDbPolyline
 90
13
 70
1
 10
-1390.709610
 20
5853.468043
 30
0.0
 10
-1391.479610
 20
5856.348042
 30
0.0
 10
-1393.589609
 20
5858.458041
 30
0.0
 10
-1396.469608
 20
5859.228041
 30
0.0
 10
-1399.349607
 20
5858.458041
 30
0.0
 10
-1401.459607
 20
5856.348042
 30
0.0
 10
-1402.229607
 20
5853.468043
 30
0.0
 10
-1401.459607
 20
5850.588043
 30
0.0
 10
-1399.349607
 20
5848.478044
 30
0.0
 10
-1396.469608
 20
5847.708044
 30
0.0
 10
-1393.589609
 20
5848.478044
 30
0.0
 10
-1391.479610
 20
5850.588043
 30
0.0
 10
-1390.709610
 20
5853.468043
 30
0.0
  0
LWPOLYLINE
  5
26d
100
AcDbEntity
  8
Sketch062
 62
1
100
AcDbPolyline
 90
13
 70
1
 10
-1847.119482
 20
6129.447965
 30
0.0
 10
-1847.889482
 20
6132.327964
 30
0.0
 10
-1849.999481
 20
6134.437964
 30
0.0
 10
-1852.879480
 20
6135.207964
 30
0.0
 10
-1855.759479
 20
6134.437964
 30
0.0
 10
-1857.859479
 20
6132.327964
 30
0.0
 10
-1858.639478
 20
6129.447965
 30
0.0
 10
-1857.859479
 20
6126.567966
 30
0.0
 10
-1855.759479
 20
6124.457967
 30
0.0
 10
-1852.879480
 20
6123.687967
 30
0.0
 10
-1849.999481
 20
6124.457967
 30
0.0
 10
-1847.889482
 20
6126.567966
 30
0.0
 10
-1847.119482
 20
6129.447965
 30
0.0
  0
LWPOLYLINE
  5
26e
100
AcDbEntity
  8
Sketch062
 62
1
100
AcDbPolyline
 90
13
 70
1
 10
-1559.119563
 20
6129.447965
 30
0.0
 10
-1559.889562
 20
6132.327964
 30
0.0
 10
-1561.999562
 20
6134.437964
 30
0.0
 10
-1564.879561
 20
6135.207964
 30
0.0
 10
-1567.759560
 20
6134.437964
 30
0.0
 10
-1569.859560
 20
6132.327964
 30
0.0
 10
-1570.639559
 20
6129.447965
 30
0.0
 10
-1569.859560
 20
6126.567966
 30
0.0
 10
-1567.759560
 20
6124.457967
 30
0.0
 10
-1564.879561
 20
6123.687967
 30
0.0
 10
-1561.999562
 20
6124.457967
 30
0.0
 10
-1559.889562
 20
6126.567966
 30
0.0
 10
-1559.119563
 20
6129.447965
 30
0.0
  0
LWPOLYLINE
  5
26f
100
AcDbEntity
  8
Sketch062
 62
1
100
AcDbPolyline
 90
13
 70
1
 10
-1847.119482
 20
5757.468070
 30
0.0
 10
-1847.889482
 20
5760.348069
 30
0.0
 10
-1849.999481
 20
5762.458068
 30
0.0
 10
-1852.879480
 20
5763.228068
 30
0.0
 10
-1855.759479
 20
5762.458068
 30
0.0
 10
-1857.859479
 20
5760.348069
 30
0.0
 10
-1858.639478
 20
5757.468070
 30
0.0
 10
-1857.859479
 20
5754.588070
 30
0.0
 10
-1855.759479
 20
5752.478071
 30
0.0
 10
-1852.879480
 20
5751.708071
 30
0.0
 10
-1849.999481
 20
5752.478071
 30
0.0
 10
-1847.889482
 20
5754.588070
 30
0.0
 10
-1847.119482
 20
5757.468070
 30
0.0
  0
LWPOLYLINE
  5
270
100
AcDbEntity
  8
Sketch062
 62
1
100
AcDbPolyline
 90
13
 70
1
 10
-1559.119563
 20
5757.468070
 30
0.0
 10
-1559.889562
 20
5760.348069
 30
0.0
 10
-1561.999562
 20
5762.458068
 30
0.0
 10
-1564.879561
 20
5763.228068
 30
0.0
 10
-1567.759560
 20
5762.458068
 30
0.0
 10
-1569.859560
 20
5760.348069
 30
0.0
 10
-1570.639559
 20
5757.468070
 30
0.0
 10
-1569.859560
 20
5754.588070
 30
0.0
 10
-1567.759560
 20
5752.478071
 30
0.0
 10
-1564.879561
 20
5751.708071
 30
0.0
 10
-1561.999562
 20
5752.478071
 30
0.0
 10
-1559.889562
 20
5754.588070
 30
0.0
 10
-1559.119563
 20
5757.468070
 30
0.0
  0
LWPOLYLINE
  5
271
100
AcDbEntity
  8
Sketch062
 62
1
100
AcDbPolyline
 90
25
 70
1
 10
-1413.519603
 20
5757.468070
 30
0.0
 10
-1413.809603
 20
5760.268069
 30
0.0
 10
-1414.619603
 20
5762.878068
 30
0.0
 10
-1417.609602
 20
5767.298067
 30
0.0
 10
-1422.029601
 20
5770.268066
 30
0.0
 10
-1424.639600
 20
5771.078066
 30
0.0
 10
-1427.439599
 20
5771.368066
 30
0.0
 10
-1430.239599
 20
5771.078066
 30
0.0
 10
-1432.849598
 20
5770.268066
 30
0.0
 10
-1437.279597
 20
5767.298067
 30
0.0
 10
-1440.259596
 20
5762.878068
 30
0.0
 10
-1441.069596
 20
5760.268069
 30
0.0
 10
-1441.359596
 20
5757.468070
 30
0.0
 10
-1441.069596
 20
5754.668070
 30
0.0
 10
-1440.259596
 20
5752.058071
 30
0.0
 10
-1437.279597
 20
5747.638072
 30
0.0
 10
-1432.849598
 20
5744.658073
 30
0.0
 10
-1430.239599
 20
5743.848073
 30
0.0
 10
-1427.439599
 20
5743.568073
 30
0.0
 10
-1424.639600
 20
5743.848073
 30
0.0
 10
-1422.029601
 20
5744.658073
 30
0.0
 10
-1417.609602
 20
5747.638072
 30
0.0
 10
-1414.619603
 20
5752.058071
 30
0.0
 10
-1413.809603
 20
5754.668070
 30
0.0
 10
-1413.519603
 20
5757.468070
 30
0.0
  0
LWPOLYLINE
  5
272
100
AcDbEntity
  8
Sketch062
 62
1
100
AcDbPolyline
 90
8
 70
0
 10
-1342.469623
 20
5807.358056
 30
0.0
 10
-1342.469623
 20
6177.447952
 30
0.0
 10
-2456.069311
 20
6177.447952
 30
0.0
 10
-2456.069311
 20
5807.358056
 30
0.0
 10
-2456.069311
 20
5709.468083
 30
0.0
 10
-2364.149337
 20
5709.468083
 30
0.0
 10
-1496.309580
 20
5709.468083
 30
0.0
 10
-1342.469623
 20
5709.468083
 30
0.0
  0
LWPOLYLINE
  5
273
100
AcDbEntity
  8
Sketch062
 62
1
100
AcDbPolyline
 90
2
 70
0
 10
-1342.469623
 20
5807.358056
 30
0.0
 10
-1342.469623
 20
5709.468083
 30
0.0
  0
LWPOLYLINE
  5
274
100
AcDbEntity
  8
Sketch062
 62
1
100
AcDbPolyline
 90
17
 70
1
 10
-1695.979524
 20
6164.107955
 30
0.0
 10
-1696.999524
 20
6169.137954
 30
0.0
 10
-1699.779523
 20
6173.257953
 30
0.0
 10
-1703.899522
 20
6176.027952
 30
0.0
 10
-1708.939520
 20
6177.047952
 30
0.0
 10
-1713.979519
 20
6176.027952
 30
0.0
 10
-1718.099518
 20
6173.257953
 30
0.0
 10
-1720.869517
 20
6169.137954
 30
0.0
 10
-1721.899517
 20
6164.107955
 30
0.0
 10
-1720.869517
 20
6159.067957
 30
0.0
 10
-1718.099518
 20
6154.957958
 30
0.0
 10
-1713.979519
 20
6152.187959
 30
0.0
 10
-1708.939520
 20
6151.167959
 30
0.0
 10
-1703.899522
 20
6152.187959
 30
0.0
 10
-1699.779523
 20
6154.957958
 30
0.0
 10
-1696.999524
 20
6159.067957
 30
0.0
 10
-1695.979524
 20
6164.107955
 30
0.0
  0
LWPOLYLINE
  5
275
100
AcDbEntity
  8
Sketch063
 62
1
100
AcDbPolyline
 90
13
 70
1
 10
-2417.489322
 20
6679.747811
 30
0.0
 10
-2418.259321
 20
6682.627810
 30
0.0
 10
-2420.369321
 20
6684.737809
 30
0.0
 10
-2423.249320
 20
6685.507809
 30
0.0
 10
-2426.129319
 20
6684.737809
 30
0.0
 10
-2428.239319
 20
6682.627810
 30
0.0
 10
-2429.009318
 20
6679.747811
 30
0.0
 10
-2428.239319
 20
6676.867812
 30
0.0
 10
-2426.129319
 20
6674.757812
 30
0.0
 10
-2423.249320
 20
6673.987812
 30
0.0
 10
-2420.369321
 20
6674.757812
 30
0.0
 10
-2418.259321
 20
6676.867812
 30
0.0
 10
-2417.489322
 20
6679.747811
 30
0.0
  0
LWPOLYLINE
  5
276
100
AcDbEntity
  8
Sketch063
 62
1
100
AcDbPolyline
 90
13
 70
1
 10
-1399.889607
 20
6679.747811
 30
0.0
 10
-1400.659607
 20
6682.627810
 30
0.0
 10
-1402.769606
 20
6684.737809
 30
0.0
 10
-1405.649606
 20
6685.507809
 30
0.0
 10
-1408.529605
 20
6684.737809
 30
0.0
 10
-1410.639604
 20
6682.627810
 30
0.0
 10
-1411.409604
 20
6679.747811
 30
0.0
 10
-1410.639604
 20
6676.867812
 30
0.0
 10
-1408.529605
 20
6674.757812
 30
0.0
 10
-1405.649606
 20
6673.987812
 30
0.0
 10
-1402.769606
 20
6674.757812
 30
0.0
 10
-1400.659607
 20
6676.867812
 30
0.0
 10
-1399.889607
 20
6679.747811
 30
0.0
  0
LWPOLYLINE
  5
277
100
AcDbEntity
  8
Sketch063
 62
1
100
AcDbPolyline
 90
13
 70
1
 10
-1399.889607
 20
6403.767888
 30
0.0
 10
-1400.659607
 20
6406.647887
 30
0.0
 10
-1402.769606
 20
6408.757887
 30
0.0
 10
-1405.649606
 20
6409.527887
 30
0.0
 10
-1408.529605
 20
6408.757887
 30
0.0
 10
-1410.639604
 20
6406.647887
 30
0.0
 10
-1411.409604
 20
6403.767888
 30
0.0
 10
-1410.639604
 20
6400.887889
 30
0.0
 10
-1408.529605
 20
6398.777890
 30
0.0
 10
-1405.649606
 20
6398.007890
 30
0.0
 10
-1402.769606
 20
6398.777890
 30
0.0
 10
-1400.659607
 20
6400.887889
 30
0.0
 10
-1399.889607
 20
6403.767888
 30
0.0
  0
LWPOLYLINE
  5
278
100
AcDbEntity
  8
Sketch063
 62
1
100
AcDbPolyline
 90
13
 70
1
 10
-1856.299479
 20
6679.747811
 30
0.0
 10
-1857.069479
 20
6682.627810
 30
0.0
 10
-1859.179478
 20
6684.737809
 30
0.0
 10
-1862.059478
 20
6685.507809
 30
0.0
 10
-1864.939477
 20
6684.737809
 30
0.0
 10
-1867.039476
 20
6682.627810
 30
0.0
 10
-1867.819476
 20
6679.747811
 30
0.0
 10
-1867.039476
 20
6676.867812
 30
0.0
 10
-1864.939477
 20
6674.757812
 30
0.0
 10
-1862.059478
 20
6673.987812
 30
0.0
 10
-1859.179478
 20
6674.757812
 30
0.0
 10
-1857.069479
 20
6676.867812
 30
0.0
 10
-1856.299479
 20
6679.747811
 30
0.0
  0
LWPOLYLINE
  5
279
100
AcDbEntity
  8
Sketch063
 62
1
100
AcDbPolyline
 90
13
 70
1
 10
-1568.299560
 20
6679.747811
 30
0.0
 10
-1569.069560
 20
6682.627810
 30
0.0
 10
-1571.179559
 20
6684.737809
 30
0.0
 10
-1574.059558
 20
6685.507809
 30
0.0
 10
-1576.939558
 20
6684.737809
 30
0.0
 10
-1579.039557
 20
6682.627810
 30
0.0
 10
-1579.819557
 20
6679.747811
 30
0.0
 10
-1579.039557
 20
6676.867812
 30
0.0
 10
-1576.939558
 20
6674.757812
 30
0.0
 10
-1574.059558
 20
6673.987812
 30
0.0
 10
-1571.179559
 20
6674.757812
 30
0.0
 10
-1569.069560
 20
6676.867812
 30
0.0
 10
-1568.299560
 20
6679.747811
 30
0.0
  0
LWPOLYLINE
  5
27a
100
AcDbEntity
  8
Sketch063
 62
1
100
AcDbPolyline
 90
13
 70
1
 10
-1856.299479
 20
6307.767915
 30
0.0
 10
-1857.069479
 20
6310.647914
 30
0.0
 10
-1859.179478
 20
6312.757914
 30
0.0
 10
-1862.059478
 20
6313.527914
 30
0.0
 10
-1864.939477
 20
6312.757914
 30
0.0
 10
-1867.039476
 20
6310.647914
 30
0.0
 10
-1867.819476
 20
6307.767915
 30
0.0
 10
-1867.039476
 20
6304.887916
 30
0.0
 10
-1864.939477
 20
6302.777917
 30
0.0
 10
-1862.059478
 20
6302.007917
 30
0.0
 10
-1859.179478
 20
6302.777917
 30
0.0
 10
-1857.069479
 20
6304.887916
 30
0.0
 10
-1856.299479
 20
6307.767915
 30
0.0
  0
LWPOLYLINE
  5
27b
100
AcDbEntity
  8
Sketch063
 62
1
100
AcDbPolyline
 90
13
 70
1
 10
-1568.299560
 20
6307.767915
 30
0.0
 10
-1569.069560
 20
6310.647914
 30
0.0
 10
-1571.179559
 20
6312.757914
 30
0.0
 10
-1574.059558
 20
6313.527914
 30
0.0
 10
-1576.939558
 20
6312.757914
 30
0.0
 10
-1579.039557
 20
6310.647914
 30
0.0
 10
-1579.819557
 20
6307.767915
 30
0.0
 10
-1579.039557
 20
6304.887916
 30
0.0
 10
-1576.939558
 20
6302.777917
 30
0.0
 10
-1574.059558
 20
6302.007917
 30
0.0
 10
-1571.179559
 20
6302.777917
 30
0.0
 10
-1569.069560
 20
6304.887916
 30
0.0
 10
-1568.299560
 20
6307.767915
 30
0.0
  0
LWPOLYLINE
  5
27c
100
AcDbEntity
  8
Sketch063
 62
1
100
AcDbPolyline
 90
8
 70
0
 10
-1363.649617
 20
6357.657901
 30
0.0
 10
-1363.649617
 20
6727.747797
 30
0.0
 10
-2477.249305
 20
6727.747797
 30
0.0
 10
-2477.249305
 20
6357.657901
 30
0.0
 10
-2373.329334
 20
6357.657901
 30
0.0
 10
-2373.329334
 20
6259.767929
 30
0.0
 10
-1505.489578
 20
6259.767929
 30
0.0
 10
-1505.489578
 20
6357.657901
 30
0.0
  0
LWPOLYLINE
  5
27d
100
AcDbEntity
  8
Sketch063
 62
1
100
AcDbPolyline
 90
2
 70
0
 10
-1363.649617
 20
6357.657901
 30
0.0
 10
-1505.489578
 20
6357.657901
 30
0.0
  0
LWPOLYLINE
  5
27e
100
AcDbEntity
  8
Sketch063
 62
1
100
AcDbPolyline
 90
17
 70
1
 10
-1705.159522
 20
6714.407801
 30
0.0
 10
-1706.189521
 20
6719.437800
 30
0.0
 10
-1708.959520
 20
6723.557799
 30
0.0
 10
-1713.079519
 20
6726.327798
 30
0.0
 10
-1718.119518
 20
6727.337797
 30
0.0
 10
-1723.159517
 20
6726.327798
 30
0.0
 10
-1727.279515
 20
6723.557799
 30
0.0
 10
-1730.059515
 20
6719.437800
 30
0.0
 10
-1731.079514
 20
6714.407801
 30
0.0
 10
-1730.059515
 20
6709.367803
 30
0.0
 10
-1727.279515
 20
6705.257804
 30
0.0
 10
-1723.159517
 20
6702.477804
 30
0.0
 10
-1718.119518
 20
6701.467805
 30
0.0
 10
-1713.079519
 20
6702.477804
 30
0.0
 10
-1708.959520
 20
6705.257804
 30
0.0
 10
-1706.189521
 20
6709.367803
 30
0.0
 10
-1705.159522
 20
6714.407801
 30
0.0
  0
SPLINE
  5
27f
100
AcDbEntity
  8
Sketch063
 62
1
100
AcDbSpline
 70
8
 71
3
 72
8
 73
4
 74
0
 40
0
 40
0
 40
0
 40
0
 40
1
 40
1
 40
1
 40
1
 10
3637.628554
 20
6255.668820
 30
0.0
 10
3640.115122
 20
6251.361960
 30
0.0
 10
3644.710487
 20
6248.708826
 30
0.0
 10
3649.683621
 20
6248.708827
 30
0.0
  0
SPLINE
  5
280
100
AcDbEntity
  8
Sketch063
 62
1
100
AcDbSpline
 70
8
 71
3
 72
8
 73
4
 74
0
 40
0
 40
0
 40
0
 40
0
 40
1
 40
1
 40
1
 40
1
 10
3649.683621
 20
6248.708827
 30
0.0
 10
3654.656755
 20
6248.708828
 30
0.0
 10
3659.252120
 20
6251.361964
 30
0.0
 10
3661.738686
 20
6255.668825
 30
0.0
  0
SPLINE
  5
281
100
AcDbEntity
  8
Sketch063
 62
1
100
AcDbSpline
 70
8
 71
3
 72
8
 73
4
 74
0
 40
0
 40
0
 40
0
 40
0
 40
1
 40
1
 40
1
 40
1
 10
3661.738686
 20
6255.668825
 30
0.0
 10
3664.225252
 20
6259.975685
 30
0.0
 10
3664.225251
 20
6265.281956
 30
0.0
 10
3661.738683
 20
6269.588816
 30
0.0
  0
SPLINE
  5
282
100
AcDbEntity
  8
Sketch063
 62
1
100
AcDbSpline
 70
8
 71
3
 72
8
 73
4
 74
0
 40
0
 40
0
 40
0
 40
0
 40
1
 40
1
 40
1
 40
1
 10
3661.738683
 20
6269.588816
 30
0.0
 10
3657.894782
 20
6276.246643
 30
0.0
 10
3649.381449
 20
6278.527782
 30
0.0
 10
3642.723621
 20
6274.683881
 30
0.0
  0
SPLINE
  5
283
100
AcDbEntity
  8
Sketch063
 62
1
100
AcDbSpline
 70
8
 71
3
 72
8
 73
4
 74
0
 40
0
 40
0
 40
0
 40
0
 40
1
 40
1
 40
1
 40
1
 10
3642.723621
 20
6274.683881
 30
0.0
 10
3636.065793
 20
6270.839981
 30
0.0
 10
3633.784654
 20
6262.326648
 30
0.0
 10
3637.628554
 20
6255.668820
 30
0.0
  0
LWPOLYLINE
  5
284
100
AcDbEntity
  8
Sketch063
 62
1
100
AcDbPolyline
 90
5
 70
1
 10
4092.519607
 20
6106.628025
 30
0.0
 10
3159.747284
 20
6106.627311
 30
0.0
 10
3159.747077
 20
7258.625139
 30
0.0
 10
4098.567378
 20
7258.625844
 30
0.0
 10
4098.567344
 20
6106.629032
 30
0.0
  0
LWPOLYLINE
  5
285
100
AcDbEntity
  8
Sketch063
 62
1
100
AcDbPolyline
 90
1
 70
1
 10
3637.628554
 20
6255.668820
 30
0.0
  0
SPLINE
  5
286
100
AcDbEntity
  8
Sketch063
 62
1
100
AcDbSpline
 70
8
 71
3
 72
8
 73
4
 74
0
 40
0
 40
0
 40
0
 40
0
 40
1
 40
1
 40
1
 40
1
 10
4038.514232
 20
7203.669052
 30
0.0
 10
4042.358133
 20
7197.011224
 30
0.0
 10
4050.871466
 20
7194.730086
 30
0.0
 10
4057.529294
 20
7198.573987
 30
0.0
  0
SPLINE
  5
287
100
AcDbEntity
  8
Sketch063
 62
1
100
AcDbSpline
 70
8
 71
3
 72
8
 73
4
 74
0
 40
0
 40
0
 40
0
 40
0
 40
1
 40
1
 40
1
 40
1
 10
4057.529294
 20
7198.573987
 30
0.0
 10
4064.187121
 20
7202.417887
 30
0.0
 10
4066.468261
 20
7210.931220
 30
0.0
 10
4062.624361
 20
7217.589048
 30
0.0
  0
SPLINE
  5
288
100
AcDbEntity
  8
Sketch063
 62
1
100
AcDbSpline
 70
8
 71
3
 72
8
 73
4
 74
0
 40
0
 40
0
 40
0
 40
0
 40
1
 40
1
 40
1
 40
1
 10
4062.624361
 20
7217.589048
 30
0.0
 10
4058.780460
 20
7224.246875
 30
0.0
 10
4050.267127
 20
7226.528013
 30
0.0
 10
4043.609299
 20
7222.684113
 30
0.0
  0
SPLINE
  5
289
100
AcDbEntity
  8
Sketch063
 62
1
100
AcDbSpline
 70
8
 71
3
 72
8
 73
4
 74
0
 40
0
 40
0
 40
0
 40
0
 40
1
 40
1
 40
1
 40
1
 10
4043.609299
 20
7222.684113
 30
0.0
 10
4036.951471
 20
7218.840212
 30
0.0
 10
4034.670332
 20
7210.326880
 30
0.0
 10
4038.514232
 20
7203.669052
 30
0.0
  0
LWPOLYLINE
  5
28a
100
AcDbEntity
  8
Sketch063
 62
1
100
AcDbPolyline
 90
4
 70
1
 10
3532.542810
 20
6202.626692
 30
0.0
 10
3532.544210
 20
6634.623844
 30
0.0
 10
3244.545531
 20
6634.624444
 30
0.0
 10
3244.544131
 20
6202.627292
 30
0.0
  0
SPLINE
  5
28b
100
AcDbEntity
  8
Sketch063
 62
1
100
AcDbSpline
 70
8
 71
3
 72
8
 73
4
 74
0
 40
0
 40
0
 40
0
 40
0
 40
1
 40
1
 40
1
 40
1
 10
3637.626182
 20
7203.668219
 30
0.0
 10
3640.112752
 20
7199.361354
 30
0.0
 10
3644.708123
 20
7196.708217
 30
0.0
 10
3649.681262
 20
7196.708218
 30
0.0
  0
SPLINE
  5
28c
100
AcDbEntity
  8
Sketch063
 62
1
100
AcDbSpline
 70
8
 71
3
 72
8
 73
4
 74
0
 40
0
 40
0
 40
0
 40
0
 40
1
 40
1
 40
1
 40
1
 10
3649.681262
 20
7196.708218
 30
0.0
 10
3654.654402
 20
7196.708219
 30
0.0
 10
3659.249771
 20
7199.361358
 30
0.0
 10
3661.736340
 20
7203.668224
 30
0.0
  0
SPLINE
  5
28d
100
AcDbEntity
  8
Sketch063
 62
1
100
AcDbSpline
 70
8
 71
3
 72
8
 73
4
 74
0
 40
0
 40
0
 40
0
 40
0
 40
1
 40
1
 40
1
 40
1
 10
3661.736340
 20
7203.668224
 30
0.0
 10
3664.222909
 20
7207.975089
 30
0.0
 10
3664.222908
 20
7213.281365
 30
0.0
 10
3661.736337
 20
7217.588230
 30
0.0
  0
SPLINE
  5
28e
100
AcDbEntity
  8
Sketch063
 62
1
100
AcDbSpline
 70
8
 71
3
 72
8
 73
4
 74
0
 40
0
 40
0
 40
0
 40
0
 40
1
 40
1
 40
1
 40
1
 10
3661.736337
 20
7217.588230
 30
0.0
 10
3659.249767
 20
7221.895094
 30
0.0
 10
3654.654396
 20
7224.548232
 30
0.0
 10
3649.681257
 20
7224.548231
 30
0.0
  0
SPLINE
  5
28f
100
AcDbEntity
  8
Sketch063
 62
1
100
AcDbSpline
 70
8
 71
3
 72
8
 73
4
 74
0
 40
0
 40
0
 40
0
 40
0
 40
1
 40
1
 40
1
 40
1
 10
3649.681257
 20
7224.548231
 30
0.0
 10
3644.708117
 20
7224.548230
 30
0.0
 10
3640.112748
 20
7221.895090
 30
0.0
 10
3637.626179
 20
7217.588225
 30
0.0
  0
SPLINE
  5
290
100
AcDbEntity
  8
Sketch063
 62
1
100
AcDbSpline
 70
8
 71
3
 72
8
 73
4
 74
0
 40
0
 40
0
 40
0
 40
0
 40
1
 40
1
 40
1
 40
1
 10
3637.626179
 20
7217.588225
 30
0.0
 10
3635.139610
 20
7213.281360
 30
0.0
 10
3635.139611
 20
7207.975083
 30
0.0
 10
3637.626182
 20
7203.668219
 30
0.0
  0
LWPOLYLINE
  5
291
100
AcDbEntity
  8
Sketch063
 62
1
100
AcDbPolyline
 90
1
 70
1
 10
4038.514232
 20
7203.669052
 30
0.0
  0
LWPOLYLINE
  5
292
100
AcDbEntity
  8
Sketch063
 62
1
100
AcDbPolyline
 90
1
 70
1
 10
3637.626182
 20
7203.668219
 30
0.0
  0
LWPOLYLINE
  5
293
100
AcDbEntity
  8
Sketch063
 62
1
100
AcDbPolyline
 90
3
 70
0
 10
2721.751393
 20
6217.296507
 30
0.0
 10
2721.750443
 20
6649.297729
 30
0.0
 10
3117.750858
 20
6649.298539
 30
0.0
  0
LWPOLYLINE
  5
294
100
AcDbEntity
  8
Sketch063
 62
1
100
AcDbPolyline
 90
2
 70
0
 10
3117.753556
 20
6217.300289
 30
0.0
 10
3117.750858
 20
6649.298539
 30
0.0
  0
LWPOLYLINE
  5
295
100
AcDbEntity
  8
Sketch063
 62
1
100
AcDbPolyline
 90
2
 70
0
 10
2721.751393
 20
6217.296507
 30
0.0
 10
3117.753556
 20
6217.300289
 30
0.0
  0
LWPOLYLINE
  5
296
100
AcDbEntity
  8
Sketch063
 62
1
100
AcDbPolyline
 90
3
 70
0
 10
3120.726146
 20
6974.020219
 30
0.0
 10
3120.725514
 20
6686.023407
 30
0.0
 10
2724.727447
 20
6686.022283
 30
0.0
  0
SPLINE
  5
297
100
AcDbEntity
  8
Sketch063
 62
1
100
AcDbSpline
 70
8
 71
3
 72
8
 73
4
 74
0
 40
0
 40
0
 40
0
 40
0
 40
1
 40
1
 40
1
 40
1
 10
2724.727303
 20
6768.289972
 30
0.0
 10
2761.111263
 20
6890.354567
 30
0.0
 10
2873.355499
 20
6974.022158
 30
0.0
 10
3000.727229
 20
6974.022132
 30
0.0
  0
LWPOLYLINE
  5
298
100
AcDbEntity
  8
Sketch063
 62
1
100
AcDbPolyline
 90
2
 70
0
 10
2724.727475
 20
6768.290251
 30
0.0
 10
2724.727447
 20
6686.022283
 30
0.0
  0
LWPOLYLINE
  5
299
100
AcDbEntity
  8
Sketch063
 62
1
100
AcDbPolyline
 90
2
 70
0
 10
3120.726146
 20
6974.020219
 30
0.0
 10
3000.727263
 20
6974.021951
 30
0.0
  0
ENDSEC
  0
SECTION
  2
OBJECTS
  0
DICTIONARY
  5
C
330
0
100
AcDbDictionary
  3
ACAD_GROUP
350
D
  3
ACAD_MLINESTYLE
350
17
  0
DICTIONARY
  5
D
330
C
100
AcDbDictionary
  0
DICTIONARY
  5
1A
330
C
100
AcDbDictionary
  0
DICTIONARY
  5
17
330
C
100
AcDbDictionary
  3
STANDARD
350
18
  0
DICTIONARY
  5
19
330
C
100
AcDbDictionary
  0
ENDSEC
  0
EOF
