999
"DXF R12 Output" (www.mydxf.blogspot.com)
 0 
SECTION
 2 
HEADER
 9 
$ACADVER
 1 
AC1009
 9 
$EXTMIN
 10 
 0 
 20 
 0 
 9 
$EXTMAX
 10 
 8.5 
 20 
 11 
 0 
ENDSEC
 0 
SECTION
 2 
ENTITIES
0
LINE
8
Layer 1
10
440.310000
20
-84.319400
11
220.155000
21
-211.426400
0
LINE
8
Layer 1
10
220.155000
20
-211.426400
11
0.000000
21
-84.319400
0
LINE
8
Layer 1
10
0.000000
20
-84.319400
11
0.000000
21
169.893600
0
LINE
8
Layer 1
10
0.000000
20
169.893600
11
220.155000
21
297.000000
0
LINE
8
Layer 1
10
220.155000
20
297.000000
11
440.310000
21
169.894000
0
LINE
8
Layer 1
10
440.310000
20
169.894000
11
440.310000
21
-84.319400
0
LINE
8
Layer 1
10
209.059000
20
290.592000
11
231.240000
21
290.592000
0
LINE
8
Layer 1
10
0.000000
20
297.000000
11
0.000000
21
297.000000
0
LINE
8
Layer 1
10
0.000000
20
297.000000
11
0.000000
21
297.000000
0
LINE
8
Layer 1
10
0.000000
20
297.000000
11
0.000000
21
297.000000
0
LINE
8
Layer 1
10
0.000000
20
297.000000
11
0.000000
21
297.000000
0
LINE
8
Layer 1
10
0.000000
20
297.000000
11
0.000000
21
297.000000
0
LINE
8
Layer 1
10
0.000000
20
297.000000
11
0.000000
21
297.000000
0
LINE
8
Layer 1
10
-0.000000
20
297.000000
11
-0.000000
21
297.000000
0
LINE
8
Layer 1
10
429.212000
20
176.299000
11
440.302900
21
157.089000
0
LINE
8
Layer 1
10
330.232000
20
360.553000
11
330.232000
21
360.553000
0
LINE
8
Layer 1
10
330.232000
20
360.553000
11
330.232000
21
360.553000
0
LINE
8
Layer 1
10
330.232000
20
360.553000
11
330.232000
21
360.553000
0
LINE
8
Layer 1
10
330.232000
20
360.553000
11
330.232000
21
360.553000
0
LINE
8
Layer 1
10
330.232000
20
360.553000
11
330.232000
21
360.553000
0
LINE
8
Layer 1
10
330.232000
20
360.553000
11
330.232000
21
360.553000
0
LINE
8
Layer 1
10
330.232000
20
360.553000
11
330.232000
21
360.553000
0
LINE
8
Layer 1
10
440.308000
20
-71.505700
11
429.217100
21
-90.715700
0
LINE
8
Layer 1
10
550.386000
20
106.341000
11
550.386000
21
106.341000
0
LINE
8
Layer 1
10
550.386000
20
106.341000
11
550.386000
21
106.341000
0
LINE
8
Layer 1
10
550.386000
20
106.341000
11
550.386000
21
106.341000
0
LINE
8
Layer 1
10
550.386000
20
106.341000
11
550.386000
21
106.341000
0
LINE
8
Layer 1
10
550.386000
20
106.341000
11
550.386000
21
106.341000
0
LINE
8
Layer 1
10
550.386000
20
106.341000
11
550.386000
21
106.341000
0
LINE
8
Layer 1
10
550.386000
20
106.341000
11
550.386000
21
106.341000
0
LINE
8
Layer 1
10
209.059000
20
290.592000
11
231.240000
21
290.592000
0
LINE
8
Layer 1
10
0.000000
20
297.000000
11
0.000000
21
297.000000
0
LINE
8
Layer 1
10
0.000000
20
297.000000
11
0.000000
21
297.000000
0
LINE
8
Layer 1
10
0.000000
20
297.000000
11
0.000000
21
297.000000
0
LINE
8
Layer 1
10
0.000000
20
297.000000
11
0.000000
21
297.000000
0
LINE
8
Layer 1
10
0.000000
20
297.000000
11
0.000000
21
297.000000
0
LINE
8
Layer 1
10
0.000000
20
297.000000
11
0.000000
21
297.000000
0
LINE
8
Layer 1
10
-0.000000
20
297.000000
11
-0.000000
21
297.000000
0
LINE
8
Layer 1
10
231.250000
20
-205.017000
11
209.069000
21
-205.017000
0
LINE
8
Layer 1
10
440.309000
20
-211.425000
11
440.309000
21
-211.425000
0
LINE
8
Layer 1
10
440.309000
20
-211.425000
11
440.309000
21
-211.425000
0
LINE
8
Layer 1
10
440.309000
20
-211.425000
11
440.309000
21
-211.425000
0
LINE
8
Layer 1
10
440.309000
20
-211.425000
11
440.309000
21
-211.425000
0
LINE
8
Layer 1
10
440.309000
20
-211.425000
11
440.309000
21
-211.425000
0
LINE
8
Layer 1
10
440.309000
20
-211.425000
11
440.309000
21
-211.425000
0
LINE
8
Layer 1
10
440.309000
20
-211.425000
11
440.309000
21
-211.425000
0
LINE
8
Layer 1
10
0.001332
20
157.081000
11
11.092200
21
176.291000
0
LINE
8
Layer 1
10
-110.077000
20
-20.766000
11
-110.077000
21
-20.766000
0
LINE
8
Layer 1
10
-110.077000
20
-20.766000
11
-110.077000
21
-20.766000
0
LINE
8
Layer 1
10
-110.077000
20
-20.766000
11
-110.077000
21
-20.766000
0
LINE
8
Layer 1
10
-110.077000
20
-20.766000
11
-110.077000
21
-20.766000
0
LINE
8
Layer 1
10
-110.077000
20
-20.766000
11
-110.077000
21
-20.766000
0
LINE
8
Layer 1
10
-110.077000
20
-20.766000
11
-110.077000
21
-20.766000
0
LINE
8
Layer 1
10
-110.077000
20
-20.765600
11
-110.077000
21
-20.765600
0
LINE
8
Layer 1
10
11.097200
20
-90.724200
11
0.006252
21
-71.514200
0
LINE
8
Layer 1
10
110.077000
20
-274.978000
11
110.077000
21
-274.978000
0
LINE
8
Layer 1
10
110.077000
20
-274.978000
11
110.077000
21
-274.978000
0
LINE
8
Layer 1
10
110.077000
20
-274.978000
11
110.077000
21
-274.978000
0
LINE
8
Layer 1
10
110.077000
20
-274.978000
11
110.077000
21
-274.978000
0
LINE
8
Layer 1
10
110.077000
20
-274.978000
11
110.077000
21
-274.978000
0
LINE
8
Layer 1
10
110.077000
20
-274.978000
11
110.077000
21
-274.978000
0
LINE
8
Layer 1
10
110.077000
20
-274.978000
11
110.077000
21
-274.978000
 0 
ENDSEC
 0 
EOF