<?xml version="1.0" encoding="UTF-8"?>
<!DOCTYPE svg PUBLIC "-//W3C//DTD SVG 1.1//EN" "http://www.w3.org/Graphics/SVG/1.1/DTD/svg11.dtd">
<svg xmlns="http://www.w3.org/2000/svg" xml:space="preserve" width="24in" height="12in" version="1.1" style="shape-rendering:geometricPrecision; text-rendering:geometricPrecision; image-rendering:optimizeQuality; fill-rule:evenodd; clip-rule:evenodd"
viewBox="0 0 24000 12000"
 xmlns:xlink="http://www.w3.org/1999/xlink">
 <defs>
  <style type="text/css">
   <![CDATA[.default {stroke:#000000; stroke-width:50; stroke-opacity:1; fill:none;}
.lasercutter {stroke:#ff0000; stroke-width:1; stroke-opacity:1; fill:none;}
]]>
  </style>
 </defs>
<polygon class="lasercutter" points="91.614,0.000 113.133,14.148 113.115,14.290 88.764,22.672 88.736,22.783 88.736,22.783 106.060,41.838 106.008,41.971 80.337,44.035 80.282,44.135 80.282,44.135 92.323,66.900 92.239,67.016 66.863,62.630 66.784,62.714 66.784,62.714 72.786,87.758 72.675,87.849 49.186,77.291 49.089,77.352 49.089,77.352 48.674,103.102 48.545,103.163 28.420,87.095 28.310,87.130 28.310,87.130 21.505,111.968 21.364,111.995 5.867,91.426 5.752,91.433 5.752,91.433 -7.016,113.798 -7.159,113.789 -17.054,90.013 -17.167,89.991 -17.167,89.991 -35.096,108.478 -35.232,108.434 -38.903,82.944 -39.007,82.895 -39.007,82.895 -60.971,96.342 -61.092,96.265 -58.308,70.663 -58.397,70.590 -58.397,70.590 -83.015,78.152 -83.113,78.048 -74.050,53.943 -74.117,53.849 -74.117,53.849 -99.842,55.052 -99.911,54.927 -85.138,33.832 -85.181,33.725 -85.181,33.725 -110.396,28.493 -110.432,28.354 -90.877,11.596 -90.892,11.482 -90.892,11.482 -114.014,0.143 -114.014,0.000 -90.906,-11.368 -90.892,-11.482 -90.892,-11.482 -110.468,-28.215 -110.432,-28.354 -85.223,-33.618 -85.181,-33.725 -85.181,-33.725 -99.980,-54.801 -99.911,-54.927 -74.185,-53.756 -74.117,-53.849 -74.117,-53.849 -83.211,-77.944 -83.113,-78.048 -58.486,-70.516 -58.397,-70.590 -58.397,-70.590 -61.213,-96.188 -61.092,-96.265 -39.112,-82.846 -39.007,-82.895 -39.007,-82.895 -35.369,-108.389 -35.232,-108.434 -17.280,-89.970 -17.167,-89.991 -17.167,-89.991 -7.302,-113.780 -7.159,-113.789 5.638,-91.440 5.752,-91.433 5.752,-91.433 21.223,-112.021 21.364,-111.995 28.201,-87.166 28.310,-87.130 28.310,-87.130 48.415,-103.224 48.545,-103.163 48.992,-77.414 49.089,-77.352 49.089,-77.352 72.565,-87.941 72.675,-87.849 66.705,-62.798 66.784,-62.714 66.784,-62.714 92.155,-67.132 92.239,-67.016 80.227,-44.236 80.282,-44.135 80.282,-44.135 105.955,-42.105 106.008,-41.971 88.707,-22.895 88.736,-22.783 88.736,-22.783 113.097,-14.432 113.115,-14.290 91.614,-0.115 91.614,-0.000 91.614,-0.000 " />
</svg>