999
FreeCAD v0.20 29410 (Git)
  0
SECTION
  2
HEADER
  9
$ACADVER
  1
AC1014
  9
$ACADMAINTVER
 70
     9
  9
$DWGCODEPAGE
  3
ANSI_1252
  9
$TEXTSTYLE
  7
STANDARD
  9
$DIMSTYLE
  2
STANDARD
  9
$DIMTXSTY
  7
STANDARD
  9
$CMLSTYLE
  2
STANDARD
  9
$LUNITS
 70
2
  9
$INSUNITS
 70
4
  9
$PEXTMAX
 10
50
 20
50
 30
50
  9
$PEXTMIN
 10
0
 20
0
 30
0
  9
$HANDSEED
  5
FFFF
  0
ENDSEC
  0
SECTION
  2
CLASSES
  0
CLASS
  1
ACDBDICTIONARYWDFLT
  2
AcDbDictionaryWithDefault
  3
ObjectDBX Classes
 90
        0
280
     0
281
     0
  0
CLASS
  1
XRECORD
  2
AcDbXrecord
  3
ObjectDBX Classes
 90
        0
280
     0
281
     0
  0
CLASS
  1
LWPOLYLINE
  2
AcDbPolyline
  3
ObjectDBX Classes
 90
        0
280
     0
281
     1
  0
ENDSEC
  0
SECTION
  2
TABLES
  0
TABLE
  2
VPORT
  5
20
330
0
100
AcDbSymbolTable
 70
     1
  0
VPORT
  5
21
330
20
100
AcDbSymbolTableRecord
100
AcDbViewportTableRecord
  2
*ACTIVE
 70
     0
  0
ENDTAB
  0
TABLE
  2
LTYPE
  5
22
330
0
100
AcDbSymbolTable
 70
     1
  0
LTYPE
  5
23
330
21
100
AcDbSymbolTableRecord
100
AcDbLinetypeTableRecord
  2
BYBLOCK
 70
     0
  3

 72
    65
 73
     0
 40
0.0
  0
LTYPE
  5
24
330
21
100
AcDbSymbolTableRecord
100
AcDbLinetypeTableRecord
  2
BYLAYER
 70
     0
  3

 72
    65
 73
     0
 40
0.0
  0
LTYPE
  5
25
330
21
100
AcDbSymbolTableRecord
100
AcDbLinetypeTableRecord
  2
CONTINUOUS
 70
     0
  3
Solid line
 72
    65
 73
     0
 40
0.0
  0
ENDTAB
  0
TABLE
  2
LAYER
  5
A25
330
0
100
AcDbSymbolTable
 70
3
  0
LAYER
  5
A26
330
A25
100
AcDbSymbolTableRecord
100
AcDbLayerTableRecord
  2
0
 70
   0
 62
   7
  6
CONTINUOUS
  0
LAYER
  5
A27
330
A25
100
AcDbSymbolTableRecord
100
AcDbLayerTableRecord
  2
none
 70
    0
 62
    7
  6
CONTINUOUS
  0
LAYER
  5
A28
330
A25
100
AcDbSymbolTableRecord
100
AcDbLayerTableRecord
  2
Sketch097
 70
    0
 62
    7
  6
CONTINUOUS
  0
ENDTAB
  0
TABLE
  2
STYLE
  5
70
330
0
100
AcDbSymbolTable
 70
     2
  0
STYLE
  5
71
330
70
100
AcDbSymbolTableRecord
100
AcDbTextStyleTableRecord
  2
STANDARD
 70
     0
 40
0.0
 41
1.0
 50
0.0
 71
     0
 42
2.5
  3
arial.ttf
  4

  0
STYLE
  5
72
330
70
100
AcDbSymbolTableRecord
100
AcDbTextStyleTableRecord
  2
ANNOTATIVE
 70
     0
 40
0.0
 41
1.0
 50
0.0
 71
     0
 42
2.5
  3
arial.ttf
  4

  0
ENDTAB
  0
TABLE
  2
VIEW
  5
73
330
0
100
AcDbSymbolTable
 70
     0
  0
ENDTAB
  0
TABLE
  2
UCS
  5
74
330
0
100
AcDbSymbolTable
 70
     0
  0
ENDTAB
  0
TABLE
  2
APPID
  5
75
330
0
100
AcDbSymbolTable
 70
     2
  0
APPID
  5
76
330
75
100
AcDbSymbolTableRecord
100
AcDbRegAppTableRecord
  2
ACAD
 70
     0
  0
APPID
  5
77
330
75
100
AcDbSymbolTableRecord
100
AcDbRegAppTableRecord
  2
ACADANNOTATIVE
 70
     0
  0
ENDTAB
  0
TABLE
  2
DIMSTYLE
  5
78
330
0
100
AcDbSymbolTable
 70
     2
  0
DIMSTYLE
105
79
330
78
100
AcDbSymbolTableRecord
100
AcDbDimStyleTableRecord
  2
STANDARD
 70
     0
  3

  4

  5

  6

  7

 40
0.0
 41
2.5
 42
0.625
 43
3.75
 44
1.25
 45
0.0
 46
0.0
 47
0.0
 48
0.0
140
2.5
141
2.5
142
0.0
143
0.03937007874016
144
1.0
145
0.0
146
1.0
147
0.625
 71
     0
 72
     0
 73
     0
 74
     0
 75
     0
 76
     0
 77
     1
 78
     8
170
     0
171
     3
172
     1
173
     0
174
     0
175
     0
176
     0
177
     0
178
     0
270
     2
271
     2
272
     2
273
     2
274
     3
340
71
275
     0
280
     0
281
     0
282
     0
283
     0
284
     8
285
     0
286
     0
287
     3
288
     0
  0
ENDTAB
  0
TABLE
  2
BLOCK_RECORD
  5
A01
330
0
100
AcDbSymbolTable
  70
5
  0
BLOCK_RECORD
  5
A02
330
A01
100
AcDbSymbolTableRecord
100
AcDbBlockTableRecord
  2
*MODEL_SPACE
  0
BLOCK_RECORD
  5
A03
330
A01
100
AcDbSymbolTableRecord
100
AcDbBlockTableRecord
  2
*PAPER_SPACE
  0
ENDTAB
  0
ENDSEC
  0
SECTION
  2
BLOCKS
  0
BLOCK
  5
A04
330
A02
100
AcDbEntity
  8
0
100
AcDbBlockBegin
  2
*MODEL_SPACE
 70
   0
 10
0
 20
0
 30
0
  3
*MODEL_SPACE
  1
 
  0
ENDBLK
  5
A05
330
A02
100
AcDbEntity
  8
0
100
AcDbBlockEnd
  0
BLOCK
  5
A06
330
A03
100
AcDbEntity
 67
1
  8
0
100
AcDbBlockBegin
  2
*PAPER_SPACE
 70
   0
 10
0
 20
0
 30
0
  3
*PAPER_SPACE
  1
 
  0
ENDBLK
  5
A07
330
A03
100
AcDbEntity
 67
    1
  8
0
100
AcDbBlockEnd
  0
ENDSEC
  0
SECTION
  2
ENTITIES
  0
CIRCLE
  5
A08
330
A02
100
AcDbEntity
  8
Sketch097
100
AcDbCircle
 10
-470.289
 20
-43.9598
 40
3.683
  0
CIRCLE
  5
A09
330
A02
100
AcDbEntity
  8
Sketch097
100
AcDbCircle
 10
-31.151
 20
-297.496
 40
3.683
  0
CIRCLE
  5
A0A
330
A02
100
AcDbEntity
  8
Sketch097
100
AcDbCircle
 10
-30.4143
 20
-26.3754
 40
3.683
  0
CIRCLE
  5
A0B
330
A02
100
AcDbEntity
  8
Sketch097
100
AcDbCircle
 10
-235.86
 20
92.2388
 40
3.683
  0
LINE
  5
A0C
330
A02
100
AcDbEntity
  8
Sketch097
100
AcDbLine
 10
-500.11
 20
-43.9598
 30
25.4
 11
-400.691
 21
-140.85
 31
25.4
  0
LINE
  5
A0D
330
A02
100
AcDbEntity
  8
Sketch097
100
AcDbLine
 10
-500.11
 20
-43.9598
 30
25.4
 11
-235.86
 21
108.605
 31
25.4
  0
LINE
  5
A0E
330
A02
100
AcDbEntity
  8
Sketch097
100
AcDbLine
 10
-235.86
 20
108.605
 30
25.4
 11
-16.2408
 21
-18.1923
 31
25.4
  0
LINE
  5
A0F
330
A02
100
AcDbEntity
  8
Sketch097
100
AcDbLine
 10
-16.2408
 20
-18.1923
 30
25.4
 11
-16.2408
 21
-323.322
 31
25.4
  0
LINE
  5
A10
330
A02
100
AcDbEntity
  8
Sketch097
100
AcDbLine
 10
-149.86
 20
-285.667
 30
25.4
 11
-16.2408
 21
-323.322
 31
25.4
  0
LINE
  5
A11
330
A02
100
AcDbEntity
  8
Sketch097
100
AcDbLine
 10
-400.691
 20
-140.85
 30
25.4
 11
-149.86
 21
-285.667
 31
25.4
  0
CIRCLE
  5
A12
330
A02
100
AcDbEntity
  8
Sketch097
100
AcDbCircle
 10
-178.78
 20
-261.009
 40
1.1303
  0
CIRCLE
  5
A13
330
A02
100
AcDbEntity
  8
Sketch097
100
AcDbCircle
 10
-152.384
 20
-276.249
 40
1.1303
  0
ARC
  5
A14
330
A02
100
AcDbEntity
  8
Sketch097
100
AcDbCircle
 10
-261.876
 20
-200.464
 30
25.4
 40
11.1125
100
AcDbArc
 50
88.6854
 51
31.3146
  0
LINE
  5
A15
330
A02
100
AcDbEntity
  8
Sketch097
100
AcDbLine
 10
-251.51
 20
-193.178
 30
25.4
 11
-252.382
 21
-194.689
 31
25.4
  0
LINE
  5
A16
330
A02
100
AcDbEntity
  8
Sketch097
100
AcDbLine
 10
-260.749
 20
-187.844
 30
25.4
 11
-251.51
 21
-193.178
 31
25.4
  0
LINE
  5
A17
330
A02
100
AcDbEntity
  8
Sketch097
100
AcDbLine
 10
-261.621
 20
-189.355
 30
25.4
 11
-260.749
 21
-187.844
 31
25.4
  0
CIRCLE
  5
A18
330
A02
100
AcDbEntity
  8
Sketch097
100
AcDbCircle
 10
-262.565
 20
-185.402
 40
1.1303
  0
CIRCLE
  5
A19
330
A02
100
AcDbEntity
  8
Sketch097
100
AcDbCircle
 10
-261.187
 20
-215.527
 40
1.1303
  0
ARC
  5
A1A
330
A02
100
AcDbEntity
  8
Sketch097
100
AcDbCircle
 10
-234.38
 20
-216.339
 30
25.4
 40
11.1125
100
AcDbArc
 50
88.6854
 51
31.3146
  0
LINE
  5
A1B
330
A02
100
AcDbEntity
  8
Sketch097
100
AcDbLine
 10
-224.014
 20
-209.053
 30
25.4
 11
-224.886
 21
-210.564
 31
25.4
  0
LINE
  5
A1C
330
A02
100
AcDbEntity
  8
Sketch097
100
AcDbLine
 10
-233.252
 20
-203.719
 30
25.4
 11
-224.014
 21
-209.053
 31
25.4
  0
LINE
  5
A1D
330
A02
100
AcDbEntity
  8
Sketch097
100
AcDbLine
 10
-234.125
 20
-205.23
 30
25.4
 11
-233.252
 21
-203.719
 31
25.4
  0
CIRCLE
  5
A1E
330
A02
100
AcDbEntity
  8
Sketch097
100
AcDbCircle
 10
-235.069
 20
-201.277
 40
1.1303
  0
CIRCLE
  5
A1F
330
A02
100
AcDbEntity
  8
Sketch097
100
AcDbCircle
 10
-233.691
 20
-231.402
 40
1.1303
  0
CIRCLE
  5
A20
330
A02
100
AcDbEntity
  8
Sketch097
100
AcDbCircle
 10
-217.275
 20
-238.784
 40
1.1303
  0
CIRCLE
  5
A21
330
A02
100
AcDbEntity
  8
Sketch097
100
AcDbCircle
 10
-190.879
 20
-254.024
 40
1.1303
  0
CIRCLE
  5
A22
330
A02
100
AcDbEntity
  8
Sketch097
100
AcDbCircle
 10
-134.438
 20
-237.864
 40
3.683
  0
CIRCLE
  5
A23
330
A02
100
AcDbEntity
  8
Sketch097
100
AcDbCircle
 10
-132.371
 20
-274.605
 40
8.255
  0
CIRCLE
  5
A24
330
A02
100
AcDbEntity
  8
Sketch097
100
AcDbCircle
 10
-132.747
 20
32.7063
 40
3.683
  0
ENDSEC
  0
SECTION
  2
OBJECTS
  0
DICTIONARY
  5
F000
330
0
100
AcDbDictionary
  3
ACAD_GROUP
350
F001
  0
DICTIONARY
  5
F001
330
F000
100
AcDbDictionary
  0
ENDSEC
  0
EOF