<?xml version="1.0" encoding="UTF-8" standalone="no"?>
<!-- Created with Inkscape (http://www.inkscape.org/) -->

<svg
   width="210mm"
   height="297mm"
   viewBox="0 0 210 297"
   version="1.1"
   id="svg772"
   inkscape:version="1.2.1 (9c6d41e410, 2022-07-14)"
   sodipodi:docname="ZF arena acrylic panels.svg"
   xmlns:inkscape="http://www.inkscape.org/namespaces/inkscape"
   xmlns:sodipodi="http://sodipodi.sourceforge.net/DTD/sodipodi-0.dtd"
   xmlns="http://www.w3.org/2000/svg"
   xmlns:svg="http://www.w3.org/2000/svg">
  <sodipodi:namedview
     id="namedview774"
     pagecolor="#505050"
     bordercolor="#eeeeee"
     borderopacity="1"
     inkscape:showpageshadow="0"
     inkscape:pageopacity="0"
     inkscape:pagecheckerboard="0"
     inkscape:deskcolor="#505050"
     inkscape:document-units="mm"
     showgrid="false"
     inkscape:zoom="0.2102413"
     inkscape:cx="896.58882"
     inkscape:cy="1657.6191"
     inkscape:window-width="1920"
     inkscape:window-height="1121"
     inkscape:window-x="-9"
     inkscape:window-y="-9"
     inkscape:window-maximized="1"
     inkscape:current-layer="layer1" />
  <defs
     id="defs769" />
  <g
     inkscape:label="Layer 1"
     inkscape:groupmode="layer"
     id="layer1">
    <g
       id="g767"
       transform="matrix(0.26458333,0,0,0.26458333,280.86101,-55.248347)">
      <path
         style="fill:none;stroke:#000000"
         d="m 528.231,1026.52 h 288"
         id="path22" />
      <path
         style="fill:none;stroke:#000000"
         d="m 816.231,1026.52 v -432"
         id="path24" />
      <path
         style="fill:none;stroke:#000000"
         d="m 816.231,594.52 h -288"
         id="path26" />
      <path
         style="fill:none;stroke:#000000"
         d="m 528.231,594.52 v 432"
         id="path28" />
      <path
         d="m 508.50255,654.51968 a 4.272,4.272 0 0 0 -8.544,0 4.272,4.272 0 0 0 8.544,0 z"
         style="fill:none;stroke:#000000"
         id="path30" />
      <path
         d="m 508.50255,726.51968 a 4.272,4.272 0 0 0 -8.544,0 4.272,4.272 0 0 0 8.544,0 z"
         style="fill:none;stroke:#000000"
         id="path32" />
      <path
         d="m 462.75855,783.63968 a 6.528,6.528 0 0 0 -13.056,0 6.528,6.528 0 0 0 13.056,0 z"
         style="fill:none;stroke:#000000"
         id="path34" />
      <path
         d="m 462.75855,863.31969 a 6.528,6.528 0 0 0 -13.056,0 6.528,6.528 0 0 0 13.056,0 z"
         style="fill:none;stroke:#000000"
         id="path36" />
      <path
         d="m 838.50066,792.51968 a 4.272,4.272 0 0 0 -8.544,0 4.272,4.272 0 0 0 8.544,0 z"
         style="fill:none;stroke:#000000"
         id="path38" />
      <path
         d="m 838.50066,828.51968 a 4.272,4.272 0 0 0 -8.544,0 4.272,4.272 0 0 0 8.544,0 z"
         style="fill:none;stroke:#000000"
         id="path40" />
      <path
         d="m 417.30255,654.51968 a 4.272,4.272 0 0 0 -8.544,0 4.272,4.272 0 0 0 8.544,0 z"
         style="fill:none;stroke:#000000"
         id="path42" />
      <path
         style="fill:none;stroke:#000000"
         d="M 0,1122.52 H 864"
         id="path44" />
      <path
         style="fill:none;stroke:#000000"
         d="M 864,1122.52 V -29.4803"
         id="path46" />
      <path
         style="fill:none;stroke:#000000"
         d="M 864,-29.4803 H 0"
         id="path48" />
      <path
         style="fill:none;stroke:#000000"
         d="M 0,-29.4803 V 1122.52"
         id="path50" />
    </g>
    <g
       id="g750"
       transform="matrix(0.26458333,0,0,0.26458333,279.59101,-56.807499)">
      <path
         style="fill:none;stroke:#000000"
         d="M 156,1170.52 H 28.8"
         id="path311" />
      <path
         style="fill:none;stroke:#000000"
         d="M 28.8,1170.52 H 4.8"
         id="path313" />
      <path
         style="fill:none;stroke:#000000"
         d="m 4.8,1170.52 v 24"
         id="path315" />
      <path
         style="fill:none;stroke:#000000"
         d="m 4.8,1194.52 v 4.32"
         id="path317" />
      <path
         style="fill:none;stroke:#000000"
         d="M 4.8,1198.84 H 144"
         id="path319" />
      <path
         style="fill:none;stroke:#000000"
         d="m 144,1198.84 v 12"
         id="path321" />
      <path
         style="fill:none;stroke:#000000"
         d="M 144,1210.84 H 33.6"
         id="path323" />
      <path
         style="fill:none;stroke:#000000"
         d="m 33.6,1210.84 v 26.88"
         id="path325" />
      <path
         style="fill:none;stroke:#000000"
         d="M 33.6,1237.72 H 4.8"
         id="path327" />
      <path
         style="fill:none;stroke:#000000"
         d="m 4.8,1237.72 v 4.8"
         id="path329" />
      <path
         style="fill:none;stroke:#000000"
         d="m 4.8,1242.52 v 24"
         id="path331" />
      <path
         style="fill:none;stroke:#000000"
         d="m 4.8,1266.52 h 24"
         id="path333" />
      <path
         style="fill:none;stroke:#000000"
         d="M 28.8,1266.52 H 156"
         id="path335" />
      <path
         style="fill:none;stroke:#000000"
         d="m 156,1170.52 v 96"
         id="path337" />
      <path
         d="m 22.56,1182.5197 a 5.76,5.76 0 0 0 -11.52,0 5.76,5.76 0 0 0 11.52,0 z"
         style="fill:none;stroke:#000000"
         id="path339" />
      <path
         d="m 22.56,1254.5197 a 5.76,5.76 0 0 0 -11.52,0 5.76,5.76 0 0 0 11.52,0 z"
         style="fill:none;stroke:#000000"
         id="path341" />
      <path
         d="m 113.76,1182.5197 a 5.76,5.76 0 0 0 -11.52,0 5.76,5.76 0 0 0 11.52,0 z"
         style="fill:none;stroke:#000000"
         id="path343" />
    </g>
    <g
       id="g731"
       transform="matrix(0.26458333,0,0,0.26458333,337.21048,-56.807499)">
      <path
         style="fill:none;stroke:#000000"
         d="m 10.8,1194.52 v 48"
         id="path494" />
      <path
         style="fill:none;stroke:#000000"
         d="m 10.8,1242.52 h -6"
         id="path496" />
      <path
         style="fill:none;stroke:#000000"
         d="m 4.8,1242.52 v 24"
         id="path498" />
      <path
         style="fill:none;stroke:#000000"
         d="m 4.8,1266.52 h 24"
         id="path500" />
      <path
         style="fill:none;stroke:#000000"
         d="m 28.8,1266.52 v -24"
         id="path502" />
      <path
         style="fill:none;stroke:#000000"
         d="m 28.8,1242.52 h -6"
         id="path504" />
      <path
         style="fill:none;stroke:#000000"
         d="m 22.8,1242.52 v -43.2"
         id="path506" />
      <path
         style="fill:none;stroke:#000000"
         d="M 22.8,1199.32 H 33.6"
         id="path508" />
      <path
         style="fill:none;stroke:#000000"
         d="m 33.6,1199.32 v 19.2"
         id="path510" />
      <path
         style="fill:none;stroke:#000000"
         d="M 33.6,1218.52 H 136.8"
         id="path512" />
      <path
         style="fill:none;stroke:#000000"
         d="m 136.8,1218.52 v -48"
         id="path514" />
      <path
         style="fill:none;stroke:#000000"
         d="M 136.8,1170.52 H 28.8"
         id="path516" />
      <path
         style="fill:none;stroke:#000000"
         d="M 28.8,1170.52 H 4.8"
         id="path518" />
      <path
         style="fill:none;stroke:#000000"
         d="m 4.8,1170.52 v 24"
         id="path520" />
      <path
         style="fill:none;stroke:#000000"
         d="m 4.8,1194.52 h 6"
         id="path522" />
      <path
         d="m 22.56,1182.5197 a 5.76,5.76 0 0 0 -11.52,0 5.76,5.76 0 0 0 11.52,0 z"
         style="fill:none;stroke:#000000"
         id="path524" />
      <path
         d="m 22.56,1254.5197 a 5.76,5.76 0 0 0 -11.52,0 5.76,5.76 0 0 0 11.52,0 z"
         style="fill:none;stroke:#000000"
         id="path526" />
      <path
         d="m 113.76,1182.5197 a 5.76,5.76 0 0 0 -11.52,0 5.76,5.76 0 0 0 11.52,0 z"
         style="fill:none;stroke:#000000"
         id="path528" />
    </g>
  </g>
</svg>
